<svg width="242" height="175" viewBox="0 0 242 175" fill="none" xmlns="http://www.w3.org/2000/svg">
<g clip-path="url(#clip0_842_2059)">
<path d="M82.6351 155.089C114.814 155.089 140.9 128.799 140.9 96.3689C140.9 63.9388 114.814 37.6489 82.6351 37.6489C50.4562 37.6489 24.3701 63.9388 24.3701 96.3689C24.3701 128.799 50.4562 155.089 82.6351 155.089Z" fill="#EEEEEE"/>
<path d="M206.259 132.334C225.681 132.334 241.426 116.466 241.426 96.8927C241.426 77.3191 225.681 61.4517 206.259 61.4517C186.837 61.4517 171.092 77.3191 171.092 96.8927C171.092 116.466 186.837 132.334 206.259 132.334Z" fill="#EEEEEE"/>
<path d="M198.562 32.4728C207.373 32.4728 214.515 25.2749 214.515 16.3958C214.515 7.51677 207.373 0.318848 198.562 0.318848C189.752 0.318848 182.609 7.51677 182.609 16.3958C182.609 25.2749 189.752 32.4728 198.562 32.4728Z" fill="#EEEEEE"/>
<path d="M117.44 174.72C182.124 174.72 234.56 173.144 234.56 171.2C234.56 169.256 182.124 167.68 117.44 167.68C52.7567 167.68 0.320312 169.256 0.320312 171.2C0.320312 173.144 52.7567 174.72 117.44 174.72Z" fill="#DFDFDF"/>
<path opacity="0.3" d="M98.927 46.3436H68.721C68.318 46.3436 67.991 46.0166 67.991 45.6136C67.991 45.2096 68.318 44.8826 68.721 44.8826H98.927C103.242 44.8826 106.751 41.3796 106.751 37.0746C106.751 32.7696 103.242 29.2676 98.927 29.2676H95.887C93.251 29.2676 91.108 31.4056 91.108 34.0356C91.108 36.6656 93.251 38.8036 95.887 38.8036H98.927C99.885 38.8036 100.662 38.0276 100.665 37.0696C100.665 36.1156 99.885 35.3366 98.927 35.3366H96.458C96.055 35.3366 95.728 35.0096 95.728 34.6066C95.728 34.2026 96.055 33.8756 96.458 33.8756H98.928C100.693 33.8746 102.126 35.3046 102.129 37.0706C102.126 38.8366 100.693 40.2666 98.927 40.2656H95.887C92.447 40.2656 89.645 37.4696 89.645 34.0356C89.645 30.6026 92.446 27.8066 95.887 27.8066H98.927C104.047 27.8066 108.216 31.9666 108.216 37.0746C108.211 42.1886 104.047 46.3436 98.927 46.3436ZM96.966 52.0466H84.46C84.056 52.0466 83.73 51.7196 83.73 51.3166C83.73 50.9126 84.056 50.5856 84.46 50.5856H96.964C97.368 50.5856 97.694 50.9126 97.694 51.3156C97.694 51.7196 97.368 52.0456 96.964 52.0456L96.966 52.0466ZM79.116 52.0466H39.732C39.329 52.0466 39.002 51.7196 39.002 51.3166C39.002 50.9126 39.329 50.5856 39.732 50.5856H79.118C79.522 50.5856 79.849 50.9126 79.849 51.3156C79.849 51.7196 79.522 52.0456 79.119 52.0456H79.118L79.116 52.0466Z" fill="black"/>
<path d="M202.914 68.7119H205.741V146.099H202.914V68.7119Z" fill="white"/>
<path d="M205.736 146.836H202.909C202.715 146.836 202.529 146.76 202.391 146.622C202.253 146.485 202.176 146.299 202.176 146.104V68.712C202.176 68.307 202.504 67.98 202.909 67.98H205.736C206.142 67.98 206.47 68.307 206.47 68.712V108.788C206.47 109.193 206.142 109.521 205.736 109.521C205.541 109.521 205.355 109.444 205.216 109.306C205.079 109.169 205.002 108.982 205.002 108.788V69.445H203.642V145.372H205.002V118.442C205.002 118.036 205.33 117.709 205.736 117.709C206.142 117.709 206.47 118.036 206.47 118.442V146.104C206.47 146.505 206.142 146.836 205.736 146.836Z" fill="black"/>
<path d="M176.321 68.7119H179.148V146.099H176.321V68.7119Z" fill="white"/>
<path d="M179.147 146.832H176.32C176.125 146.832 175.938 146.756 175.8 146.618C175.663 146.481 175.585 146.294 175.586 146.099V68.712C175.586 68.307 175.913 67.98 176.32 67.98H179.146C179.552 67.98 179.879 68.307 179.879 68.712V146.099C179.879 146.505 179.553 146.832 179.147 146.832ZM177.054 145.366H178.414V69.446H177.054V145.368V145.366Z" fill="black"/>
<path d="M90.3636 167.399C93.5238 167.399 96.0856 164.841 96.0856 161.686C96.0856 158.53 93.5238 155.973 90.3636 155.973C87.2034 155.973 84.6416 158.53 84.6416 161.686C84.6416 164.841 87.2034 167.399 90.3636 167.399Z" fill="#2D7FF1"/>
<path d="M90.3632 168.132C86.8032 168.132 83.9082 165.242 83.9082 161.686C83.9082 158.132 86.8032 155.241 90.3632 155.241C93.9232 155.241 96.8182 158.131 96.8182 161.686C96.8182 165.241 93.9232 168.132 90.3632 168.132ZM90.3632 156.706C87.6152 156.706 85.3752 158.942 85.3752 161.686C85.3752 164.43 87.6102 166.667 90.3632 166.667C93.1162 166.667 95.3512 164.436 95.3512 161.687C95.3512 158.937 93.1112 156.706 90.3632 156.706Z" fill="black"/>
<path d="M170.721 167.399C173.881 167.399 176.443 164.841 176.443 161.686C176.443 158.53 173.881 155.973 170.721 155.973C167.561 155.973 164.999 158.53 164.999 161.686C164.999 164.841 167.561 167.399 170.721 167.399Z" fill="#2D7FF1"/>
<path d="M170.721 168.132C167.161 168.132 164.266 165.242 164.266 161.686C164.266 158.132 167.162 155.241 170.721 155.241C174.281 155.241 177.177 158.131 177.177 161.686C177.177 165.241 174.277 168.132 170.721 168.132ZM170.721 156.706C167.973 156.706 165.733 158.942 165.733 161.686C165.733 164.43 167.968 166.667 170.721 166.667C173.475 166.667 175.709 164.436 175.709 161.687C175.709 158.937 173.469 156.706 170.721 156.706Z" fill="black"/>
<path d="M198.151 38.1149H165.576C165.172 38.1149 164.844 37.7869 164.844 37.3819C164.844 36.9779 165.172 36.6499 165.576 36.6499H198.151C198.556 36.6499 198.884 36.9779 198.884 37.3819C198.884 37.7869 198.556 38.1149 198.151 38.1149Z" fill="black"/>
<path d="M90.3232 111.635V110.385C90.3232 101.776 93.1742 93.6596 98.0262 88.5076L100.266 86.1246L103.092 83.1076L139.09 44.7546L147.731 35.5516L156.744 25.9466L160.574 21.8696L161.024 21.3856L165.576 16.5376V68.7076L156.735 78.1276L151.399 83.8116L151.247 83.9776H151.243L142.004 93.8166L136.669 99.5006L131.862 104.618L127.955 108.778L122.615 114.472L122.091 115.029L112.853 124.869L107.508 130.562L103.097 135.26L100.27 138.268L98.2702 140.401L96.1532 142.657L92.9302 146.095L90.3332 148.864V111.635H90.3232Z" fill="#96A1A4"/>
<path d="M90.3235 121.664V148.873L92.9205 146.104L96.1435 142.667V114.906C96.1435 113.806 96.1925 112.713 96.2805 111.634C96.7055 106.629 98.0895 101.917 100.26 97.9959C101.067 96.5359 102.013 95.1589 103.087 93.8839C103.332 93.5909 103.587 93.3029 103.845 93.0339L144.548 49.6729L147.722 46.2889L162.329 30.7259L165.567 27.2739V16.5469L161.014 21.3949L160.564 21.8789L156.734 25.9559L147.722 35.5609L139.08 44.7659L103.082 83.1169L100.256 86.1349L98.0165 88.5179C93.1655 93.6699 90.3145 101.78 90.3145 110.394V121.664H90.3245H90.3235Z" fill="#707D7F"/>
<path d="M90.2398 149.6C90.1478 149.602 90.0558 149.584 89.9708 149.547C89.6928 149.437 89.5088 149.168 89.5068 148.868V110.385C89.5068 101.629 92.4598 93.2649 97.4088 88.0099L102.476 82.6149L164.956 16.0429C165.16 15.8229 165.478 15.7549 165.762 15.8629C166.041 15.9739 166.227 16.2429 166.227 16.5459V68.7159C166.227 68.9019 166.154 69.0829 166.027 69.2199L151.701 84.4839L151.643 84.5429L90.7728 149.37C90.6328 149.517 90.4418 149.6 90.2398 149.6ZM164.755 18.3919L98.4748 89.0119C93.7748 94.0019 90.9728 101.99 90.9728 110.385V147.018L150.616 83.4779L150.665 83.4299L150.767 83.3179L164.75 68.4189V18.3919H164.755Z" fill="black"/>
<path d="M197.549 37.3818H158.861V52.9148H147.424V68.4438H135.991V83.9768H124.557V99.5048H113.118V115.038H101.684V130.566H90.2455V146.099H78.8125V161.686H117.501V146.158H131.427V130.625H140.371V115.097H151.805V99.5638H163.244V84.0308H174.677V68.5018H186.117V52.9698H197.549V37.3818Z" fill="#E9F3F0"/>
<path d="M78.8125 157.702H117.665V161.692H78.8125V157.702ZM90.3625 140.411H131.427V146.1H90.3625V140.411ZM101.684 124.877H131.427V130.567H101.684V124.877ZM113.078 108.787H142.822V114.477H113.078V108.787ZM124.557 93.8166H154.3V99.5046H124.557V93.8166ZM135.991 78.1266H165.733V83.8156H135.991V78.1266ZM147.424 62.1146H177.167V67.8046H147.424V62.1146ZM158.896 47.4316H188.639V53.1216H158.896V47.4316Z" fill="#C1D2CD"/>
<path d="M172.609 53.6476H147.428C147.023 53.6476 146.695 53.3196 146.695 52.9156C146.695 52.5106 147.023 52.1826 147.428 52.1826H172.608C173.013 52.1826 173.341 52.5106 173.341 52.9156C173.341 53.3206 173.013 53.6486 172.609 53.6486V53.6476ZM160.016 69.1756H135.99C135.585 69.1756 135.257 68.8476 135.257 68.4436C135.257 68.0386 135.585 67.7106 135.99 67.7106H160.015C160.42 67.7106 160.748 68.0386 160.748 68.4436C160.748 68.8486 160.42 69.1766 160.015 69.1766L160.016 69.1756ZM151.243 84.7096H124.55C124.146 84.7096 123.818 84.3816 123.818 83.9776C123.818 83.5736 124.146 83.2456 124.55 83.2456H151.242C151.647 83.2456 151.974 83.5736 151.974 83.9776C151.974 84.3816 151.648 84.7096 151.243 84.7096ZM151.243 100.238H113.117C112.713 100.238 112.385 99.9096 112.385 99.5056C112.385 99.1006 112.713 98.7726 113.117 98.7726H151.242C151.647 98.7726 151.975 99.1016 151.975 99.5056C151.975 99.9106 151.647 100.239 151.242 100.239L151.243 100.238ZM145.585 115.772H101.679C101.274 115.772 100.946 115.444 100.946 115.039C100.946 114.634 101.274 114.306 101.679 114.306H145.585C145.989 114.306 146.317 114.634 146.317 115.039C146.317 115.444 145.989 115.772 145.585 115.772ZM137.897 131.3H90.2451C89.8411 131.3 89.5131 130.972 89.5131 130.567C89.5131 130.163 89.8411 129.835 90.2451 129.835H137.897C138.302 129.835 138.63 130.163 138.63 130.567C138.63 130.972 138.302 131.3 137.897 131.3ZM117.499 146.833H78.8101C78.4051 146.833 78.0771 146.505 78.0771 146.1C78.0771 145.695 78.4051 145.367 78.8101 145.367H117.498C117.903 145.367 118.231 145.695 118.231 146.1C118.231 146.505 117.904 146.833 117.499 146.833Z" fill="black"/>
<path d="M117.499 162.42H78.8101C78.6151 162.42 78.4291 162.342 78.2921 162.205C78.1541 162.067 78.0771 161.881 78.0771 161.686V146.1C78.0771 145.695 78.4051 145.368 78.8111 145.368H89.5111V130.568C89.5111 130.162 89.8381 129.835 90.2441 129.835H100.944V115.038C100.944 114.633 101.272 114.306 101.678 114.306H112.378V99.5059C112.378 99.0999 112.706 98.7719 113.111 98.7719H123.812V83.9719C123.812 83.5669 124.139 83.2399 124.545 83.2399H135.245V68.4439C135.245 68.0379 135.573 67.7109 135.979 67.7109H146.679V52.9109C146.679 52.5059 147.006 52.1789 147.413 52.1789H158.113V37.3819C158.113 36.9769 158.44 36.6499 158.846 36.6499H197.534C197.939 36.6499 198.267 36.9769 198.267 37.3819V52.9699C198.267 53.3749 197.939 53.7019 197.534 53.7019H186.834V68.4979C186.834 68.9029 186.507 69.2299 186.101 69.2299H175.401V84.0299C175.401 84.4359 175.073 84.7629 174.667 84.7629H163.977V99.5629C163.977 99.9689 163.649 100.296 163.243 100.296H152.543V115.097C152.543 115.502 152.215 115.829 151.81 115.829H141.11V130.625C141.11 131.03 140.782 131.357 140.376 131.357H132.166V146.158C132.166 146.563 131.837 146.89 131.432 146.89H118.237V161.69C118.231 162.095 117.903 162.42 117.499 162.42ZM79.5461 160.954H116.766V146.153C116.766 145.748 117.094 145.421 117.5 145.421H130.694V130.621C130.694 130.215 131.021 129.887 131.427 129.887H139.638V115.092C139.638 114.687 139.966 114.36 140.372 114.36H151.072V99.5579C151.072 99.1529 151.4 98.8259 151.805 98.8259H162.506V84.0259C162.506 83.6199 162.833 83.2929 163.239 83.2929H173.939V68.4929C173.939 68.0879 174.267 67.7599 174.673 67.7599H185.373V52.9639C185.373 52.5589 185.7 52.2319 186.107 52.2319H196.807V38.1149H159.586V52.9149C159.586 53.3199 159.259 53.6469 158.852 53.6469H148.152V68.4479C148.152 68.8529 147.825 69.1809 147.419 69.1809H136.719V83.9759C136.719 84.3809 136.39 84.7079 135.985 84.7079H125.285V99.5099C125.285 99.9159 124.957 100.243 124.551 100.243H113.851V115.043C113.851 115.449 113.523 115.776 113.117 115.776H102.417V130.572C102.417 130.977 102.09 131.304 101.684 131.304H90.9821V146.104C90.9821 146.51 90.6551 146.837 90.2501 146.837H79.5501V160.955H79.5461V160.954Z" fill="black"/>
<path d="M206.823 16.5405V68.7115L205.741 69.8595L202.914 72.8675L182.229 94.8595L179.153 98.1315L176.326 101.135L176.033 101.442L172.487 105.212L166.296 111.8L136.724 143.242L131.433 148.867V110.374C131.433 109.862 131.443 109.348 131.467 108.841C131.487 108.221 131.531 107.611 131.584 107.01C131.599 106.82 131.618 106.639 131.638 106.458C131.662 106.17 131.697 105.887 131.731 105.598C131.775 105.276 131.814 104.949 131.868 104.627C131.892 104.403 131.932 104.182 131.975 103.963C132.049 103.523 132.127 103.089 132.22 102.659C132.279 102.356 132.347 102.063 132.416 101.77C132.475 101.52 132.533 101.282 132.596 101.033C133.113 98.9855 133.826 96.9935 134.729 95.0845C134.827 94.8805 134.925 94.6845 135.027 94.4795C135.145 94.2445 135.262 94.0205 135.389 93.7905C135.517 93.5515 135.649 93.3175 135.78 93.0835C135.917 92.8335 136.06 92.5995 136.21 92.3645C136.514 91.8765 136.827 91.3935 137.16 90.9395C137.301 90.7295 137.453 90.5335 137.6 90.3335C137.746 90.1385 137.898 89.9475 138.045 89.7675C138.23 89.5325 138.421 89.3075 138.617 89.0885C138.787 88.8885 138.963 88.6925 139.145 88.5025L192.577 31.6885L193.326 30.8885L197.961 25.9655L206.823 16.5405Z" fill="#C6D1D4"/>
<path d="M206.823 16.5405V27.4455L144.427 93.7855C139.575 98.9385 136.724 107.044 136.724 115.654V143.243L131.433 148.868V110.374C131.433 109.862 131.443 109.348 131.467 108.841C131.487 108.221 131.531 107.611 131.584 107.01C131.599 106.82 131.618 106.639 131.638 106.458C131.662 106.17 131.697 105.887 131.731 105.598C131.775 105.276 131.814 104.949 131.868 104.627C131.892 104.403 131.932 104.182 131.975 103.963C132.044 103.523 132.127 103.089 132.22 102.659C132.279 102.356 132.347 102.063 132.416 101.77C132.475 101.52 132.533 101.282 132.596 101.033C133.113 98.9855 133.826 96.9935 134.729 95.0845C134.827 94.8805 134.925 94.6845 135.027 94.4795C135.145 94.2445 135.262 94.0205 135.389 93.7905C135.517 93.5515 135.649 93.3175 135.78 93.0835C135.917 92.8335 136.06 92.5995 136.21 92.3645C136.514 91.8765 136.827 91.3935 137.16 90.9395C137.301 90.7295 137.453 90.5335 137.6 90.3335C137.746 90.1385 137.898 89.9475 138.045 89.7675C138.23 89.5325 138.421 89.3075 138.617 89.0885C138.787 88.8885 138.963 88.6925 139.145 88.5025L192.577 31.6885L197.961 25.9655L206.823 16.5405Z" fill="#AEBABB"/>
<path opacity="0.45" d="M193.31 30.898L182.222 94.86L179.146 98.132L176.32 101.13L176.031 101.443L187.113 37.484L187.215 37.382L192.56 31.692L193.308 30.897L193.31 30.898ZM183.568 41.254L172.481 105.214L169.386 108.505L180.472 44.551L183.568 41.254Z" fill="white"/>
<path d="M131.427 149.6C131.334 149.6 131.243 149.584 131.157 149.547C130.879 149.437 130.695 149.168 130.693 148.868V110.374C130.693 109.823 130.703 109.29 130.728 108.754C130.786 107.303 130.923 105.872 131.138 104.51C131.408 102.723 131.804 100.964 132.317 99.2898C132.925 97.2768 133.729 95.3298 134.718 93.4738C135.828 91.4088 137.134 89.5668 138.601 88.0098L206.294 16.0388C206.572 15.7458 207.034 15.7308 207.331 16.0038C207.624 16.2818 207.639 16.7438 207.364 17.0398L139.662 89.0108C138.282 90.4768 137.056 92.2098 136.004 94.1628C135.061 95.9338 134.294 97.7928 133.716 99.7148C133.216 101.357 132.839 103.033 132.586 104.73C132.298 106.598 132.156 108.485 132.161 110.375V147.018L136.185 142.74L187.558 88.1128C187.837 87.8198 188.298 87.8048 188.595 88.0788C188.889 88.3558 188.905 88.8178 188.63 89.1138L131.96 149.371C131.821 149.518 131.628 149.6 131.427 149.6ZM195.09 81.9158C194.798 81.9148 194.535 81.7408 194.418 81.4738C194.302 81.2058 194.354 80.8948 194.552 80.6808L206.284 68.2088C206.562 67.9158 207.026 67.9028 207.32 68.1798C207.614 68.4578 207.629 68.9228 207.35 69.2148L195.618 81.6868C195.481 81.8328 195.29 81.9148 195.09 81.9158Z" fill="black"/>
<path d="M219.772 146.104H224.036V161.686H117.499V146.104H213.165H219.772Z" fill="#96A1A4"/>
<path d="M117.499 157.35H224.04V161.686H117.499V157.35Z" fill="#707D7F"/>
<path d="M224.037 162.42H117.5C117.305 162.42 117.119 162.342 116.981 162.205C116.844 162.068 116.766 161.881 116.766 161.686V146.1C116.766 145.695 117.094 145.368 117.5 145.368H162.3C162.705 145.368 163.033 145.696 163.033 146.101C163.033 146.505 162.705 146.833 162.301 146.833H118.235V160.955H223.309V146.833H170.121C169.717 146.833 169.389 146.505 169.389 146.1C169.389 145.695 169.717 145.367 170.121 145.367H224.037C224.443 145.367 224.771 145.695 224.771 146.1V161.687C224.771 162.093 224.443 162.42 224.037 162.42Z" fill="black"/>
<path d="M132.182 167.399C135.342 167.399 137.904 164.841 137.904 161.686C137.904 158.53 135.342 155.973 132.182 155.973C129.022 155.973 126.46 158.53 126.46 161.686C126.46 164.841 129.022 167.399 132.182 167.399Z" fill="#2D7FF1"/>
<path d="M132.182 163.698C133.295 163.698 134.197 162.797 134.197 161.686C134.197 160.575 133.295 159.674 132.182 159.674C131.069 159.674 130.167 160.575 130.167 161.686C130.167 162.797 131.069 163.698 132.182 163.698Z" fill="#FFBF33"/>
<path d="M132.182 168.132C128.622 168.132 125.725 165.242 125.725 161.686C125.727 158.132 128.621 155.241 132.182 155.241C135.742 155.241 138.637 158.131 138.637 161.686C138.637 165.241 135.741 168.132 132.182 168.132ZM132.182 156.706C129.432 156.706 127.192 158.942 127.192 161.686C127.192 164.43 129.432 166.667 132.182 166.667C134.93 166.667 137.17 164.436 137.17 161.687C137.17 158.937 134.935 156.706 132.182 156.706Z" fill="black"/>
<path d="M212.539 167.399C215.7 167.399 218.261 164.841 218.261 161.686C218.261 158.53 215.7 155.973 212.539 155.973C209.379 155.973 206.817 158.53 206.817 161.686C206.817 164.841 209.379 167.399 212.539 167.399Z" fill="#2D7FF1"/>
<path d="M212.538 168.132C208.978 168.132 206.084 165.242 206.084 161.686C206.084 158.132 208.978 155.241 212.538 155.241C216.098 155.241 218.993 158.131 218.993 161.686C218.993 165.241 216.098 168.132 212.538 168.132ZM212.538 156.706C209.791 156.706 207.551 158.942 207.551 161.686C207.551 164.43 209.786 166.667 212.539 166.667C215.292 166.667 217.527 164.436 217.527 161.687C217.527 158.937 215.286 156.706 212.538 156.706Z" fill="black"/>
<path d="M212.538 163.698C213.651 163.698 214.553 162.797 214.553 161.686C214.553 160.575 213.651 159.674 212.538 159.674C211.426 159.674 210.523 160.575 210.523 161.686C210.523 162.797 211.426 163.698 212.538 163.698Z" fill="#FFBF33"/>
<path d="M206.822 69.4446C206.627 69.4446 206.441 69.3676 206.303 69.2306C206.165 69.0926 206.088 68.9066 206.088 68.7116V16.5416C206.088 16.1356 206.416 15.8086 206.822 15.8086C207.228 15.8086 207.555 16.1356 207.555 16.5406V68.7116C207.555 69.1126 207.222 69.4446 206.822 69.4446Z" fill="black"/>
<path d="M28.3564 143.133H64.5684V169.091H28.3564V143.133Z" fill="#C08162"/>
<path d="M28.459 142.996H43.117V168.892H28.459V142.996Z" fill="#8F5D42"/>
<path d="M64.5719 169.83H28.3609C28.1669 169.83 27.9809 169.752 27.8439 169.614C27.7069 169.477 27.6299 169.29 27.6309 169.096V143.133C27.6309 142.728 27.9569 142.4 28.3609 142.4H64.5719C64.9769 142.4 65.3029 142.728 65.3029 143.133V157.505C65.3029 157.908 64.9759 158.235 64.5729 158.235C64.1689 158.235 63.8409 157.908 63.8409 157.505V143.866H29.0909V168.364H63.8409V164.788C63.8409 164.384 64.1689 164.057 64.5719 164.057C64.9759 164.057 65.3029 164.384 65.3029 164.787V169.097C65.3029 169.497 64.9719 169.829 64.5729 169.829L64.5719 169.83Z" fill="black"/>
<path d="M29.2976 108.992H8.43558C4.40658 108.992 1.14258 112.266 1.14258 116.305V156.845C1.14258 160.885 4.40658 164.157 8.43558 164.157H29.2966C33.3256 164.157 36.5896 160.884 36.5896 156.845V116.305C36.5896 112.265 33.3256 108.993 29.2966 108.993L29.2976 108.992Z" fill="#E44949"/>
<path d="M13.2356 164.153H8.44255C4.41255 164.153 1.14355 160.884 1.14355 156.845V116.305C1.14355 112.265 4.41355 108.988 8.44155 108.988H13.2356C9.20555 108.988 5.93755 112.266 5.93755 116.305V156.845C5.93755 160.885 9.20655 164.153 13.2356 164.153Z" fill="#E12E2E"/>
<path d="M26.1001 164.153H28.7801V169.092H26.1001V164.153ZM8.95215 164.153H11.6321V169.092H8.95215V164.153Z" fill="#AE3434"/>
<path d="M28.7807 169.83H26.1007C25.9067 169.829 25.7207 169.752 25.5837 169.614C25.4467 169.477 25.3707 169.29 25.3707 169.096V164.157C25.3707 163.752 25.6977 163.425 26.1007 163.425H28.7807C29.1857 163.425 29.5117 163.752 29.5117 164.157V169.097C29.5117 169.497 29.1857 169.829 28.7817 169.829L28.7807 169.83ZM26.8317 168.364H28.0497V164.89H26.8317V168.364ZM11.6327 169.829H8.95266C8.75866 169.829 8.57266 169.752 8.43566 169.614C8.29866 169.477 8.22266 169.29 8.22266 169.096V164.157C8.22266 163.752 8.54866 163.425 8.95266 163.425H11.6327C12.0367 163.425 12.3627 163.752 12.3627 164.157V169.097C12.3627 169.497 12.0367 169.829 11.6327 169.829ZM9.68366 168.364H10.9017V164.89H9.68366V168.364Z" fill="black"/>
<path d="M29.2972 164.89H8.43523C4.01223 164.89 0.407227 161.285 0.407227 156.85V129.148C0.407227 128.744 0.734227 128.417 1.13723 128.417C1.54223 128.417 1.86923 128.744 1.86923 129.147V156.85C1.86923 160.474 4.81123 163.425 8.43523 163.425H29.2962C32.9112 163.425 35.8532 160.475 35.8532 156.85V116.31C35.8532 112.681 32.9112 109.725 29.2962 109.725H8.43623C4.81623 109.725 1.86923 112.675 1.86923 116.31V120.726C1.86923 120.986 1.72923 121.228 1.50323 121.359C1.27723 121.489 0.999227 121.489 0.773227 121.359C0.546227 121.229 0.407227 120.987 0.407227 120.726V116.31C0.407227 111.875 4.00723 108.26 8.43523 108.26H29.2962C33.7192 108.26 37.3162 111.87 37.3162 116.31V156.85C37.3162 161.28 33.7192 164.89 29.2962 164.89H29.2972Z" fill="black"/>
<path d="M27.3966 109.725H10.3326C10.1376 109.725 9.95159 109.648 9.81359 109.511C9.67659 109.373 9.5996 109.186 9.6006 108.992V85.9547C9.6006 85.5487 9.9266 85.2217 10.3306 85.2217H27.3966C27.8006 85.2217 28.1266 85.5487 28.1266 85.9547V108.992C28.1266 109.397 27.8006 109.725 27.3966 109.725ZM11.0666 108.26H26.6716V86.6877H11.0676V108.26H11.0666Z" fill="black"/>
<path d="M28.7073 127.887H9.02625C7.43925 127.885 6.15525 126.597 6.15625 125.01V118.493C6.15625 116.906 7.44325 115.617 9.02625 115.617H28.7073C30.2933 115.62 31.5772 116.907 31.5772 118.493V125.01C31.5772 125.772 31.2773 126.503 30.7383 127.043C30.2003 127.583 29.4683 127.887 28.7073 127.887ZM26.9293 157.153H10.8093C8.24225 157.153 6.16225 155.066 6.16225 152.493V139.162C6.16225 136.588 8.24225 134.502 10.8103 134.502H26.9303C29.4973 134.502 31.5772 136.588 31.5772 139.162V152.492C31.5772 155.067 29.4973 157.152 26.9293 157.152V157.153Z" fill="#AE3434"/>
<path d="M58.6625 154.148H37.6285C37.4335 154.148 37.2485 154.071 37.1105 153.934C36.9735 153.796 36.8965 153.61 36.8975 153.416C36.8975 153.011 37.2235 152.683 37.6275 152.683H58.6645C59.0685 152.683 59.3945 153.011 59.3945 153.416C59.3945 153.821 59.0685 154.148 58.6645 154.148H58.6625ZM51.0685 143.866H41.8555C41.6615 143.866 41.4755 143.788 41.3385 143.651C41.2015 143.513 41.1255 143.327 41.1255 143.133V137.433C41.1255 137.027 41.4525 136.7 41.8555 136.7H51.0685C51.4725 136.7 51.7985 137.027 51.7985 137.432V143.132C51.7985 143.539 51.4725 143.866 51.0685 143.866ZM42.5865 142.4H50.3365V138.165H42.5865V142.4Z" fill="black"/>
<path d="M55.1548 157.533C54.9608 157.533 54.7748 157.456 54.6378 157.319C54.5008 157.182 54.4238 156.995 54.4238 156.801V153.421C54.4238 153.017 54.7518 152.69 55.1548 152.69C55.5588 152.69 55.8858 153.017 55.8858 153.42V156.801C55.8858 157.201 55.5588 157.533 55.1548 157.533Z" fill="black"/>
<path d="M29.2007 139.963H8.53372C8.33972 139.963 8.15372 139.886 8.01572 139.748C7.88072 139.611 7.80272 139.424 7.80372 139.23C7.80372 138.824 8.12972 138.497 8.53372 138.497H29.2007C29.6047 138.497 29.9307 138.824 29.9307 139.23C29.9307 139.635 29.6047 139.963 29.2007 139.963Z" fill="black"/>
<path d="M26.2772 143.387C26.0832 143.387 25.8972 143.309 25.7602 143.172C25.6232 143.034 25.5462 142.848 25.5472 142.654V139.235C25.5392 138.969 25.6772 138.72 25.9052 138.585C26.1352 138.449 26.4202 138.449 26.6492 138.585C26.8792 138.72 27.0162 138.969 27.0082 139.235V142.655C27.0082 143.06 26.6812 143.387 26.2772 143.387Z" fill="black"/>
</g>
<defs>
<clipPath id="clip0_842_2059">
<rect width="242" height="175" fill="white"/>
</clipPath>
</defs>
</svg>
