<svg width="512" height="512" viewBox="0 0 512 512" fill="none" xmlns="http://www.w3.org/2000/svg">
<g clip-path="url(#clip0_659_2246)">
<path d="M255.845 342.906H402.067L417.517 86.3267C417.517 49.909 387.721 20.1127 351.303 20.1127H255.845H160.386C123.968 20.1127 94.1721 49.909 94.1721 86.3267L109.622 342.906H255.845Z" fill="#FF9900"/>
<path d="M55.5473 354.493C67.1348 353.942 76.5151 343.458 75.4115 331.87L67.1348 211.03C67.1348 208.822 66.583 206.615 66.0312 204.408C61.0652 186.199 42.3045 175.715 24.6475 181.233C6.43862 186.199 -4.04527 204.96 1.47257 222.617L34.0278 339.043C36.2349 348.424 45.6152 355.045 55.5473 354.493Z" fill="#FF9900"/>
<path d="M452.28 392.015H255.845H59.4098C30.1653 392.015 16.3707 427.881 37.8903 447.193L38.4421 447.745C49.4777 457.677 67.6866 466.506 85.8954 473.127C120.658 485.818 157.075 491.888 194.045 491.888H255.845H317.644C354.614 491.888 391.032 485.818 425.794 473.127C444.003 466.506 462.212 457.677 473.247 447.745L473.799 447.193C495.319 427.329 480.972 392.015 452.28 392.015Z" fill="#FF9900"/>
<path d="M487.042 180.681C468.833 175.715 450.624 186.199 445.658 203.856C445.106 206.063 444.555 208.271 444.555 210.478L436.278 331.318C435.726 342.906 444.555 353.39 456.142 353.941C466.626 354.493 475.455 347.872 478.214 338.491L510.769 222.065C515.735 204.408 505.251 185.647 487.042 180.681Z" fill="#FF9900"/>
</g>
<defs>
<clipPath id="clip0_659_2246">
<rect width="512" height="512" fill="white"/>
</clipPath>
</defs>
</svg>
