<svg width="67" height="69" viewBox="0 0 67 69" fill="none" xmlns="http://www.w3.org/2000/svg">
<g clip-path="url(#clip0_1049_4754)">
<path d="M66.0664 37.6911C66.7069 38.6763 67.0108 39.782 67.0108 40.8767C67.0108 42.8472 66.023 44.7739 64.221 45.8796C62.4733 46.9524 61.4311 48.8463 61.4311 50.8715C61.4311 51.1233 61.442 51.3751 61.4746 51.6159C61.5071 51.8677 61.518 52.1195 61.518 52.3713C61.518 55.3379 59.2818 57.8886 56.2748 58.1733C55.135 58.2827 54.082 58.7316 53.2135 59.4212C52.356 60.1109 51.6829 61.0524 51.3247 62.1471C50.5214 64.6102 48.2526 66.1537 45.821 66.1537C45.1588 66.1537 44.4749 66.0333 43.8236 65.7925C43.1722 65.5516 42.4883 65.4312 41.8261 65.4312C40.2847 65.4312 38.7758 66.0552 37.6576 67.2156C36.5178 68.3979 35.0089 69 33.5 69C31.9911 69 30.4713 68.4089 29.3424 67.2156C28.2351 66.0552 26.7153 65.4312 25.1738 65.4312C24.5008 65.4312 23.8278 65.5516 23.1764 65.7925C22.5143 66.0333 21.8412 66.1537 21.179 66.1537C18.7583 66.1537 16.4895 64.6102 15.6753 62.1471C15.3171 61.0524 14.6549 60.1109 13.7865 59.4212C12.9289 58.7316 11.865 58.2827 10.7252 58.1733C7.71824 57.8777 5.48202 55.327 5.48202 52.3713C5.48202 52.1195 5.49287 51.8677 5.52544 51.6159C5.558 51.3641 5.56886 51.1123 5.56886 50.8715C5.56886 48.8463 4.52673 46.9415 2.779 45.8796C0.987848 44.7739 0 42.8472 0 40.8767C0 39.782 0.303953 38.6763 0.944426 37.6911C1.57404 36.7168 1.88885 35.6111 1.88885 34.5055C1.88885 33.3998 1.57404 32.2832 0.944426 31.3198C0.303953 30.3237 0 29.218 0 28.1342C0 26.1637 0.987848 24.237 2.78986 23.1314C4.53759 22.0585 5.57971 20.1647 5.57971 18.1395C5.57971 17.8877 5.56886 17.6359 5.53629 17.395C5.50373 17.1433 5.49287 16.8915 5.49287 16.6397C5.49287 13.673 7.7291 11.1223 10.7361 10.8377C11.8759 10.7282 12.9289 10.2794 13.7973 9.58972C14.6549 8.90005 15.3279 7.95859 15.6862 6.86387C16.4895 4.40076 18.7583 2.85721 21.1899 2.85721C21.8521 2.85721 22.536 2.97763 23.1873 3.21847C23.8386 3.45931 24.5225 3.57972 25.1847 3.57972C26.7262 3.57972 28.2351 2.95574 29.3532 1.79534C30.4713 0.591147 31.9911 0 33.5 0C35.0089 0 36.5287 0.591147 37.6576 1.78439C39.2534 3.44836 41.6742 4.00666 43.8236 3.20752C44.4857 2.96668 45.1588 2.84626 45.821 2.84626C48.2417 2.84626 50.5105 4.38981 51.3247 6.85293C51.6829 7.94764 52.3451 8.8891 53.2135 9.57877C54.0711 10.2684 55.135 10.7173 56.2748 10.8267C59.2818 11.1223 61.518 13.673 61.518 16.6287C61.518 16.8805 61.5071 17.1323 61.4746 17.3841C61.442 17.6359 61.4311 17.8877 61.4311 18.1285C61.4311 20.1537 62.4733 22.0585 64.221 23.1204C66.023 24.2261 67.0108 26.1528 67.0108 28.1233C67.0108 29.218 66.7069 30.3237 66.0664 31.3089C65.4368 32.2832 65.122 33.3889 65.122 34.4945C65.122 35.6111 65.4368 36.7168 66.0664 37.6911Z" fill="#FFCC6D"/>
<path d="M33.4999 61.8186C48.4583 61.8186 60.5844 49.5901 60.5844 34.5054C60.5844 19.4208 48.4583 7.19226 33.4999 7.19226C18.5416 7.19226 6.41553 19.4208 6.41553 34.5054C6.41553 49.5901 18.5416 61.8186 33.4999 61.8186Z" fill="url(#paint0_radial_1049_4754)"/>
<path d="M45.0692 40.8185C44.5845 40.4579 43.8994 40.5586 43.5388 41.0432C43.3405 41.3097 43.1283 41.5712 42.9081 41.8203C42.508 42.2728 42.5505 42.9641 43.0031 43.3642C43.2112 43.5482 43.4696 43.6385 43.7271 43.6385C44.0296 43.6385 44.3308 43.5136 44.547 43.2691C44.8078 42.9742 45.0591 42.6645 45.2939 42.3488C45.6544 41.8642 45.5539 41.179 45.0692 40.8185Z" fill="white"/>
<path d="M46.8984 35.6891C46.3086 35.5606 45.7255 35.9349 45.5971 36.5251C45.5264 36.8498 45.4409 37.1751 45.343 37.4921C45.1647 38.0692 45.488 38.6816 46.0651 38.86C46.1727 38.8932 46.2814 38.909 46.3883 38.909C46.8554 38.909 47.2878 38.6074 47.433 38.1378C47.5492 37.7616 47.6506 37.3756 47.7345 36.9904C47.863 36.4002 47.4887 35.8176 46.8984 35.6891Z" fill="white"/>
<path d="M39.8045 44.3214C39.5141 44.4835 39.2135 44.635 38.9109 44.7716C38.3604 45.0202 38.1157 45.6681 38.3643 46.2186C38.5469 46.6231 38.945 46.8624 39.3617 46.8624C39.5122 46.8624 39.6652 46.8312 39.8113 46.7653C40.1702 46.6032 40.5266 46.4235 40.8709 46.2313C41.3984 45.9368 41.5872 45.2705 41.2927 44.7431C40.9983 44.2158 40.332 44.0269 39.8045 44.3214Z" fill="white"/>
<path d="M32.9063 25.25V33.547L28.8955 37.5576C28.4684 37.9848 28.4684 38.6773 28.8955 39.1044C29.1091 39.318 29.389 39.4248 29.669 39.4248C29.9489 39.4248 30.2288 39.318 30.4424 39.1044L34.7734 34.7734C34.9785 34.5683 35.0938 34.2901 35.0938 34V25.25C35.0938 24.6459 34.6041 24.1562 34 24.1562C33.3959 24.1562 32.9063 24.6459 32.9063 25.25Z" fill="white"/>
<path d="M46.9062 22.3516C46.3022 22.3516 45.8125 22.8412 45.8125 23.4453V26.4824C43.2667 22.4898 38.8208 20 34 20C30.2605 20 26.7448 21.4563 24.1005 24.1005C21.4563 26.7448 20 30.2605 20 34C20 37.7395 21.4563 41.2552 24.1005 43.8995C26.7448 46.5437 30.2605 48 34 48C34.0092 48 34.0182 47.9989 34.0273 47.9986C34.0365 47.9989 34.0454 48 34.0547 48C34.4489 48 34.8469 47.9834 35.238 47.9507C35.8399 47.9002 36.287 47.3714 36.2367 46.7695C36.1862 46.1675 35.6581 45.7202 35.0554 45.7708C34.7249 45.7984 34.3882 45.8125 34.0547 45.8125C34.0454 45.8125 34.0365 45.8136 34.0273 45.8139C34.0182 45.8136 34.0092 45.8125 34 45.8125C27.4866 45.8125 22.1875 40.5134 22.1875 34C22.1875 27.4866 27.4866 22.1875 34 22.1875C38.1977 22.1875 42.0586 24.4249 44.1684 27.9844H41.1609C40.5569 27.9844 40.0672 28.474 40.0672 29.0781C40.0672 29.6822 40.5569 30.1719 41.1609 30.1719H44.5C45.1661 30.1719 45.7893 29.9847 46.3198 29.6604C46.354 29.6409 46.3868 29.62 46.4181 29.5974C47.3699 28.9712 48 27.894 48 26.6719V23.4453C48 22.8412 47.5103 22.3516 46.9062 22.3516Z" fill="white"/>
</g>
<defs>
<radialGradient id="paint0_radial_1049_4754" cx="0" cy="0" r="1" gradientUnits="userSpaceOnUse" gradientTransform="translate(27.8903 23.2135) rotate(33.945) scale(39.9117 40.2488)">
<stop stop-color="#FFB627"/>
<stop offset="1" stop-color="#FF8A00"/>
</radialGradient>
<clipPath id="clip0_1049_4754">
<rect width="67" height="69" fill="white"/>
</clipPath>
</defs>
</svg>
