<svg width="94" height="95" viewBox="0 0 94 95" fill="none" xmlns="http://www.w3.org/2000/svg">
<g clip-path="url(#clip0_1049_4744)">
<path d="M91.7448 51.8935C92.6342 53.25 93.0563 54.7723 93.0563 56.2795C93.0563 58.9925 91.6845 61.6452 89.1821 63.1675C86.7551 64.6446 85.3079 67.2521 85.3079 70.0405C85.3079 70.3871 85.323 70.7338 85.3682 71.0654C85.4134 71.412 85.4285 71.7587 85.4285 72.1053C85.4285 76.1899 82.3231 79.7017 78.1474 80.0936C76.5646 80.2443 75.1023 80.8623 73.8963 81.8118C72.7054 82.7614 71.7708 84.0576 71.2733 85.5648C70.1578 88.9561 67.0072 91.0812 63.6304 91.0812C62.7109 91.0812 61.7612 90.9154 60.8567 90.5838C59.9522 90.2523 59.0025 90.0865 58.0829 90.0865C55.9423 90.0865 53.8469 90.9456 52.2942 92.5432C50.7114 94.171 48.616 95 46.5206 95C44.4252 95 42.3148 94.1861 40.747 92.5432C39.2094 90.9456 37.0989 90.0865 34.9583 90.0865C34.0237 90.0865 33.089 90.2523 32.1845 90.5838C31.265 90.9154 30.3304 91.0812 29.4108 91.0812C26.0491 91.0812 22.8985 88.9561 21.7679 85.5648C21.2704 84.0576 20.3509 82.7614 19.1449 81.8118C17.954 80.8623 16.4767 80.2443 14.8938 80.0936C10.7181 79.6867 7.61274 76.1748 7.61274 72.1053C7.61274 71.7587 7.62781 71.412 7.67304 71.0654C7.71826 70.7187 7.73334 70.372 7.73334 70.0405C7.73334 67.2521 6.28616 64.6295 3.85913 63.1675C1.3718 61.6452 0 58.9925 0 56.2795C0 54.7723 0.422092 53.25 1.3115 51.8935C2.18584 50.5521 2.623 49.0298 2.623 47.5075C2.623 45.9852 2.18584 44.4479 1.3115 43.1215C0.422092 41.75 0 40.2277 0 38.7355C0 36.0225 1.3718 33.3698 3.87421 31.8475C6.30124 30.3705 7.74841 27.763 7.74841 24.9746C7.74841 24.628 7.73334 24.2813 7.68811 23.9497C7.64289 23.603 7.62781 23.2564 7.62781 22.9097C7.62781 18.8252 10.7332 15.3133 14.9089 14.9215C16.4918 14.7707 17.954 14.1528 19.16 13.2032C20.3509 12.2537 21.2855 10.9575 21.783 9.45026C22.8985 6.05902 26.0491 3.93384 29.4259 3.93384C30.3454 3.93384 31.2951 4.09964 32.1996 4.43122C33.1041 4.76281 34.0538 4.92861 34.9734 4.92861C37.114 4.92861 39.2094 4.06949 40.7621 2.47184C42.3148 0.813898 44.4252 0 46.5206 0C48.616 0 50.7265 0.813898 52.2942 2.45677C54.5102 4.74774 57.8719 5.51642 60.8567 4.41615C61.7762 4.08456 62.7109 3.91877 63.6304 3.91877C66.9921 3.91877 70.1427 6.04395 71.2733 9.43519C71.7708 10.9424 72.6903 12.2386 73.8963 13.1882C75.0872 14.1377 76.5646 14.7557 78.1474 14.9064C82.3231 15.3133 85.4285 18.8252 85.4285 22.8947C85.4285 23.2413 85.4134 23.588 85.3682 23.9346C85.323 24.2813 85.3079 24.628 85.3079 24.9595C85.3079 27.7479 86.7551 30.3705 89.1821 31.8325C91.6845 33.3548 93.0563 36.0075 93.0563 38.7204C93.0563 40.2277 92.6342 41.75 91.7448 43.1065C90.8705 44.4479 90.4333 45.9702 90.4333 47.4925C90.4333 49.0298 90.8705 50.5521 91.7448 51.8935Z" fill="url(#paint0_radial_1049_4744)"/>
<path d="M46.5206 85.1126C67.2929 85.1126 84.1321 68.2762 84.1321 47.5075C84.1321 26.7388 67.2929 9.9024 46.5206 9.9024C25.7484 9.9024 8.90918 26.7388 8.90918 47.5075C8.90918 68.2762 25.7484 85.1126 46.5206 85.1126Z" fill="url(#paint1_radial_1049_4744)"/>
<path d="M39.1792 69.2266L23.5015 53.5515L30.2248 46.8142L38.4405 55.0286L61.0677 27.1902L68.4543 33.189L39.1792 69.2266Z" fill="white"/>
</g>
<defs>
<radialGradient id="paint0_radial_1049_4744" cx="0" cy="0" r="1" gradientUnits="userSpaceOnUse" gradientTransform="translate(46.5216 47.5026) scale(47.0187 47.0108)">
<stop stop-color="#33D679"/>
<stop offset="1" stop-color="#18B85D"/>
</radialGradient>
<radialGradient id="paint1_radial_1049_4744" cx="0" cy="0" r="1" gradientUnits="userSpaceOnUse" gradientTransform="translate(38.7306 31.9606) scale(58.2983 58.2885)">
<stop stop-color="#8EDB53"/>
<stop offset="1" stop-color="#33D679"/>
</radialGradient>
<clipPath id="clip0_1049_4744">
<rect width="93.0412" height="95" fill="white"/>
</clipPath>
</defs>
</svg>
