<svg width="67" height="69" viewBox="0 0 67 69" fill="none" xmlns="http://www.w3.org/2000/svg">
<g clip-path="url(#clip0_1049_4759)">
<path d="M66.0664 37.6911C66.7069 38.6763 67.0108 39.782 67.0108 40.8767C67.0108 42.8472 66.023 44.7739 64.221 45.8796C62.4733 46.9524 61.4311 48.8463 61.4311 50.8715C61.4311 51.1233 61.442 51.3751 61.4746 51.6159C61.5071 51.8677 61.518 52.1195 61.518 52.3713C61.518 55.3379 59.2818 57.8886 56.2748 58.1733C55.135 58.2827 54.082 58.7316 53.2135 59.4212C52.356 60.1109 51.6829 61.0524 51.3247 62.1471C50.5214 64.6102 48.2526 66.1537 45.821 66.1537C45.1588 66.1537 44.4749 66.0333 43.8236 65.7925C43.1722 65.5516 42.4883 65.4312 41.8261 65.4312C40.2847 65.4312 38.7758 66.0552 37.6576 67.2156C36.5178 68.3979 35.0089 69 33.5 69C31.9911 69 30.4713 68.4089 29.3424 67.2156C28.2351 66.0552 26.7153 65.4312 25.1738 65.4312C24.5008 65.4312 23.8278 65.5516 23.1764 65.7925C22.5143 66.0333 21.8412 66.1537 21.179 66.1537C18.7583 66.1537 16.4895 64.6102 15.6753 62.1471C15.3171 61.0524 14.6549 60.1109 13.7865 59.4212C12.9289 58.7316 11.865 58.2827 10.7252 58.1733C7.71824 57.8777 5.48202 55.327 5.48202 52.3713C5.48202 52.1195 5.49287 51.8677 5.52544 51.6159C5.558 51.3641 5.56886 51.1123 5.56886 50.8715C5.56886 48.8463 4.52673 46.9415 2.779 45.8796C0.987848 44.7739 0 42.8472 0 40.8767C0 39.782 0.303953 38.6763 0.944426 37.6911C1.57404 36.7168 1.88885 35.6111 1.88885 34.5055C1.88885 33.3998 1.57404 32.2832 0.944426 31.3198C0.303953 30.3237 0 29.218 0 28.1342C0 26.1637 0.987848 24.237 2.78986 23.1314C4.53759 22.0585 5.57971 20.1647 5.57971 18.1395C5.57971 17.8877 5.56886 17.6359 5.53629 17.395C5.50373 17.1433 5.49287 16.8915 5.49287 16.6397C5.49287 13.673 7.7291 11.1223 10.7361 10.8377C11.8759 10.7282 12.9289 10.2794 13.7973 9.58972C14.6549 8.90005 15.3279 7.95859 15.6862 6.86387C16.4895 4.40076 18.7583 2.85721 21.1899 2.85721C21.8521 2.85721 22.536 2.97763 23.1873 3.21847C23.8386 3.45931 24.5225 3.57972 25.1847 3.57972C26.7262 3.57972 28.2351 2.95574 29.3532 1.79534C30.4713 0.591147 31.9911 0 33.5 0C35.0089 0 36.5287 0.591147 37.6576 1.78439C39.2534 3.44836 41.6742 4.00666 43.8236 3.20752C44.4857 2.96668 45.1588 2.84626 45.821 2.84626C48.2417 2.84626 50.5105 4.38981 51.3247 6.85293C51.6829 7.94764 52.3451 8.8891 53.2135 9.57877C54.0711 10.2684 55.135 10.7173 56.2748 10.8267C59.2818 11.1223 61.518 13.673 61.518 16.6287C61.518 16.8805 61.5071 17.1323 61.4746 17.3841C61.442 17.6359 61.4311 17.8877 61.4311 18.1285C61.4311 20.1537 62.4733 22.0585 64.221 23.1204C66.023 24.2261 67.0108 26.1528 67.0108 28.1233C67.0108 29.218 66.7069 30.3237 66.0664 31.3089C65.4368 32.2832 65.122 33.3889 65.122 34.4945C65.122 35.6111 65.4368 36.7168 66.0664 37.6911Z" fill="#FF6D6D"/>
<path d="M33.4999 61.8186C48.4583 61.8186 60.5844 49.5901 60.5844 34.5054C60.5844 19.4208 48.4583 7.19226 33.4999 7.19226C18.5416 7.19226 6.41553 19.4208 6.41553 34.5054C6.41553 49.5901 18.5416 61.8186 33.4999 61.8186Z" fill="url(#paint0_radial_1049_4759)"/>
<path d="M37.2965 34.0936C37.2449 34.042 37.2449 33.958 37.2965 33.9064L43.596 27.6072C44.1347 27.0686 44.1347 26.1922 43.596 25.6536L42.3472 24.4048C42.0861 24.1437 41.7391 24 41.3699 24C41.0008 24 40.6537 24.1437 40.3926 24.4047L34.0931 30.7041C34.0612 30.736 34.0249 30.7427 34 30.7427C33.9752 30.7427 33.9388 30.736 33.9069 30.7041L27.6074 24.4047C27.3463 24.1437 26.9993 24 26.6301 24C26.2609 24 25.9139 24.1437 25.6528 24.4047L24.404 25.6536C23.8653 26.1922 23.8653 27.0686 24.404 27.6072L30.7035 33.9064C30.7551 33.958 30.7551 34.042 30.7035 34.0936L24.404 40.3928C23.8654 40.9315 23.8654 41.8078 24.404 42.3464L25.6528 43.5952C25.9139 43.8562 26.2609 44 26.6301 44C26.9992 44 27.3463 43.8562 27.6074 43.5952L33.9069 37.2959C33.9388 37.264 33.9751 37.2574 34 37.2574C34.0249 37.2574 34.0612 37.264 34.0931 37.296L40.3926 43.5953C40.6536 43.8563 41.0007 44 41.3699 44C41.7391 44 42.0861 43.8563 42.3471 43.5953L43.596 42.3465C44.1346 41.8079 44.1346 40.9315 43.596 40.3929L37.2965 34.0936Z" fill="white"/>
</g>
<defs>
<radialGradient id="paint0_radial_1049_4759" cx="0" cy="0" r="1" gradientUnits="userSpaceOnUse" gradientTransform="translate(27.8903 23.2135) scale(41.9812 42.3358)">
<stop stop-color="#FF4D4D"/>
<stop offset="1" stop-color="#D63333"/>
</radialGradient>
<clipPath id="clip0_1049_4759">
<rect width="67" height="69" fill="white"/>
</clipPath>
</defs>
</svg>
