<svg width="424" height="386" viewBox="0 0 424 386" fill="none" xmlns="http://www.w3.org/2000/svg">
<path d="M333.649 241.849C360.267 252.16 382.208 276.463 375.803 304.28C361.723 365.424 316.322 385.664 235.43 385.664C136.075 385.664 55.5317 305.121 55.5317 205.766C55.5317 106.411 143.715 0.863403 243.07 0.863403C335.521 0.863403 152.476 171.663 333.649 241.849Z" fill="#F0F8FF"/>
<g clip-path="url(#clip0_383_3)">
<path d="M162.533 232.318C162.533 232.898 162.035 233.396 161.453 233.396C160.871 233.396 160.372 232.898 160.372 232.318C160.372 231.737 160.871 231.24 161.453 231.24C162.035 231.24 162.533 231.737 162.533 232.318Z" fill="#389FE5"/>
<path d="M101.843 87.2122C101.843 87.7927 101.344 88.2902 100.762 88.2902C100.18 88.2902 99.6816 87.7927 99.6816 87.2122C99.6816 86.6318 100.18 86.1343 100.762 86.1343C101.344 86.1343 101.843 86.6318 101.843 87.2122Z" fill="#389FE5"/>
<path d="M250.326 122.867C250.326 123.447 249.828 123.945 249.246 123.945C248.664 123.945 248.165 123.447 248.165 122.867C248.165 122.286 248.664 121.789 249.246 121.789C249.828 121.789 250.326 122.286 250.326 122.867Z" fill="#389FE5"/>
<path d="M350.59 122.867C350.59 123.447 350.091 123.945 349.509 123.945C348.927 123.945 348.428 123.447 348.428 122.867C348.428 122.286 348.927 121.789 349.509 121.789C350.091 121.789 350.59 122.286 350.59 122.867Z" fill="#389FE5"/>
<path d="M318.166 185.967C318.166 186.547 317.668 187.045 317.086 187.045C316.504 187.045 316.005 186.547 316.005 185.967C316.005 185.386 316.504 184.889 317.086 184.889C317.751 184.889 318.166 185.386 318.166 185.967Z" fill="#389FE5"/>
<path d="M56.1178 148.903C55.8684 148.903 55.7021 148.737 55.7021 148.488V145.503C55.7021 145.254 55.8684 145.089 56.1178 145.089C56.3672 145.089 56.5335 145.254 56.5335 145.503V148.488C56.5335 148.737 56.3672 148.903 56.1178 148.903Z" fill="#389FE5"/>
<path d="M57.6142 147.41H54.6213C54.3718 147.41 54.2056 147.244 54.2056 146.996C54.2056 146.747 54.3718 146.581 54.6213 146.581H57.6142C57.8636 146.581 58.0299 146.747 58.0299 146.996C58.0299 147.244 57.8636 147.41 57.6142 147.41Z" fill="#389FE5"/>
<path d="M106.166 194.756C105.917 194.756 105.751 194.59 105.751 194.341V191.356C105.751 191.108 105.917 190.942 106.166 190.942C106.416 190.942 106.582 191.108 106.582 191.356V194.341C106.665 194.59 106.416 194.756 106.166 194.756Z" fill="#389FE5"/>
<path d="M107.663 193.263H104.67C104.42 193.263 104.254 193.098 104.254 192.849C104.254 192.6 104.42 192.434 104.67 192.434H107.663C107.912 192.434 108.078 192.6 108.078 192.849C108.078 193.098 107.912 193.263 107.663 193.263Z" fill="#389FE5"/>
<path d="M307.774 74.6917C307.525 74.6917 307.359 74.5259 307.359 74.2771V71.2921C307.359 71.0433 307.525 70.8775 307.774 70.8775C308.024 70.8775 308.19 71.0433 308.19 71.2921V74.2771C308.273 74.4429 308.024 74.6917 307.774 74.6917Z" fill="#389FE5"/>
<path d="M309.271 73.1992H306.278C306.028 73.1992 305.862 73.0334 305.862 72.7846C305.862 72.5359 306.028 72.37 306.278 72.37H309.271C309.52 72.37 309.686 72.5359 309.686 72.7846C309.77 72.9504 309.52 73.1992 309.271 73.1992Z" fill="#389FE5"/>
<path d="M396.149 198.156C395.9 198.156 395.733 197.99 395.733 197.741V194.756C395.733 194.507 395.9 194.341 396.149 194.341C396.398 194.341 396.565 194.507 396.565 194.756V197.741C396.565 197.99 396.315 198.156 396.149 198.156Z" fill="#389FE5"/>
<path d="M397.645 196.663H394.653C394.403 196.663 394.237 196.497 394.237 196.249C394.237 196 394.403 195.834 394.653 195.834H397.645C397.895 195.834 398.061 196 398.061 196.249C398.061 196.497 397.812 196.663 397.645 196.663Z" fill="#389FE5"/>
<path d="M257.393 243.097C257.144 243.097 256.978 242.931 256.978 242.682V239.697C256.978 239.448 257.144 239.283 257.393 239.283C257.643 239.283 257.809 239.448 257.809 239.697V242.682C257.809 242.931 257.643 243.097 257.393 243.097Z" fill="#389FE5"/>
<path d="M258.89 241.604H255.897C255.647 241.604 255.481 241.439 255.481 241.19C255.481 240.941 255.647 240.775 255.897 240.775H258.89C259.139 240.775 259.305 240.941 259.305 241.19C259.305 241.439 259.139 241.604 258.89 241.604Z" fill="#389FE5"/>
<path d="M212.582 60.7616C212.333 60.7616 212.167 60.5958 212.167 60.347V57.362C212.167 57.1132 212.333 56.9474 212.582 56.9474C212.832 56.9474 212.998 57.1132 212.998 57.362V60.347C212.998 60.5958 212.832 60.7616 212.582 60.7616Z" fill="#389FE5"/>
<path d="M214.079 59.2691H211.086C210.836 59.2691 210.67 59.1032 210.67 58.8545C210.67 58.6057 210.836 58.4399 211.086 58.4399H214.079C214.328 58.4399 214.494 58.6057 214.494 58.8545C214.494 59.1032 214.328 59.2691 214.079 59.2691Z" fill="#389FE5"/>
<path d="M252.904 324.19C256.395 317.059 262.132 311.172 268.367 306.363C273.438 302.466 279.175 298.734 285.161 296.496C290.482 294.506 291.646 299.149 295.969 300.724C298.712 301.719 301.788 300.227 303.95 298.237C306.028 296.33 307.774 293.925 310.268 292.516C312.097 291.438 314.841 290.94 316.753 292.101C319.164 293.511 318.748 296.91 321.991 297.325C323.487 297.491 324.984 296.993 326.314 296.33C329.473 294.754 332.715 293.345 336.124 292.35C339.2 291.438 343.274 291.106 345.02 293.842C346.766 296.413 345.103 299.895 343.024 302.217C338.036 307.772 330.72 310.757 323.321 311.752C321.326 312.001 319.247 312.167 317.335 312.996C315.506 313.825 313.843 315.484 313.76 317.557C313.76 318.635 314.093 319.713 314.176 320.79C314.176 323.858 311.183 326.097 308.273 326.76C300.624 328.502 295.636 321.785 288.486 320.79C280.339 319.63 267.868 320.873 262.215 327.755" fill="#C1E1FD"/>
<path opacity="0.5" d="M266.289 320.873C274.187 313.577 284.579 308.684 295.47 307.275C302.287 306.363 309.187 306.777 316.005 306.197C322.822 305.617 329.889 303.709 334.794 299.232" stroke="white" stroke-width="0.891" stroke-miterlimit="10" stroke-linecap="round" stroke-linejoin="round"/>
<path d="M301.954 290.691C306.028 288.37 310.351 285.053 309.27 280.078C308.855 278.42 307.691 276.927 307.857 275.269C308.023 274.191 308.689 273.279 309.27 272.284C310.518 269.962 310.684 267.143 309.769 264.655C308.689 262.002 306.527 260.095 305.114 257.607C303.95 255.617 303.451 253.296 303.534 250.974C299.211 251.389 295.553 254.125 291.396 255.286C288.237 256.198 284.828 256.198 281.669 257.193C275.932 259.1 271.609 264.655 271.277 270.625C268.533 270.377 265.707 271.62 263.961 273.859C262.132 276.181 261.3 279.332 261.716 282.151C263.628 294.174 269.78 303.792 277.761 312.747C276.016 310.84 281.336 304.787 282.334 303.544C286.823 298.403 292.892 295.501 298.795 292.267C299.793 291.852 300.79 291.272 301.954 290.691Z" fill="#C1E1FD"/>
<g opacity="0.5">
<path d="M278.759 296.661C277.762 291.521 279.092 286.131 280.754 281.156C282.334 276.264 284.329 271.455 287.073 267.143C289.9 262.831 293.558 259.017 298.13 256.612" stroke="white" stroke-width="0.891" stroke-miterlimit="10" stroke-linecap="round" stroke-linejoin="round"/>
<path d="M280.089 261.504C280.006 266.231 280.837 271.786 282.5 276.181" stroke="white" stroke-width="0.891" stroke-miterlimit="10" stroke-linecap="round" stroke-linejoin="round"/>
<path d="M283.249 274.44C288.237 270.542 296.301 267.723 302.62 267.475" stroke="white" stroke-width="0.891" stroke-miterlimit="10" stroke-linecap="round" stroke-linejoin="round"/>
<path d="M270.279 276.513C276.93 278.585 278.094 288.038 278.51 290.691" stroke="white" stroke-width="0.891" stroke-miterlimit="10" stroke-linecap="round" stroke-linejoin="round"/>
<path d="M279.674 284.556C284.246 280.575 292.144 276.347 297.465 277.176" stroke="white" stroke-width="0.891" stroke-miterlimit="10" stroke-linecap="round" stroke-linejoin="round"/>
<path d="M278.759 296.164C282.417 291.355 292.31 285.385 297.714 286.214" stroke="white" stroke-width="0.891" stroke-miterlimit="10" stroke-linecap="round" stroke-linejoin="round"/>
<path d="M290.731 258.105C289.401 260.095 289.234 262.251 289.567 263.743" stroke="white" stroke-width="0.891" stroke-miterlimit="10" stroke-linecap="round" stroke-linejoin="round"/>
<path d="M290.814 262.251C292.976 260.924 295.968 260.344 299.294 260.841" stroke="white" stroke-width="0.891" stroke-miterlimit="10" stroke-linecap="round" stroke-linejoin="round"/>
</g>
<path d="M186.227 332.896C180.74 317.888 166.607 303.875 152.723 295.832C149.314 293.842 144.409 292.433 142.83 297.076C141.832 300.061 138.34 299.315 136.345 297.905C133.851 296.164 132.438 293.428 130.359 291.272C128.696 289.613 126.535 288.287 124.124 287.955C121.796 287.541 119.219 288.204 117.473 289.862C116.143 291.106 115.394 292.847 113.898 293.925C111.487 295.749 107.912 295.086 105.335 293.511C102.758 291.935 100.679 289.613 98.185 287.872C95.6909 286.131 92.2823 285.136 89.6219 286.628C86.047 288.536 85.7145 293.676 87.2941 297.408C88.2086 299.729 89.705 303.046 91.4509 304.87C93.945 307.441 97.6031 309.099 101.095 309.845C103.672 310.343 106.332 310.343 108.827 310.923C109.741 311.172 110.822 311.504 110.988 312.582C111.238 314.074 109.325 315.069 108.245 315.567C106.332 316.562 104.42 318.635 105.335 320.542C105.917 321.785 107.33 322.283 108.66 322.532C112.651 323.195 116.558 322.034 120.383 320.873C122.711 320.127 124.706 318.717 127.034 318.137C128.281 317.805 131.357 317.722 131.024 319.712C130.941 320.376 130.442 320.873 129.943 321.288C129.445 321.702 128.863 322.117 128.447 322.615C126.618 324.77 128.447 327.424 130.775 328.004C132.604 328.419 134.516 328.004 136.345 327.59C148.317 324.77 160.871 323.693 172.842 326.18C175.42 326.678 178.246 327.59 179.493 329.828" fill="#C1E1FD"/>
<path opacity="0.5" d="M173.341 323.361C164.528 315.235 152.889 309.928 140.751 308.353C133.186 307.441 125.454 307.938 117.888 307.275C110.24 306.612 102.342 304.622 96.8547 299.564" stroke="white" stroke-width="0.891" stroke-miterlimit="10" stroke-linecap="round" stroke-linejoin="round"/>
<path opacity="0.25" d="M176.085 324.605C176.085 324.605 155.217 310.757 149.314 296.661C153.305 297.739 155.882 299.066 158.709 301.305C161.702 305.534 168.935 312.084 173.757 316.313C174.422 318.635 175.17 321.371 176.085 324.605Z" fill="#FCCCB1"/>
<path d="M175.253 319.795C174.505 314.903 172.344 310.011 171.429 305.036C170.099 297.076 169.849 289.033 171.346 281.073C172.593 274.274 174.671 267.226 172.427 260.427C171.845 258.602 170.681 256.612 168.353 256.695C167.438 256.695 166.524 257.11 165.859 257.69C164.113 259.183 163.78 261.422 163.531 263.495L162.617 270.46C162.284 272.698 158.875 273.03 158.127 270.791C158.127 270.791 158.127 270.791 158.127 270.708C157.545 268.884 157.628 266.894 157.795 264.987C158.127 260.841 158.626 256.612 158.044 252.467C157.296 247.409 154.469 242.351 149.148 240.444C147.236 239.78 145.158 239.697 143.162 240.278C137.758 241.853 136.678 246.911 137.758 251.14C138.507 254.125 140.169 256.861 141.749 259.597C145.49 266.231 143.495 272.533 144.409 279.995C146.322 295.749 161.785 310.923 175.253 319.795Z" fill="#C1E1FD"/>
<path opacity="0.5" d="M145.74 249.399C157.046 262.997 152.973 295.252 172.676 312.582" stroke="white" stroke-width="0.891" stroke-miterlimit="10" stroke-linecap="round" stroke-linejoin="round"/>
<path opacity="0.5" d="M167.771 265.402C169.101 272.284 164.612 279.995 163.614 284.307C162.617 288.618 162.035 295.915 163.115 300.227" stroke="white" stroke-width="0.891" stroke-miterlimit="10" stroke-linecap="round" stroke-linejoin="round"/>
<path d="M135.347 332.731C134.849 329.994 127.117 312.83 118.221 317.391C112.9 320.127 113.898 330.16 122.129 337.789C120.466 336.213 118.637 334.472 116.392 333.974C115.228 333.726 113.732 334.306 112.817 335.135C111.986 335.881 111.82 337.042 111.736 338.12C111.57 342.1 113.649 345.997 116.974 348.153C115.145 347.158 113.565 345.831 111.487 345.666C110.822 345.583 109.658 345.997 109.325 346.578C108.993 347.241 108.993 349.729 113.067 351.553C96.6055 348.402 95.691 355.45 101.594 355.45C107.496 355.45 150.063 355.45 150.063 355.45" fill="#E9F9FF"/>
<path d="M166.108 319.049C165.36 314.655 157.212 286.877 142.913 294.257C134.433 298.651 135.929 314.737 149.231 326.926C146.654 324.439 143.661 321.537 140.086 320.873C138.174 320.459 135.846 321.371 134.35 322.698C133.103 323.858 132.687 325.765 132.604 327.507C132.354 333.808 135.68 340.11 141.001 343.593C138.091 341.934 135.514 339.944 132.188 339.613C131.107 339.53 129.278 340.11 128.779 341.105C128.198 342.183 128.281 346.08 134.765 349.065C108.411 344.09 106.914 355.284 116.392 355.284C125.87 355.284 178.911 355.284 178.911 355.284" fill="#A0BFDE"/>
<path d="M306.943 332.731C307.442 329.994 315.173 312.83 324.069 317.391C329.39 320.127 328.392 330.16 320.162 337.789C321.824 336.213 323.653 334.472 325.898 333.974C327.062 333.726 328.559 334.306 329.473 335.135C330.304 335.881 330.471 337.042 330.554 338.12C330.72 342.1 328.642 345.997 325.316 348.153C327.145 347.158 328.725 345.831 330.803 345.666C331.468 345.583 332.632 345.997 332.965 346.578C333.297 347.241 333.297 349.729 329.224 351.553C345.685 348.402 346.599 355.45 340.697 355.45C334.794 355.45 292.228 355.45 292.228 355.45" fill="#E9F9FF"/>
<path d="M276.182 319.049C276.93 314.655 285.078 286.877 299.377 294.257C307.857 298.651 306.361 314.737 293.059 326.926C295.636 324.439 298.629 321.537 302.204 320.873C304.116 320.459 306.444 321.371 307.94 322.698C309.187 323.858 309.603 325.765 309.686 327.507C309.936 333.808 306.61 340.11 301.289 343.593C304.199 341.934 306.776 339.944 310.102 339.613C311.183 339.53 313.012 340.11 313.51 341.105C314.092 342.183 314.009 346.08 307.525 349.065C333.879 344.09 335.376 355.284 325.898 355.284C316.42 355.284 263.379 355.284 263.379 355.284" fill="#A0BFDE"/>
<path opacity="0.2" d="M231.787 262.334C224.554 260.344 219.067 254.208 218.568 246.745C218.568 246.414 218.568 245.999 218.568 245.667C218.568 245.584 218.568 245.419 218.568 245.336C218.568 245.253 218.568 245.087 218.568 245.004C218.568 244.672 218.568 244.258 218.568 243.926C218.984 236.463 224.471 230.328 231.787 228.338C259.056 220.792 279.092 195.834 279.092 166.232C279.092 162.252 278.759 158.355 278.011 154.541C277.928 153.878 277.762 153.297 277.595 152.634C277.512 152.137 277.429 151.722 277.263 151.224V151.142C277.18 150.893 277.18 150.644 277.096 150.395C277.013 149.898 276.847 149.483 276.764 149.069C276.598 148.405 276.348 147.659 276.182 146.996H273.937C274.02 147.244 274.104 147.41 274.104 147.659C274.104 147.659 274.104 147.742 274.187 147.742C274.27 148.156 274.436 148.488 274.519 148.903C274.602 149.151 274.685 149.4 274.685 149.649C274.769 150.064 274.935 150.478 275.018 150.893C275.101 151.142 275.184 151.39 275.184 151.639C275.267 152.054 275.351 152.468 275.434 152.883C275.434 153.049 275.517 153.132 275.517 153.297C275.517 153.38 275.517 153.38 275.517 153.463C275.6 153.961 275.683 154.375 275.766 154.873C276.431 158.521 276.764 162.335 276.764 166.15C276.764 194.093 257.975 218.802 230.955 226.182C222.642 228.503 216.739 235.468 216.24 243.677C216.24 244.092 216.24 244.506 216.24 244.838C216.24 244.921 216.24 245.087 216.24 245.17C216.24 245.253 216.24 245.419 216.24 245.501C216.24 245.916 216.24 246.331 216.24 246.662C216.739 254.871 222.642 261.919 230.955 264.158C257.892 271.62 276.764 296.33 276.764 324.19C276.764 328.004 276.431 331.818 275.766 335.467C274.852 340.691 273.189 345.749 270.944 350.558H157.961C155.716 345.749 154.053 340.608 153.139 335.384C152.474 331.736 152.141 327.921 152.141 324.107C152.141 296.164 170.93 271.538 197.95 264.075C206.264 261.753 212.166 254.788 212.665 246.579C212.665 246.165 212.665 245.75 212.665 245.419C212.665 245.336 212.665 245.17 212.665 245.087C212.665 245.004 212.665 244.838 212.665 244.755C212.665 244.341 212.665 243.926 212.665 243.594C212.166 235.386 206.264 228.42 197.95 226.099C171.013 218.636 152.141 193.927 152.141 166.067C152.141 162.252 152.474 158.438 153.139 154.79C153.222 154.127 153.388 153.463 153.555 152.8C153.555 152.8 153.555 152.8 153.555 152.717C153.721 152.054 153.804 151.473 153.97 150.81V150.727C154.053 150.229 154.22 149.732 154.386 149.317C154.386 149.234 154.386 149.234 154.386 149.234C154.469 149.069 154.469 148.903 154.552 148.654C154.635 148.322 154.718 147.991 154.885 147.659C154.885 147.576 154.885 147.576 154.968 147.576C155.051 147.327 155.134 147.161 155.134 146.913H152.973C152.723 147.576 152.557 148.322 152.391 148.986C152.224 149.4 152.141 149.898 152.058 150.312C151.975 150.561 151.975 150.81 151.892 151.059V151.142C151.809 151.639 151.642 152.054 151.559 152.551C151.393 153.214 151.31 153.795 151.144 154.458C150.395 158.272 150.063 162.17 150.063 166.15C150.063 195.751 170.099 220.709 197.368 228.255C204.601 230.245 210.088 236.381 210.587 243.843C210.587 244.175 210.587 244.589 210.587 244.921C210.587 245.004 210.587 245.17 210.587 245.253C210.587 245.336 210.587 245.501 210.587 245.584C210.587 245.916 210.587 246.331 210.587 246.662C210.171 254.125 204.601 260.261 197.368 262.251C170.099 269.796 150.063 294.754 150.063 324.356C150.063 328.336 150.395 332.233 151.144 336.047C152.224 342.017 154.136 347.656 156.714 352.879H272.524C275.101 347.656 277.013 341.934 278.094 336.047C278.842 332.233 279.175 328.336 279.175 324.356C279.092 294.754 259.056 269.879 231.787 262.334Z" fill="#389FE5"/>
<path d="M277.013 324.356C277.013 328.17 276.681 331.984 276.016 335.633C275.101 340.856 273.438 345.914 271.194 350.724H157.961C155.716 345.914 154.053 340.773 153.139 335.55C152.474 331.901 152.141 328.087 152.141 324.273C152.141 296.33 170.93 271.703 197.95 264.241C206.263 261.919 212.166 254.954 212.665 246.745C212.665 246.331 212.665 245.916 212.665 245.584C212.665 245.501 212.665 245.336 212.665 245.253C212.665 245.17 212.665 245.004 212.665 244.921C212.665 244.506 212.665 244.092 212.665 243.76C212.166 235.551 206.263 228.586 197.95 226.265C171.013 218.802 152.141 194.093 152.141 166.232C152.141 162.418 152.474 158.604 153.139 154.956C153.222 154.292 153.388 153.629 153.554 152.966C153.554 152.966 153.554 152.966 153.554 152.883C153.721 152.219 153.804 151.639 153.97 150.976V150.893C154.136 150.395 154.22 149.898 154.386 149.317C154.552 148.82 154.718 148.239 154.885 147.742C154.968 147.493 155.051 147.244 155.134 146.996H274.02C274.103 147.244 274.187 147.493 274.27 147.742C274.353 148.156 274.519 148.488 274.602 148.903C274.685 149.151 274.769 149.4 274.769 149.649C274.852 150.064 275.018 150.478 275.101 150.893C275.184 151.141 275.267 151.39 275.267 151.639C275.351 152.054 275.434 152.468 275.517 152.883C275.517 153.049 275.6 153.297 275.6 153.463C275.683 153.961 275.766 154.375 275.849 154.873C276.514 158.521 276.847 162.335 276.847 166.15C276.847 194.093 258.058 218.802 231.038 226.182C222.725 228.503 216.822 235.468 216.323 243.677C216.323 244.092 216.323 244.506 216.323 244.838C216.323 244.921 216.323 245.087 216.323 245.17C216.323 245.253 216.323 245.418 216.323 245.501C216.323 245.916 216.323 246.331 216.323 246.662C216.822 254.871 222.725 261.919 231.038 264.158C258.141 271.786 277.013 296.496 277.013 324.356Z" fill="white"/>
<path opacity="0.5" d="M277.013 324.356C277.013 328.17 276.681 331.984 276.016 335.633C275.101 340.856 273.438 345.914 271.194 350.724H157.961C155.716 345.914 154.053 340.773 153.139 335.55C152.474 331.901 152.141 328.087 152.141 324.273C152.141 296.33 170.93 271.703 197.95 264.241C206.263 261.919 212.166 254.954 212.665 246.745C212.665 246.331 212.665 245.916 212.665 245.584C212.665 245.501 212.665 245.336 212.665 245.253C212.665 245.17 212.665 245.004 212.665 244.921C212.665 244.506 212.665 244.092 212.665 243.76C212.166 235.551 206.263 228.586 197.95 226.265C171.013 218.802 152.141 194.093 152.141 166.232C152.141 162.418 152.474 158.604 153.139 154.956C153.222 154.292 153.388 153.629 153.554 152.966C153.554 152.966 153.554 152.966 153.554 152.883C153.721 152.219 153.804 151.639 153.97 150.976V150.893C154.136 150.395 154.22 149.898 154.386 149.317C154.552 148.82 154.718 148.239 154.885 147.742C154.968 147.493 155.051 147.244 155.134 146.996H274.02C274.103 147.244 274.187 147.493 274.27 147.742C274.353 148.156 274.519 148.488 274.602 148.903C274.685 149.151 274.769 149.4 274.769 149.649C274.852 150.064 275.018 150.478 275.101 150.893C275.184 151.141 275.267 151.39 275.267 151.639C275.351 152.054 275.434 152.468 275.517 152.883C275.517 153.049 275.6 153.297 275.6 153.463C275.683 153.961 275.766 154.375 275.849 154.873C276.514 158.521 276.847 162.335 276.847 166.15C276.847 194.093 258.058 218.802 231.038 226.182C222.725 228.503 216.822 235.468 216.323 243.677C216.323 244.092 216.323 244.506 216.323 244.838C216.323 244.921 216.323 245.087 216.323 245.17C216.323 245.253 216.323 245.418 216.323 245.501C216.323 245.916 216.323 246.331 216.323 246.662C216.822 254.871 222.725 261.919 231.038 264.158C258.141 271.786 277.013 296.496 277.013 324.356Z" fill="#D7ECFA"/>
<path d="M163.032 202.965C163.032 202.965 172.842 219.051 196.537 226.513C202.606 228.255 204.601 229.581 208.093 232.815C211.584 236.049 212.748 241.687 212.665 246.082C212.582 249.564 214.577 299.978 214.577 306.28C214.577 312.167 215.326 307.855 215.159 306.529C215.741 270.791 216.489 244.589 216.489 244.589C216.489 244.589 218.651 233.395 221.977 231.82C225.302 230.245 237.274 224.689 242.262 223.362C247.25 222.036 259.056 211.174 259.056 211.174C259.056 211.174 274.187 189.698 275.101 186.962C276.016 184.226 268.284 183.977 268.284 183.977L163.032 202.965Z" fill="#FF9A30"/>
<path d="M219.92 203.975C251.582 199.02 276.417 189.723 275.393 183.208C274.368 176.694 247.87 175.429 216.209 180.383C184.548 185.338 159.712 194.635 160.737 201.15C161.762 207.664 188.259 208.929 219.92 203.975Z" fill="#FDCF33"/>
<g opacity="0.5">
<path d="M197.534 218.388C196.869 218.388 196.204 218.305 195.456 218.056C190.966 216.48 186.726 214.573 182.985 212.169C180.075 210.345 179.161 206.447 180.99 203.462C182.819 200.56 186.726 199.648 189.719 201.472C192.629 203.297 195.954 204.872 199.529 206.116C202.855 207.277 204.601 210.842 203.437 214.076C202.605 216.729 200.111 218.388 197.534 218.388Z" fill="white"/>
<path d="M172.842 199.814C170.764 199.814 168.685 198.819 167.521 196.912C156.547 179.665 159.374 160.345 159.457 159.516C159.956 156.117 163.198 153.712 166.607 154.292C170.016 154.79 172.427 158.024 171.845 161.423C171.845 161.672 169.683 177.095 178.08 190.196C179.909 193.098 179.078 196.995 176.168 198.902C175.17 199.482 174.006 199.814 172.842 199.814Z" fill="white"/>
</g>
<g opacity="0.5">
<path d="M197.534 271.537C196.869 271.537 196.204 271.62 195.456 271.869C190.966 273.445 186.726 275.352 182.985 277.756C180.075 279.58 179.161 283.478 180.99 286.463C182.819 289.365 186.726 290.277 189.719 288.453C192.629 286.628 195.954 285.053 199.529 283.809C202.855 282.648 204.601 279.083 203.437 275.849C202.605 273.196 200.111 271.537 197.534 271.537Z" fill="white"/>
<path d="M172.842 290.111C170.764 290.111 168.685 291.106 167.521 293.013C156.547 310.26 159.374 329.58 159.457 330.409C159.956 333.808 163.198 336.213 166.607 335.633C170.016 335.135 172.427 331.901 171.845 328.502C171.845 328.253 169.683 312.83 178.08 299.729C179.909 296.827 179.078 292.93 176.168 291.023C175.17 290.36 174.006 290.111 172.842 290.111Z" fill="white"/>
</g>
<path d="M231.787 262.334C224.554 260.344 219.067 254.208 218.568 246.745C218.568 246.414 218.568 245.999 218.568 245.667C218.568 245.584 218.568 245.419 218.568 245.336C218.568 245.253 218.568 245.087 218.568 245.004C218.568 244.672 218.568 244.258 218.568 243.926C218.984 236.463 224.471 230.328 231.787 228.338C259.056 220.792 279.092 195.834 279.092 166.232C279.092 162.252 278.759 158.355 278.011 154.541C277.928 153.878 277.762 153.297 277.595 152.634C277.512 152.137 277.429 151.722 277.263 151.224V151.142C277.18 150.893 277.18 150.644 277.096 150.395C277.013 149.898 276.847 149.483 276.764 149.069C276.598 148.405 276.348 147.659 276.182 146.996H273.937C274.02 147.244 274.104 147.41 274.104 147.659C274.104 147.659 274.104 147.742 274.187 147.742C274.27 148.156 274.436 148.488 274.519 148.903C274.602 149.151 274.685 149.4 274.685 149.649C274.769 150.064 274.935 150.478 275.018 150.893C275.101 151.142 275.184 151.39 275.184 151.639C275.267 152.054 275.351 152.468 275.434 152.883C275.434 153.049 275.517 153.132 275.517 153.297C275.517 153.38 275.517 153.38 275.517 153.463C275.6 153.961 275.683 154.375 275.766 154.873C276.431 158.521 276.764 162.335 276.764 166.15C276.764 194.093 257.975 218.802 230.955 226.182C222.642 228.503 216.739 235.468 216.24 243.677C216.24 244.092 216.24 244.506 216.24 244.838C216.24 244.921 216.24 245.087 216.24 245.17C216.24 245.253 216.24 245.419 216.24 245.501C216.24 245.916 216.24 246.331 216.24 246.662C216.739 254.871 222.642 261.919 230.955 264.158C257.892 271.62 276.764 296.33 276.764 324.19C276.764 328.004 276.431 331.818 275.766 335.467C274.852 340.691 273.189 345.749 270.944 350.558H157.961C155.716 345.749 154.053 340.608 153.139 335.384C152.474 331.736 152.141 327.921 152.141 324.107C152.141 296.164 170.93 271.538 197.95 264.075C206.264 261.753 212.166 254.788 212.665 246.579C212.665 246.165 212.665 245.75 212.665 245.419C212.665 245.336 212.665 245.17 212.665 245.087C212.665 245.004 212.665 244.838 212.665 244.755C212.665 244.341 212.665 243.926 212.665 243.594C212.166 235.386 206.264 228.42 197.95 226.099C171.013 218.636 152.141 193.927 152.141 166.067C152.141 162.252 152.474 158.438 153.139 154.79C153.222 154.127 153.388 153.463 153.555 152.8C153.555 152.8 153.555 152.8 153.555 152.717C153.721 152.054 153.804 151.473 153.97 150.81V150.727C154.053 150.229 154.22 149.732 154.386 149.317C154.386 149.234 154.386 149.234 154.386 149.234C154.469 149.069 154.469 148.903 154.552 148.654C154.635 148.322 154.718 147.991 154.885 147.659C154.885 147.576 154.885 147.576 154.968 147.576C155.051 147.327 155.134 147.079 155.134 146.913H152.973C152.723 147.576 152.557 148.322 152.391 148.986C152.224 149.4 152.141 149.898 152.058 150.312C151.975 150.561 151.975 150.81 151.892 151.059V151.142C151.809 151.639 151.642 152.054 151.559 152.551C151.393 153.214 151.31 153.795 151.144 154.458C150.395 158.272 150.063 162.17 150.063 166.15C150.063 195.751 170.099 220.709 197.368 228.255C204.601 230.245 210.088 236.381 210.587 243.843C210.587 244.175 210.587 244.589 210.587 244.921C210.587 245.004 210.587 245.17 210.587 245.253C210.587 245.336 210.587 245.501 210.587 245.584C210.587 245.916 210.587 246.331 210.587 246.662C210.171 254.125 204.601 260.261 197.368 262.251C170.099 269.796 150.063 294.754 150.063 324.356C150.063 328.336 150.395 332.233 151.144 336.047C152.224 342.017 154.136 347.656 156.714 352.879H272.524C275.101 347.656 277.013 341.934 278.094 336.047C278.842 332.233 279.175 328.336 279.175 324.356C279.092 294.754 259.056 269.879 231.787 262.334Z" fill="#B7CCF6"/>
<path d="M294.971 349.48C294.971 352.879 292.227 355.533 288.902 355.533H140.169C136.761 355.533 134.1 352.796 134.1 349.48C134.1 346.08 136.844 343.427 140.169 343.427H288.902C292.227 343.344 294.971 346.08 294.971 349.48Z" fill="#5155B7"/>
<path d="M263.961 185.718C264.044 186.216 262.797 186.796 261.217 187.211C259.554 187.542 258.224 187.459 258.058 186.962C257.975 186.464 259.222 185.884 260.801 185.469C262.464 185.138 263.877 185.221 263.961 185.718Z" fill="#FF9A30"/>
<path d="M260.22 191.025C260.303 191.522 259.554 192.02 258.474 192.268C257.393 192.517 256.478 192.268 256.395 191.854C256.312 191.356 257.06 190.859 258.141 190.61C259.139 190.361 260.053 190.527 260.22 191.025Z" fill="#FF9A30"/>
<path d="M255.398 189.615C255.481 190.113 254.732 190.61 253.652 190.859C252.571 191.108 251.656 190.859 251.573 190.444C251.49 189.947 252.238 189.449 253.319 189.201C254.4 188.952 255.314 189.118 255.398 189.615Z" fill="#FF9A30"/>
<path d="M222.475 193.844C222.558 194.093 222.143 194.424 221.561 194.507C220.979 194.59 220.48 194.507 220.48 194.259C220.397 194.01 220.812 193.678 221.394 193.595C221.976 193.512 222.475 193.595 222.475 193.844Z" fill="#FF9A30"/>
<path d="M247.915 186.133C247.998 186.381 247.583 186.713 247.001 186.796C246.419 186.879 245.92 186.796 245.92 186.547C245.837 186.298 246.252 185.967 246.834 185.884C247.416 185.801 247.915 185.884 247.915 186.133Z" fill="#FF9A30"/>
<path d="M238.687 195.005C238.77 195.254 238.354 195.585 237.772 195.668C237.19 195.751 236.692 195.668 236.692 195.419C236.608 195.171 237.024 194.839 237.606 194.756C238.188 194.673 238.687 194.756 238.687 195.005Z" fill="#FF9A30"/>
<path d="M226.383 200.892C226.466 201.141 226.05 201.472 225.468 201.555C224.886 201.638 224.387 201.555 224.387 201.307C224.304 201.058 224.72 200.726 225.302 200.643C225.884 200.477 226.383 200.643 226.383 200.892Z" fill="#FF9A30"/>
<path d="M215.242 299.812L214.827 299.646L214.411 299.812C214.411 299.812 210.67 328.833 170.764 343.427C192.629 343.427 206.43 343.427 215.076 343.427C226.632 343.427 229.043 343.427 229.043 343.427C235.528 343.427 245.005 343.427 258.889 343.427C218.984 328.833 215.242 299.812 215.242 299.812Z" fill="#FF9A30"/>
<path d="M276.348 147.659C276.348 150.893 248.663 153.546 214.494 153.546C180.325 153.546 152.64 150.893 152.64 147.659C152.64 144.425 180.325 141.772 214.494 141.772C248.663 141.772 276.348 144.425 276.348 147.659Z" fill="#B9DBEF"/>
<path d="M288.902 138.621H140.169C138.507 138.621 136.927 139.284 135.846 140.445C134.765 141.606 134.1 143.099 134.1 144.757C134.1 148.156 136.844 150.81 140.252 150.81H152.972H155.134H274.02H276.265H288.985C292.394 150.81 295.054 148.074 295.054 144.757C294.971 141.357 292.227 138.621 288.902 138.621Z" fill="#5155B7"/>
<path d="M98.3296 355.533H325.67" stroke="#389FE5" stroke-miterlimit="10"/>
</g>
<defs>
<clipPath id="clip0_383_3">
<rect width="424" height="299" fill="white" transform="translate(0 56.9474)"/>
</clipPath>
</defs>
</svg>
