<svg width="496" height="264" viewBox="0 0 496 264" fill="none" xmlns="http://www.w3.org/2000/svg">
<g clip-path="url(#clip0_663_2431)" filter="url(#filter0_dddd_663_2431)">
<path d="M482.451 101.498L481.13 108.28L480.574 108.412L479.963 104.295L482.451 101.498Z" fill="url(#paint0_radial_663_2431)"/>
<path d="M390.044 139.111L386.074 144.316C386.074 144.316 380.022 148.474 379.546 146.162C379.07 143.849 378.888 143.084 378.888 143.084L390.044 139.111Z" fill="url(#paint1_radial_663_2431)"/>
<g opacity="0.3">
<path d="M378.974 143.137C378.974 143.137 379.156 143.903 379.632 146.215C379.698 146.493 379.817 146.685 380.058 146.775C381.159 144.309 386.117 142.028 388.725 140.967L390.113 139.094L378.974 143.137Z" fill="url(#paint2_radial_663_2431)"/>
</g>
<path d="M431.81 123.233L427.841 128.439C427.841 128.439 421.789 132.596 421.313 130.284C420.836 127.972 420.655 127.207 420.655 127.207L431.81 123.233Z" fill="url(#paint3_radial_663_2431)"/>
<path opacity="0.3" d="M420.655 127.207C420.655 127.207 420.837 127.972 421.313 130.284C421.396 130.632 421.584 130.808 421.825 130.897C423.207 128.07 427.867 126.081 430.267 125.07L431.725 123.18L420.655 127.207Z" fill="url(#paint4_radial_663_2431)"/>
<path d="M354.134 155.875L352.419 163.779L385.294 149.059L385.122 148.952L366.523 149.991L354.134 155.875Z" fill="url(#paint5_radial_663_2431)"/>
<g opacity="0.5">
<path d="M385.122 148.952L366.592 149.975L354.187 155.789L352.403 163.709L354.786 162.628C355.302 161.403 355.979 159.626 356.544 157.066C356.736 155.404 359.77 154.903 364.523 152.377C367.967 150.824 363.181 154.754 360.422 160.113L385.417 148.956L385.122 148.952Z" fill="url(#paint6_radial_663_2431)"/>
</g>
<path d="M482.452 101.498L478.485 97.1493L477.751 97.7646L478.455 101.346L478.333 101.448L482.27 102.277L482.452 101.498Z" fill="url(#paint7_radial_663_2431)"/>
<path d="M478.333 101.448L352.604 145.729L352.098 156.873L366.539 150.061L366.764 150.081C365.653 147.258 363.68 145.743 363.68 145.743L371.785 143.743L374.376 145.7L378.895 144.038L481.721 104.906L482.286 102.346L478.333 101.448Z" fill="url(#paint8_linear_663_2431)"/>
<path d="M481.255 103.253L481.615 101.991L478.68 101.366C478.611 101.382 478.525 101.329 478.455 101.346C478.108 101.428 477.897 101.772 477.979 102.12C478.029 102.329 478.234 102.574 478.459 102.594L481.255 103.253Z" fill="url(#paint9_linear_663_2431)"/>
<path opacity="0.5" d="M478.333 101.448L352.604 145.729L352.098 156.873L356.64 154.691C356.739 153.565 356.772 152.161 356.666 150.79C356.418 146.66 358.778 146.099 371.583 141.66C384.474 137.274 461.36 108.715 476.687 103.162C479.936 102.023 481.433 102.769 481.87 103.988L482.27 102.276L478.333 101.448Z" fill="url(#paint10_linear_663_2431)"/>
<path d="M371.854 143.727L363.749 145.726C363.749 145.726 365.706 147.172 366.834 150.064L385.139 149.022L379.675 147.013L378.964 144.022L374.446 145.683L371.854 143.727Z" fill="url(#paint11_radial_663_2431)"/>
<path d="M482.025 102.482C482.108 102.829 481.896 103.174 481.549 103.256C481.202 103.339 480.858 103.126 480.776 102.779C480.693 102.431 480.905 102.086 481.252 102.004C481.599 101.921 481.943 102.134 482.025 102.482Z" fill="url(#paint12_radial_663_2431)"/>
<path d="M480.515 104.457L374.403 144.885L373.031 143.741L480.515 104.457Z" fill="white"/>
<path d="M365.303 149.179L357.542 152.934L357.413 150.539L364.249 147.518C364.265 147.588 365.237 148.9 365.303 149.179Z" fill="white"/>
<path d="M478.118 97.4569L477.751 97.7646L478.455 101.346L478.333 101.448L482.27 102.277L482.253 102.207L478.118 97.4569Z" fill="url(#paint13_radial_663_2431)"/>
<g opacity="0.5">
<path d="M367.812 149.244L366.397 145.758L371.395 144.571L373.9 146.474L379.113 144.648L378.948 143.952L374.429 145.614L371.838 143.657L363.733 145.656C363.733 145.656 365.69 147.102 366.817 149.995L385.122 148.952L383.106 148.182L367.812 149.244Z" fill="url(#paint14_radial_663_2431)"/>
</g>
<path d="M370.917 167.247C371.462 171.087 368.861 174.644 365.116 175.24C361.355 175.767 357.871 173.14 357.308 169.232C356.763 165.392 359.364 161.835 363.109 161.239C366.94 160.696 370.371 163.408 370.917 167.247Z" fill="url(#paint15_radial_663_2431)"/>
<g opacity="0.5">
<path d="M363.195 161.292C361.843 161.466 360.676 162.111 359.698 162.931C359.179 164.451 358.611 167.305 360.144 170.983C362.277 175.327 356.376 172.099 357.635 166.288C357.348 167.238 357.285 168.208 357.464 169.268C358.009 173.107 361.51 175.803 365.271 175.277C369.033 174.751 371.634 171.193 371.072 167.284C370.371 163.408 366.94 160.696 363.195 161.292Z" fill="url(#paint16_radial_663_2431)"/>
</g>
<path d="M395.088 152.317C395.088 152.317 390.725 146.298 375.447 150.516C362.672 153.846 358.141 162.86 360.498 170.311C362.538 176.735 372.401 184.607 391.721 177.958C393.04 169.928 395.088 152.317 395.088 152.317Z" fill="url(#paint17_radial_663_2431)"/>
<g opacity="0.5">
<path d="M383.893 149.024C380.039 150.087 375.408 152.51 373.164 158.188C368.96 168.888 377.997 173.282 369.902 174.397C362.779 175.281 359.946 170.148 360.223 165.452C360.494 161.345 363.475 156.301 368.86 153.037C361.145 157.296 358.557 164.305 360.481 170.241C362.521 176.665 372.385 184.537 391.705 177.889C393.04 169.928 395.072 152.247 395.072 152.247C395.072 152.247 392.447 148.608 383.893 149.024Z" fill="url(#paint18_radial_663_2431)"/>
</g>
<path d="M401.088 162.136C402.245 170.092 396.97 177.519 389.308 178.605C381.647 179.691 374.526 174.107 373.369 166.15C372.212 158.194 377.487 150.767 385.149 149.681C392.741 148.612 399.931 154.179 401.088 162.136Z" fill="url(#paint19_radial_663_2431)"/>
<path opacity="0.5" d="M398.619 161.62C399.519 167.874 395.248 173.666 389.077 174.544C382.906 175.423 377.191 171.122 376.291 164.868C375.392 158.614 379.662 152.822 385.833 151.944C391.988 150.996 397.72 155.366 398.619 161.62Z" fill="#4E5143"/>
<path opacity="0.5" d="M396.014 160.843C395.403 156.725 392.705 153.398 389.122 151.897C388.051 151.711 386.944 151.68 385.817 151.874C379.646 152.753 375.375 158.544 376.275 164.798C376.886 168.916 379.584 172.243 383.167 173.744C384.238 173.93 385.345 173.961 386.472 173.767C392.643 172.888 396.914 167.097 396.014 160.843Z" fill="url(#paint20_radial_663_2431)"/>
<path opacity="0.3" d="M380.073 173.377C380.073 173.377 384.046 177.136 390.508 175.013C397.04 172.873 398.471 168.711 399.099 166.724C399.726 164.738 401.446 173.516 391.817 177.127C383.283 180.404 377.984 172.918 380.073 173.377Z" fill="#7E7E7E"/>
<g opacity="0.4">
<path d="M384.498 159.904C383.041 160.251 382.211 161.697 382.542 163.089C382.889 164.55 384.333 165.382 385.721 165.052C387.179 164.706 388.009 163.259 387.678 161.868C387.348 160.477 385.886 159.575 384.498 159.904ZM385.573 164.426C384.531 164.674 383.5 164.037 383.252 162.993C383.004 161.95 383.639 160.917 384.68 160.67C385.721 160.422 386.753 161.059 387.001 162.103C387.248 163.146 386.614 164.179 385.573 164.426Z" fill="#4E5143"/>
</g>
<g opacity="0.3">
<path d="M399.224 161.697C399.039 159.683 398.199 157.384 395.584 154.404C390.021 148.891 382.438 152.162 380.746 153.373C379.123 154.567 377.814 153.996 380.032 152.22C384.293 148.856 389.198 149.748 390.907 150.15C389.079 149.556 387.056 149.375 385.01 149.714C377.348 150.8 372.073 158.227 373.23 166.183C374.388 174.14 381.508 179.724 389.17 178.638C396.831 177.552 402.107 170.125 400.949 162.169C400.771 161.109 400.523 160.065 400.153 159.124C401.647 163.253 399.429 163.486 399.224 161.697Z" fill="url(#paint21_radial_663_2431)"/>
</g>
<path opacity="0.5" d="M383.622 151.587C383.622 151.587 388.418 149.86 392.669 152.01C395.921 153.662 392.368 149.509 386.944 150.136C381.503 150.694 381.1 152.701 383.622 151.587Z" fill="url(#paint22_radial_663_2431)"/>
<path d="M379.563 150.861C379.563 150.861 366.606 153.426 363.231 162.68C361.258 167.338 359.208 152.538 379.563 150.861Z" fill="white"/>
<path d="M478.333 101.448L352.604 145.729L352.098 156.873L366.539 150.061L366.764 150.081C365.653 147.258 363.68 145.743 363.68 145.743L371.785 143.743L374.376 145.7L378.895 144.038L481.721 104.906L482.286 102.346L478.333 101.448Z" stroke="#CAD4DE" stroke-width="0.4128" stroke-miterlimit="10"/>
<path d="M346.686 131.627C337.903 121.514 327.712 116.586 307.074 120.461C286.435 124.337 236.414 135.414 236.414 135.414C236.276 135.447 236.067 135.496 235.912 135.46L235.859 135.546C235.859 135.546 215.009 139.765 209.215 145.625C208.62 146.208 208.008 146.72 207.364 147.094C206.699 147.693 205.965 148.308 205.212 149.149C200.644 153.688 202.799 159.056 208.819 165.563C214.769 172.087 220.061 175.533 220.061 175.533L222.874 177.804L250.95 172.823C254.05 171.058 259.884 167.834 266.227 165.518C275.681 162.096 278.401 166.447 285.277 173.78C291.177 180.095 295.994 185.859 305.46 184.344C306.501 184.097 307.543 183.85 308.584 183.602L308.653 183.586C315.456 181.969 322.189 180.369 328.297 178.918C367.324 169.718 355.469 141.741 346.686 131.627Z" fill="url(#paint23_linear_663_2431)"/>
<path d="M354.683 147.072C353.883 145.866 349.139 139.79 338.79 142.837C327.33 146.148 324.211 157.4 331.093 165.686C334.884 170.224 341.363 171.257 347.693 170.12C355.626 163.384 356.518 154.794 354.683 147.072Z" fill="url(#paint24_radial_663_2431)"/>
<path d="M259.825 157.706C257.517 156.637 255.065 156.191 252.556 156.126C257.917 156.469 263.844 158.882 270.756 164.516C270.825 164.499 270.895 164.483 270.964 164.466C263.781 156.766 253.128 152.977 246.08 151.711C241.4 150.839 232.201 153.172 231.817 145.693C231.562 140.609 236.834 136.564 240.302 134.49C237.786 135.015 236.329 135.361 236.329 135.361C235.912 135.46 235.393 135.436 234.841 135.273C229.252 136.748 215.872 141.545 215.955 152.696C216.61 163.785 228.886 164.837 238.376 159.716C242.921 157.239 247.489 155.786 252.47 156.073C255.065 156.191 257.517 156.637 259.825 157.706Z" fill="url(#paint25_linear_663_2431)"/>
<path d="M252.556 156.126C246.292 155.997 239.876 158.624 236.363 161.737C231.451 166.065 224.233 172.41 216.779 167.273C209.325 162.136 209.621 147.954 216.305 141.515C212.642 142.459 208.954 145.761 207.103 147.23C206.491 147.742 205.843 148.411 205.126 149.096C200.558 153.635 202.714 159.003 208.733 165.51C214.683 172.034 219.975 175.48 219.975 175.48L222.788 177.751L250.864 172.77C253.965 171.004 259.799 167.781 266.142 165.465C267.897 164.828 269.424 164.465 270.792 164.36C263.844 158.882 257.987 156.452 252.556 156.126Z" fill="url(#paint26_linear_663_2431)"/>
<path opacity="0.2" d="M266.944 149.4C259.05 138.708 266.943 130.879 270.923 127.876C265.337 129.056 259.906 130.273 255.014 131.288C253.057 134.473 252.264 140.394 262.478 149.432C276.719 162.143 300.601 183.956 335.503 176.838C338.075 175.933 340.388 174.869 342.391 173.732C303.028 185.216 276.782 162.716 266.944 149.4Z" fill="url(#paint27_linear_663_2431)"/>
<path d="M274.315 141.842C274.734 129.101 287.592 124.576 291.654 123.464C285.149 124.789 277.897 126.365 270.923 127.876C266.943 130.879 259.05 138.708 266.944 149.4C276.765 162.647 303.011 185.147 342.408 173.801C344.411 172.664 346.172 171.437 347.64 170.206C293.997 183.32 273.82 156.732 274.315 141.842Z" fill="url(#paint28_linear_663_2431)"/>
<path d="M309.256 137.361C309.256 137.361 314.723 135.989 323.274 134.324C331.825 132.66 331.439 133.193 336.72 131.35C342.002 129.507 341.675 129.364 343.196 131.134C344.716 132.904 345.242 133.881 346.677 135.598C347.771 136.808 346.855 136.658 345.725 137.147C344.594 137.637 338.638 139.419 336.519 140.07C334.384 140.651 322.554 143.021 320.61 143.483C318.667 143.944 314.939 146.153 311.954 146.862C308.969 147.572 304.867 149.134 305.27 147.128C305.796 145.018 309.256 137.361 309.256 137.361Z" fill="url(#paint29_linear_663_2431)"/>
<path d="M285.224 173.866C278.349 166.533 275.559 162.199 266.175 165.604C259.832 167.92 254.051 171.058 250.897 172.909L262.793 170.817C262.793 170.817 265.537 170.019 266.578 174.401C267.62 178.784 267.058 176.419 267.62 178.784C268.198 181.219 267.408 183.758 261.204 184.498C255 185.237 247.893 186.191 247.893 186.191L246.518 188.428C246.786 189.247 249.031 194.372 266.953 192.025C277.543 190.611 291.561 187.574 305.391 184.361C295.941 185.945 291.141 180.25 285.224 173.866Z" fill="url(#paint30_radial_663_2431)"/>
<path d="M308.531 183.688L308.601 183.672" stroke="#2F3437" stroke-width="0.4128" stroke-miterlimit="10"/>
<path d="M341.645 130.473L346.204 136.078L337.431 138.971L333.584 133.271L341.645 130.473Z" fill="url(#paint31_linear_663_2431)"/>
<path d="M332.162 133.462L335.075 139.237L321.404 142.192L320.058 135.603L332.162 133.462Z" fill="url(#paint32_linear_663_2431)"/>
<path d="M318.581 136.174C318.581 136.174 320.012 141.273 319.883 141.965C319.771 142.727 312.588 145.83 312.122 145.72C311.656 145.61 314.234 139.486 314.594 138.224C315.024 136.946 315.097 136.635 315.946 136.506C316.657 136.411 318.581 136.174 318.581 136.174Z" fill="url(#paint33_linear_663_2431)"/>
<path d="M313.199 137.6L310.146 146.043L306.725 147.076C306.725 147.076 305.911 147.049 306.361 145.546C306.81 144.042 309.273 138.974 309.273 138.974C309.273 138.974 309.626 138.302 310.945 137.989C312.333 137.659 313.199 137.6 313.199 137.6Z" fill="url(#paint34_linear_663_2431)"/>
<g opacity="0.5">
<path d="M295.89 161.042C294.571 161.356 293.434 160.891 292.892 159.844C291.603 157.504 288.918 143.737 293.919 134.538C295.456 131.748 296.328 131.099 297.3 130.868C297.578 130.802 297.786 130.753 298.08 130.756C298.219 130.723 298.358 130.69 298.513 130.727C300.143 130.487 301.286 130.362 301.356 130.346L301.65 130.349L301.491 130.607C301.385 130.779 293.506 143.602 297.976 158.709C298.128 159.041 298.088 159.491 297.876 159.835C297.543 160.282 296.792 160.828 295.89 161.042ZM297.35 131.077C296.447 131.291 295.713 131.907 294.229 134.611C289.282 143.724 291.933 157.352 293.222 159.692C293.748 160.669 294.713 161.028 295.893 160.748C296.657 160.566 297.354 160.106 297.672 159.59C297.814 159.262 297.817 158.968 297.751 158.689C293.615 144.679 300.034 132.497 301.128 130.62C300.695 130.65 299.776 130.794 298.632 130.919C298.493 130.952 298.354 130.985 298.199 130.949C297.766 130.978 297.558 131.028 297.35 131.077Z" fill="url(#paint35_linear_663_2431)"/>
</g>
<path d="M293.242 145.576C293.133 146.043 292.782 146.42 292.558 146.4C292.316 146.311 292.148 145.91 292.24 145.373C292.349 144.906 292.7 144.529 292.924 144.549C293.166 144.639 293.351 145.109 293.242 145.576Z" stroke="#2F3437" stroke-width="0.4128" stroke-miterlimit="10"/>
<path opacity="0.5" d="M293.586 161.222C293.586 161.222 294.194 162.548 296.069 162.102C297.873 161.673 298.862 161.512 298.719 160.296C298.491 159.028 300.104 161.805 297.969 162.386C295.85 163.036 293.874 163.359 293.586 161.222Z" fill="url(#paint36_linear_663_2431)"/>
<g opacity="0.8">
<path d="M288.294 145.429C288.294 145.429 288.241 147.058 288.287 149.105C288.333 151.152 287.461 150.257 287.471 147.829C287.394 145.349 288.27 144.406 288.294 145.429Z" fill="url(#paint37_linear_663_2431)"/>
<path d="M285.953 145.765C285.953 145.765 285.9 147.394 285.877 149.457C285.924 151.504 285.051 150.609 285.061 148.181C284.985 145.701 285.93 144.741 285.953 145.765Z" fill="url(#paint38_linear_663_2431)"/>
<path d="M283.785 146.206C283.785 146.206 283.732 147.836 283.779 149.883C283.825 151.93 282.952 151.034 282.962 148.607C282.817 146.143 283.762 145.183 283.785 146.206Z" fill="url(#paint39_linear_663_2431)"/>
<path d="M281.686 146.632C281.686 146.632 281.65 148.331 281.68 150.308C281.726 152.355 280.853 151.46 280.863 149.032C280.718 146.568 281.663 145.608 281.686 146.632Z" fill="url(#paint40_linear_663_2431)"/>
<path d="M279.518 147.073C279.518 147.073 279.481 148.772 279.511 150.75C279.558 152.796 278.685 151.901 278.695 149.474C278.619 146.993 279.494 146.05 279.518 147.073Z" fill="url(#paint41_linear_663_2431)"/>
<path d="M277.349 147.515C277.349 147.515 277.296 149.145 277.343 151.191C277.389 153.238 276.517 152.343 276.526 149.915C276.434 147.365 277.31 146.422 277.349 147.515Z" fill="url(#paint42_linear_663_2431)"/>
<path d="M275.079 147.834C275.079 147.834 275.042 149.533 275.003 151.527C275.049 153.574 274.176 152.679 274.186 150.251C274.179 147.754 275.055 146.811 275.079 147.834Z" fill="url(#paint43_linear_663_2431)"/>
<path d="M272.98 148.259C272.98 148.259 272.943 149.958 272.973 151.936C273.02 153.983 272.147 153.087 272.157 150.66C272.081 148.179 272.956 147.236 272.98 148.259Z" fill="url(#paint44_linear_663_2431)"/>
<path d="M270.742 148.718C270.742 148.718 270.689 150.347 270.736 152.394C270.782 154.441 269.909 153.546 269.919 151.118C269.773 148.654 270.702 147.625 270.742 148.718Z" fill="url(#paint45_linear_663_2431)"/>
<path d="M268.643 149.143C268.643 149.143 268.59 150.772 268.636 152.819C268.683 154.866 267.81 153.971 267.82 151.543C267.674 149.079 268.62 148.12 268.643 149.143Z" fill="url(#paint46_linear_663_2431)"/>
<path d="M266.336 149.618C266.336 149.618 266.299 151.317 266.329 153.294C266.376 155.341 265.503 154.446 265.513 152.018C265.437 149.537 266.296 148.525 266.336 149.618Z" fill="url(#paint47_linear_663_2431)"/>
<path d="M264.187 149.834C264.187 149.834 264.151 151.533 264.181 153.51C264.227 155.557 263.355 154.662 263.364 152.235C263.219 149.77 264.164 148.811 264.187 149.834Z" fill="url(#paint48_linear_663_2431)"/>
<path d="M261.203 150.543C261.203 150.543 261.166 152.242 261.196 154.22C261.243 156.267 260.37 155.372 260.38 152.944C260.218 150.41 261.163 149.45 261.203 150.543Z" fill="url(#paint49_linear_663_2431)"/>
<path d="M257.871 151.335C257.871 151.335 257.835 153.034 257.864 155.011C257.911 157.058 257.038 156.163 257.048 153.736C256.886 151.202 257.831 150.242 257.871 151.335Z" fill="url(#paint50_linear_663_2431)"/>
<path d="M255.256 151.442C255.256 151.442 255.203 153.071 255.25 155.118C255.296 157.165 254.423 156.27 254.433 153.842C254.357 151.362 255.233 150.419 255.256 151.442Z" fill="url(#paint51_linear_663_2431)"/>
<path d="M252.965 151.986C252.965 151.986 252.913 153.616 252.959 155.663C253.005 157.709 252.133 156.814 252.142 154.387C252.066 151.906 252.942 150.963 252.965 151.986Z" fill="url(#paint52_linear_663_2431)"/>
<path d="M251.214 152.329C251.214 152.329 251.178 154.028 251.138 156.022C251.184 158.069 250.312 157.174 250.321 154.746C250.315 152.249 251.191 151.306 251.214 152.329Z" fill="url(#paint53_linear_663_2431)"/>
<path d="M249.029 152.701C249.029 152.701 248.976 154.331 248.953 156.394C248.999 158.441 248.127 157.546 248.12 155.048C248.06 152.637 249.006 151.678 249.029 152.701Z" fill="url(#paint54_linear_663_2431)"/>
<path d="M247.277 153.044C247.277 153.044 247.224 154.673 247.271 156.72C247.317 158.767 246.444 157.872 246.454 155.444C246.308 152.98 247.254 152.021 247.277 153.044Z" fill="url(#paint55_linear_663_2431)"/>
<path d="M245.178 153.469C245.178 153.469 245.142 155.168 245.172 157.145C245.218 159.192 244.345 158.297 244.355 155.87C244.21 153.405 245.155 152.446 245.178 153.469Z" fill="url(#paint56_linear_663_2431)"/>
<path d="M242.871 153.944C242.871 153.944 242.835 155.643 242.864 157.62C242.911 159.667 242.038 158.772 242.048 156.344C241.972 153.864 242.848 152.921 242.871 153.944Z" fill="url(#paint57_linear_663_2431)"/>
<path d="M240.755 154.3C240.755 154.3 240.703 155.929 240.749 157.976C240.795 160.023 239.923 159.128 239.933 156.7C239.856 154.219 240.732 153.276 240.755 154.3Z" fill="url(#paint58_linear_663_2431)"/>
<path d="M238.934 154.659C238.934 154.659 238.898 156.358 238.928 158.335C238.974 160.382 238.101 159.487 238.111 157.059C238.035 154.579 238.911 153.635 238.934 154.659Z" fill="url(#paint59_linear_663_2431)"/>
<path d="M236.366 155.269C236.366 155.269 236.297 156.829 236.363 158.651C236.36 160.489 235.659 159.7 235.563 157.444C235.467 155.189 236.359 154.315 236.366 155.269Z" fill="url(#paint60_linear_663_2431)"/>
<path d="M234.528 155.559C234.528 155.559 234.459 157.119 234.525 158.94C234.522 160.778 233.821 159.99 233.725 157.734C233.698 155.462 234.521 154.605 234.528 155.559Z" fill="url(#paint61_linear_663_2431)"/>
<path d="M232.482 155.898C232.482 155.898 232.413 157.458 232.479 159.28C232.476 161.118 231.775 160.329 231.679 158.073C231.652 155.801 232.475 154.944 232.482 155.898Z" fill="url(#paint62_linear_663_2431)"/>
<path d="M230.555 156.429C230.555 156.429 230.486 157.989 230.552 159.811C230.549 161.649 229.848 160.86 229.752 158.605C229.725 156.333 230.548 155.476 230.555 156.429Z" fill="url(#paint63_linear_663_2431)"/>
<path d="M228.942 156.739C228.942 156.739 228.873 158.299 228.939 160.121C228.936 161.959 228.235 161.17 228.139 158.914C228.043 156.659 228.935 155.785 228.942 156.739Z" fill="url(#paint64_linear_663_2431)"/>
<path d="M227.088 156.959C227.088 156.959 227.018 158.519 227.084 160.341C227.081 162.179 226.38 161.39 226.284 159.135C226.258 156.863 227.081 156.005 227.088 156.959Z" fill="url(#paint65_linear_663_2431)"/>
<path d="M225.128 157.352C225.128 157.352 225.058 158.911 225.124 160.733C225.121 162.571 224.42 161.782 224.324 159.527C224.298 157.255 225.121 156.398 225.128 157.352Z" fill="url(#paint66_linear_663_2431)"/>
<path d="M223.065 157.621C223.065 157.621 222.996 159.181 223.062 161.003C223.059 162.841 222.358 162.052 222.262 159.796C222.235 157.524 223.058 156.667 223.065 157.621Z" fill="url(#paint67_linear_663_2431)"/>
<path d="M221.383 157.948C221.383 157.948 221.313 159.507 221.379 161.329C221.376 163.167 220.675 162.378 220.58 160.123C220.57 157.92 221.376 156.994 221.383 157.948Z" fill="url(#paint68_linear_663_2431)"/>
<path d="M219.545 158.237C219.545 158.237 219.475 159.797 219.542 161.619C219.538 163.457 218.838 162.668 218.742 160.412C218.732 158.21 219.538 157.283 219.545 158.237Z" fill="url(#paint69_linear_663_2431)"/>
</g>
<g opacity="0.5">
<path d="M258.665 162.391C258.526 162.424 258.301 162.404 258.129 162.298C257.63 162.049 257.276 161.178 257.012 160.065C256.304 156.779 255.874 148.796 257.147 147.979C257.583 147.655 257.914 147.503 258.261 147.421C258.538 147.355 258.71 147.461 258.796 147.514C258.882 147.567 258.932 147.776 258.859 148.087C258.859 148.087 258.439 153.111 259.266 159.676C259.593 161.362 259.22 162.259 258.665 162.391ZM258.327 147.699C258.188 147.732 257.857 147.884 257.352 148.225C256.601 148.77 256.321 155.305 257.375 160.052C257.623 161.095 257.96 161.897 258.374 162.093C258.46 162.146 258.546 162.199 258.684 162.166C259.031 162.084 259.352 161.272 258.988 159.742C258.162 153.177 258.581 148.153 258.565 148.083C258.654 147.842 258.637 147.772 258.568 147.789C258.535 147.65 258.466 147.666 258.327 147.699Z" fill="url(#paint70_linear_663_2431)"/>
</g>
<g opacity="0.5">
<path d="M285.224 173.866C283.446 171.937 281.942 170.236 280.504 168.814L280.52 168.884C280.52 168.884 285.115 174.333 288.126 177.439C291.138 180.545 293.885 182.538 285.344 184.862C276.802 187.185 274.948 185.862 273.331 180.293C271.999 175.612 271.682 176.128 269.966 176.316C268.251 176.503 268.043 176.552 267.563 174.535C267.166 172.865 266.978 169.603 263.339 170.026C260.549 170.322 255.64 171.268 252.414 171.887C251.839 172.244 251.317 172.516 250.864 172.77L262.76 170.678C262.76 170.678 265.504 169.879 266.545 174.262C267.587 178.645 267.025 176.28 267.587 178.645C268.165 181.08 267.375 183.619 261.171 184.359C254.967 185.098 247.86 186.052 247.86 186.052L246.485 188.289C246.753 189.107 248.998 194.233 266.919 191.886C277.51 190.471 291.528 187.434 305.358 184.222C295.941 185.945 291.141 180.25 285.224 173.866Z" fill="url(#paint71_radial_663_2431)"/>
</g>
<g opacity="0.5">
<path d="M289.74 178.673C290.817 179.813 292.923 181.885 294.589 183.032C297.045 184.727 299.207 184.875 291.366 186.444C276.168 189.761 265.67 190.639 259.869 190.915C253.116 191.197 253.222 186.394 259.198 185.93C265.174 185.465 268.843 183.932 268.416 180.285C267.92 176.655 266.929 174.024 266.307 172.334C266.122 171.864 265.692 171.599 265.157 171.505C265.722 172.032 266.231 172.94 266.578 174.401C267.62 178.784 267.058 176.419 267.62 178.784C268.198 181.219 267.408 183.758 261.204 184.498C255 185.237 247.893 186.191 247.893 186.191L246.518 188.428C246.786 189.247 249.031 194.372 266.953 192.025C277.543 190.611 291.561 187.574 305.391 184.361C298.42 185.576 294.004 182.731 289.74 178.673Z" fill="url(#paint72_radial_663_2431)"/>
</g>
<path d="M235.79 135.562L235.843 135.476C232.157 135.397 225.741 127.22 221.205 118.008C216.485 108.326 197.437 70.4457 195.867 66.9236C194.297 63.4015 193.712 63.0995 190.866 63.7758C187.95 64.4685 187.95 64.4685 187.95 64.4685C187.95 64.4685 210.517 139.069 211.535 142.428C211.76 143.992 210.352 144.547 207.327 147.25C207.972 146.876 208.583 146.363 209.178 145.781C214.939 139.782 235.79 135.562 235.79 135.562Z" fill="url(#paint73_linear_663_2431)"/>
<g opacity="0.5">
<path d="M233.344 134.527C220.235 138.303 216.136 139.571 209.878 121.876C202.998 102.491 193.243 74.0882 191.471 68.4827C190.403 64.9147 192.522 64.2642 194.27 64.2162C193.45 63.2351 192.584 63.2939 190.71 63.7392C187.795 64.4319 187.795 64.432 187.795 64.432C187.795 64.432 210.361 139.032 211.38 142.392C211.604 143.955 210.196 144.51 207.172 147.213C207.817 146.84 208.428 146.327 209.023 145.744C214.817 139.884 235.667 135.665 235.667 135.665L235.72 135.579C235.115 135.502 234.289 135.111 233.344 134.527Z" fill="url(#paint74_linear_663_2431)"/>
</g>
<g opacity="0.5">
<path d="M234.428 135.078C214.001 141.695 212.454 140.74 207.029 122.847C201.088 104.635 191.121 71.9467 188.767 64.2011C187.934 64.399 187.934 64.399 187.934 64.399C187.934 64.399 210.5 138.999 211.518 142.359C211.743 143.922 210.335 144.477 207.311 147.18C207.955 146.807 208.567 146.294 209.162 145.711C214.956 139.851 235.806 135.632 235.806 135.632L235.859 135.546C235.41 135.506 234.927 135.326 234.428 135.078Z" fill="url(#paint75_linear_663_2431)"/>
</g>
<path d="M195.639 68.7417C195.639 68.7417 214.131 106.754 222.141 122.563C227.9 133.836 219.685 122.412 212.108 106.573C204.548 90.8045 192.264 64.105 195.639 68.7417Z" fill="white"/>
<path d="M286.722 177.699C286.722 177.699 283.195 172.731 279.429 168.922C275.664 165.113 271.695 164.146 266.862 166.029C263.038 167.526 264.446 166.971 268.379 166.55C274.6 165.881 278.289 168.752 286.722 177.699Z" fill="white"/>
<path d="M26.0317 211.054L27.8532 215.325L28.4779 215.177L28.3752 210.424L26.0317 211.054Z" fill="url(#paint76_radial_663_2431)"/>
<path d="M100.605 202.08C100.605 202.08 100.985 203.68 101.613 206.324C102.241 208.968 104.657 208.026 106.915 205.799C109.103 203.589 111.109 200.613 111.109 200.613L100.605 202.08Z" fill="url(#paint77_radial_663_2431)"/>
<g opacity="0.3">
<path d="M110.161 201.868C110.723 201.146 111.04 200.63 111.04 200.63L100.605 202.08C100.605 202.08 100.919 203.402 101.431 205.559C103.738 203.541 107.49 202.355 110.161 201.868Z" fill="url(#paint78_radial_663_2431)"/>
</g>
<path d="M155.207 194.545C155.207 194.545 155.293 196.141 155.921 198.785C156.549 201.428 159.071 200.315 161.517 198.263C164.505 195.716 167.741 192.669 167.741 192.669L155.207 194.545Z" fill="url(#paint79_radial_663_2431)"/>
<g opacity="0.3">
<path d="M166.167 194.072C167.06 193.198 167.671 192.685 167.671 192.685L155.207 194.545C155.207 194.545 155.276 196.072 155.904 198.715C158.307 195.866 163.219 194.625 166.167 194.072Z" fill="url(#paint80_radial_663_2431)"/>
</g>
<path d="M217.622 187.798C216.492 188.287 215.358 189.071 214.172 188.397C213.001 187.794 212.611 187.078 210.955 188.133C209.316 189.257 207.422 188.384 207.227 185.712C207.025 183.628 208.85 182.974 209.613 182.793L204.41 183.735L205.306 187.197L194.594 188.713L193.146 191.262L194.501 196.967L200.001 192.647L202.444 197.064L206.047 196.796L221.718 196.085C221.034 193.822 219.95 190.185 219.546 189.105C219.113 187.591 218.753 187.309 217.622 187.798Z" fill="url(#paint81_radial_663_2431)"/>
<g opacity="0.3">
<path d="M221.821 196.208C221.136 193.945 220.052 190.307 219.649 189.227C219.027 187.538 218.683 187.325 217.553 187.814C216.423 188.304 215.289 189.087 214.102 188.414C212.932 187.81 212.542 187.094 210.886 188.149C209.247 189.274 207.353 188.401 207.157 185.728C206.956 183.645 208.78 182.991 209.544 182.809L204.341 183.751L205.237 187.213L194.524 188.73L193.077 191.279L193.325 192.322L195.463 189.903L205.832 188.174L208.268 191.638C208.268 191.638 205.013 193.367 202.877 197.034L205.978 196.812L221.821 196.208Z" fill="url(#paint82_radial_663_2431)"/>
</g>
<g opacity="0.5">
<path d="M194.455 196.463L194.604 197.089L200.104 192.769L202.547 197.186L202.98 197.157L200.365 191.09L194.455 196.463Z" fill="url(#paint83_radial_663_2431)"/>
</g>
<path d="M267.289 177.393C266.763 177.959 265.788 178.484 264.261 178.847C258.761 180.081 223.469 184.939 223.469 184.939L224.438 186.546C229.793 185.935 249.619 183.576 259.184 182.479C264.037 181.914 266.486 181.111 267.775 180.364C267.798 179.844 267.752 179.341 267.62 178.784C267.355 177.671 267.339 177.601 267.289 177.393Z" fill="url(#paint84_radial_663_2431)"/>
<path d="M259.184 182.479C249.619 183.576 229.793 185.935 224.438 186.546L224.54 186.669C224.54 186.669 231.416 184.741 241.273 190.116L240.747 195.312L240.886 195.279L246.571 188.342C246.571 188.342 246.588 188.412 246.604 188.481L247.979 186.244C247.979 186.244 255.086 185.29 261.29 184.551C266.142 183.986 267.719 182.288 267.861 180.417C266.486 181.111 264.037 181.914 259.184 182.479ZM242.248 189.59L234.705 186.238L244.935 186.085L242.248 189.59Z" fill="url(#paint85_radial_663_2431)"/>
<path d="M262.793 170.817L222.821 177.89L220.008 175.619L28.0446 209.033L22.802 204.252L23.3475 206.548L26.0482 211.124L41.5142 208.625L41.9605 210.503L194.627 188.852L205.339 187.336L204.444 183.874L204.351 181.324L217.252 179.14L216.492 182.114L216.789 183.366C216.789 183.366 222.197 182.669 224.418 186.771L223.417 185.025C223.417 185.025 258.708 180.167 264.209 178.933C265.736 178.57 266.711 178.045 267.236 177.479C267.187 177.27 267.071 176.783 266.525 174.487C265.537 170.019 262.793 170.817 262.793 170.817Z" fill="url(#paint86_linear_663_2431)"/>
<path opacity="0.5" d="M223.545 179.703C232.404 178.406 258.989 173.632 265.821 172.45C264.582 170.319 262.81 170.887 262.81 170.887L222.838 177.96L220.025 175.688L28.0447 209.033C28.0447 209.033 195.992 181.326 208.82 179.453C221.648 177.581 217.166 180.63 223.545 179.703Z" fill="url(#paint87_linear_663_2431)"/>
<path d="M203.624 184.436L204.259 186.49L43.7751 209.19L203.624 184.436Z" fill="white"/>
<path d="M223.01 182.696L265.369 175.791C265.369 175.791 269.008 176.911 250.194 180.132C231.449 183.337 217.698 184.105 223.01 182.696Z" fill="white"/>
<path opacity="0.5" d="M28.0446 209.033L22.802 204.252L23.1822 205.852L26.306 209.74L28.0446 209.033Z" fill="url(#paint88_linear_663_2431)"/>
<path d="M216.842 183.28L216.544 182.028L217.305 179.054L204.404 181.238L204.496 183.788L209.699 182.846C209.907 182.796 210.046 182.763 210.046 182.763L209.699 182.846C208.935 183.027 207.111 183.681 207.313 185.765C207.508 188.438 209.402 189.31 211.041 188.186C212.681 187.061 213.071 187.777 214.257 188.451C215.428 189.054 216.561 188.271 217.708 187.851C218.839 187.362 219.182 187.574 219.804 189.264C220.207 190.344 221.292 193.982 221.976 196.244L240.764 195.381L241.289 190.185C231.432 184.811 224.557 186.738 224.557 186.738C222.266 182.652 216.842 183.28 216.842 183.28Z" fill="url(#paint89_radial_663_2431)"/>
<path opacity="0.5" d="M219.943 187.688C219.189 185.441 215.712 188.399 214.366 186.44C212.952 184.498 209.527 188.913 209.286 185.737C209.045 182.56 213.487 181.505 213.487 181.505L206.433 182.372L206.241 180.948L204.334 181.254L204.427 183.804L209.63 182.862C209.838 182.813 209.977 182.78 209.977 182.78L209.63 182.862C208.866 183.044 207.042 183.698 207.243 185.781C207.438 188.454 209.332 189.327 210.972 188.202C212.611 187.078 213.001 187.794 214.188 188.467C215.358 189.071 216.492 188.287 217.639 187.868C218.769 187.378 219.113 187.591 219.735 189.28C220.138 190.361 221.222 193.998 221.907 196.261L240.695 195.398L241.121 191.328C231.928 183.811 219.943 187.688 219.943 187.688Z" fill="url(#paint90_radial_663_2431)"/>
<path d="M213.862 205.302C214.407 209.141 211.806 212.699 208.061 213.295C204.299 213.821 200.815 211.195 200.27 207.355C199.724 203.516 202.325 199.959 206.07 199.363C209.885 198.75 213.316 201.463 213.862 205.302Z" fill="url(#paint91_radial_663_2431)"/>
<g opacity="0.5">
<path d="M206.14 199.346C204.788 199.52 203.621 200.165 202.643 200.985C202.124 202.505 201.556 205.359 203.09 209.037C205.205 213.312 199.252 210.169 200.581 204.342C200.293 205.292 200.23 206.262 200.409 207.322C200.954 211.161 204.455 213.857 208.2 213.261C211.961 212.735 214.563 209.177 214.001 205.269C213.316 201.462 209.885 198.75 206.14 199.346Z" fill="url(#paint92_radial_663_2431)"/>
</g>
<path d="M238.033 190.371C238.033 190.371 233.67 184.352 218.392 188.57C205.617 191.9 201.086 200.914 203.443 208.365C205.483 214.789 215.346 222.661 234.666 216.012C235.985 207.982 238.033 190.371 238.033 190.371Z" fill="url(#paint93_radial_663_2431)"/>
<g opacity="0.5">
<path d="M226.838 187.078C222.967 188.071 218.353 190.564 216.109 196.242C211.905 206.942 220.942 211.336 212.847 212.451C205.724 213.335 202.891 208.202 203.169 203.506C203.44 199.4 206.421 194.355 211.805 191.091C204.091 195.35 201.503 202.359 203.427 208.296C205.466 214.719 215.33 222.591 234.65 215.943C235.985 207.982 238.017 190.301 238.017 190.301C238.017 190.301 235.392 186.662 226.838 187.078Z" fill="url(#paint94_radial_663_2431)"/>
</g>
<path d="M244.033 200.19C245.191 208.146 239.915 215.573 232.254 216.659C224.592 217.745 217.402 212.177 216.314 204.204C215.157 196.248 220.432 188.821 228.094 187.735C235.686 186.666 242.876 192.234 244.033 200.19Z" fill="url(#paint95_radial_663_2431)"/>
<path opacity="0.5" d="M241.564 199.674C242.463 205.928 238.193 211.72 232.022 212.598C225.851 213.477 220.135 209.176 219.236 202.922C218.337 196.668 222.607 190.876 228.778 189.998C234.933 189.05 240.665 193.42 241.564 199.674Z" fill="#4E5143"/>
<path opacity="0.5" d="M238.959 198.897C238.348 194.779 235.65 191.452 232.067 189.951C230.996 189.765 229.889 189.734 228.762 189.928C222.591 190.807 218.32 196.599 219.22 202.852C219.831 206.97 222.529 210.298 226.112 211.798C227.183 211.984 228.29 212.015 229.417 211.821C235.588 210.943 239.859 205.151 238.959 198.897Z" fill="url(#paint96_radial_663_2431)"/>
<path opacity="0.3" d="M223.018 211.431C223.018 211.431 226.991 215.19 233.453 213.067C239.985 210.927 241.416 206.765 242.044 204.779C242.672 202.792 244.391 211.57 234.762 215.181C226.228 218.458 220.929 210.972 223.018 211.431Z" fill="#7E7E7E"/>
<g opacity="0.4">
<path d="M227.46 198.028C226.002 198.374 225.173 199.821 225.503 201.212C225.85 202.673 227.295 203.506 228.683 203.176C230.141 202.83 230.97 201.383 230.64 199.992C230.293 198.531 228.848 197.698 227.46 198.028ZM228.518 202.48C227.477 202.728 226.445 202.091 226.197 201.047C225.949 200.004 226.584 198.971 227.625 198.724C228.666 198.476 229.698 199.113 229.946 200.157C230.194 201.2 229.559 202.233 228.518 202.48Z" fill="#4E5143"/>
</g>
<g opacity="0.3">
<path d="M242.169 199.751C241.984 197.737 241.144 195.438 238.529 192.458C232.966 186.945 225.384 190.216 223.691 191.427C222.068 192.621 220.759 192.05 222.977 190.274C227.238 186.91 232.143 187.802 233.852 188.204C232.024 187.61 230.018 187.498 227.955 187.768C220.293 188.854 215.018 196.281 216.175 204.237C217.333 212.194 224.453 217.778 232.115 216.692C239.777 215.606 245.052 208.179 243.894 200.223C243.716 199.163 243.468 198.12 243.098 197.179C244.592 201.307 242.374 201.54 242.169 199.751Z" fill="url(#paint97_radial_663_2431)"/>
</g>
<path opacity="0.5" d="M226.567 189.641C226.567 189.641 231.363 187.914 235.614 190.064C238.866 191.716 235.313 187.563 229.889 188.191C224.448 188.748 224.045 190.755 226.567 189.641Z" fill="url(#paint98_radial_663_2431)"/>
<path d="M222.508 188.916C222.508 188.916 209.551 191.48 206.176 200.734C204.203 205.392 202.153 190.592 222.508 188.916Z" fill="white"/>
<path opacity="0.4" d="M328.321 120.998C328.321 120.998 323.211 118.317 308.072 120.959C292.933 123.601 255.249 131.968 239.145 135.794C222.33 139.716 210.656 145.209 209.892 148.478C209.146 151.815 217.012 152.518 254.446 144.946C291.879 137.374 296.431 135.852 300.202 132.898C303.974 129.944 311.11 129.424 321.743 127.265C332.36 125.036 332.472 122.731 328.321 120.998Z" fill="white"/>
<path opacity="0.2" d="M335.948 144.762C335.948 144.762 345.5 138.671 353.843 146.316C356.646 149.472 326.63 149.99 335.948 144.762Z" fill="white"/>
<path d="M346.686 131.627C337.903 121.514 327.712 116.586 307.074 120.461C286.435 124.337 236.414 135.414 236.414 135.414C236.276 135.447 236.067 135.496 235.912 135.46L235.859 135.546C235.859 135.546 215.009 139.765 209.215 145.625C208.62 146.208 208.008 146.72 207.364 147.094C206.699 147.693 205.965 148.308 205.212 149.149C200.644 153.688 202.799 159.056 208.819 165.563C214.769 172.087 220.061 175.533 220.061 175.533L222.874 177.804L250.95 172.823C254.05 171.058 259.884 167.834 266.227 165.518C275.681 162.096 278.401 166.447 285.277 173.78C291.177 180.095 295.994 185.859 305.46 184.344C306.501 184.097 307.543 183.85 308.584 183.602L308.653 183.586C315.456 181.969 322.189 180.369 328.297 178.918C367.324 169.718 355.469 141.741 346.686 131.627Z" stroke="#CAD4DE" stroke-width="0.4128" stroke-miterlimit="10"/>
<path d="M235.79 135.562L235.843 135.476C232.157 135.397 225.741 127.22 221.206 118.008C216.485 108.326 197.437 70.4457 195.867 66.9236C194.297 63.4015 193.712 63.0995 190.866 63.7758C187.951 64.4685 187.951 64.4685 187.951 64.4685C187.951 64.4685 210.517 139.069 211.535 142.428C211.76 143.992 210.352 144.547 207.327 147.25C207.972 146.876 208.584 146.363 209.178 145.781C214.94 139.782 235.79 135.562 235.79 135.562Z" stroke="#CAD4DE" stroke-width="0.4128" stroke-miterlimit="10"/>
<path d="M209.635 157.579C209.817 158.344 209.982 159.04 210.184 159.58L129.949 170.34L131.73 168.888L206.548 156.622C207.605 156.444 207.82 154.262 208.99 153.322C208.99 153.322 209.242 155.614 209.635 157.579Z" fill="url(#paint99_linear_663_2431)"/>
<g opacity="0.5">
<path d="M210.184 159.58L128.491 170.686L129.592 169.763L207.12 158.103C208.247 157.909 208.921 156.425 208.904 153.269C209.443 157.698 210.184 159.58 210.184 159.58Z" fill="url(#paint100_linear_663_2431)"/>
</g>
<path d="M210.425 159.669L129.549 170.508L131.75 168.663L131.819 168.646L206.706 156.364C207.192 156.248 207.477 155.593 207.83 154.921C208.114 154.265 208.468 153.593 209.01 153.097L209.255 152.892L209.251 153.187C209.251 153.187 209.503 155.479 209.896 157.443C210.095 158.278 210.243 158.904 210.428 159.374L210.425 159.669ZM130.487 170.138L209.995 159.404C209.81 158.933 209.662 158.307 209.496 157.612C209.202 156.065 208.928 154.292 208.901 153.564C208.481 153.958 208.25 154.527 207.949 155.113C207.543 155.871 207.206 156.613 206.564 156.691L131.816 168.941L130.487 170.138Z" fill="#CAD4DE"/>
<path d="M262.793 170.817L222.821 177.89L220.008 175.619L28.0446 209.033L22.802 204.252L23.3475 206.548L26.0482 211.124L41.5142 208.625L41.9605 210.503L194.627 188.852L205.339 187.336L204.444 183.874L204.351 181.324L217.252 179.14L216.492 182.114L216.789 183.366C216.789 183.366 222.197 182.669 224.418 186.771L223.417 185.025C223.417 185.025 258.708 180.167 264.209 178.933C265.736 178.57 266.711 178.045 267.236 177.479C267.187 177.27 267.071 176.783 266.525 174.487C265.537 170.019 262.793 170.817 262.793 170.817Z" stroke="#CAD4DE" stroke-width="0.4128" stroke-miterlimit="10"/>
<path d="M285.224 173.866C278.349 166.533 275.559 162.199 266.175 165.604C259.832 167.92 254.051 171.058 250.897 172.909L262.793 170.817C262.793 170.817 265.537 170.019 266.578 174.401C267.62 178.784 267.058 176.419 267.62 178.784C268.198 181.219 267.408 183.758 261.204 184.498C255 185.237 247.893 186.191 247.893 186.191L246.518 188.428C246.786 189.247 249.031 194.372 266.953 192.025C277.543 190.611 291.561 187.574 305.391 184.361C295.941 185.945 291.141 180.25 285.224 173.866Z" stroke="#CAD4DE" stroke-width="0.4128" stroke-miterlimit="10"/>
<path d="M236.919 169.322C228.804 176.836 220.659 176.199 215.41 172.008C215.136 171.779 214.878 171.62 214.69 171.444C217.827 174.153 220.008 175.619 220.008 175.619L222.821 177.89L250.897 172.909C253.545 171.398 258.159 168.905 263.358 166.714C255.842 161.004 244.018 162.785 236.919 169.322Z" fill="url(#paint101_linear_663_2431)"/>
<g opacity="0.5">
<path d="M318.252 179.541C281.635 182.215 286.42 153.591 261.583 162.947C240.32 171.601 225.912 173.922 218.342 174.471C219.407 175.247 220.008 175.619 220.008 175.619L222.821 177.89L250.897 172.909C253.998 171.144 259.832 167.92 266.175 165.604C275.628 162.182 278.349 166.533 285.224 173.866C291.125 180.181 295.941 185.945 305.408 184.43C306.449 184.183 307.49 183.936 308.531 183.688L308.601 183.672C315.403 182.055 322.136 180.455 328.244 179.004C339.281 176.382 346.232 172.304 350.301 167.516C343.657 173.504 332.865 177.465 318.252 179.541Z" fill="url(#paint102_linear_663_2431)"/>
</g>
</g>
<defs>
<filter id="filter0_dddd_663_2431" x="-2" y="-1" width="499.015" height="272.278" filterUnits="userSpaceOnUse" color-interpolation-filters="sRGB">
<feFlood flood-opacity="0" result="BackgroundImageFix"/>
<feColorMatrix in="SourceAlpha" type="matrix" values="0 0 0 0 0 0 0 0 0 0 0 0 0 0 0 0 0 0 127 0" result="hardAlpha"/>
<feOffset/>
<feGaussianBlur stdDeviation="0.5"/>
<feColorMatrix type="matrix" values="0 0 0 0 0.211765 0 0 0 0 0.34902 0 0 0 0 0.886275 0 0 0 0.1 0"/>
<feBlend mode="normal" in2="BackgroundImageFix" result="effect1_dropShadow_663_2431"/>
<feColorMatrix in="SourceAlpha" type="matrix" values="0 0 0 0 0 0 0 0 0 0 0 0 0 0 0 0 0 0 127 0" result="hardAlpha"/>
<feOffset dy="2"/>
<feGaussianBlur stdDeviation="1"/>
<feColorMatrix type="matrix" values="0 0 0 0 0.211765 0 0 0 0 0.34902 0 0 0 0 0.886275 0 0 0 0.09 0"/>
<feBlend mode="normal" in2="effect1_dropShadow_663_2431" result="effect2_dropShadow_663_2431"/>
<feColorMatrix in="SourceAlpha" type="matrix" values="0 0 0 0 0 0 0 0 0 0 0 0 0 0 0 0 0 0 127 0" result="hardAlpha"/>
<feOffset dy="4"/>
<feGaussianBlur stdDeviation="1"/>
<feColorMatrix type="matrix" values="0 0 0 0 0.211765 0 0 0 0 0.34902 0 0 0 0 0.886275 0 0 0 0.05 0"/>
<feBlend mode="normal" in2="effect2_dropShadow_663_2431" result="effect3_dropShadow_663_2431"/>
<feColorMatrix in="SourceAlpha" type="matrix" values="0 0 0 0 0 0 0 0 0 0 0 0 0 0 0 0 0 0 127 0" result="hardAlpha"/>
<feOffset dy="6"/>
<feGaussianBlur stdDeviation="1"/>
<feColorMatrix type="matrix" values="0 0 0 0 0.211765 0 0 0 0 0.34902 0 0 0 0 0.886275 0 0 0 0.01 0"/>
<feBlend mode="normal" in2="effect3_dropShadow_663_2431" result="effect4_dropShadow_663_2431"/>
<feBlend mode="normal" in="SourceGraphic" in2="effect4_dropShadow_663_2431" result="shape"/>
</filter>
<radialGradient id="paint0_radial_663_2431" cx="0" cy="0" r="1" gradientUnits="userSpaceOnUse" gradientTransform="translate(482.02 110.582) rotate(-13.3666) scale(5.6046 5.51817)">
<stop offset="0.2084" stop-color="#FCFCFC"/>
<stop offset="0.4646" stop-color="#D9E0E7"/>
<stop offset="0.5634" stop-color="#CAD4DE"/>
<stop offset="0.6733" stop-color="#C7D1DC"/>
<stop offset="0.768" stop-color="#BCC7D5"/>
<stop offset="0.8571" stop-color="#AAB6CA"/>
<stop offset="0.9422" stop-color="#919EBA"/>
<stop offset="1" stop-color="#7C8AAD"/>
</radialGradient>
<radialGradient id="paint1_radial_663_2431" cx="0" cy="0" r="1" gradientUnits="userSpaceOnUse" gradientTransform="translate(384.351 139.671) rotate(-13.3666) scale(10.3626 10.2028)">
<stop offset="0.1808" stop-color="#9CA09A"/>
<stop offset="0.5756" stop-color="#4F5650"/>
<stop offset="0.722" stop-color="#4A4F4B"/>
<stop offset="0.9276" stop-color="#3B3D3C"/>
<stop offset="1" stop-color="#343535"/>
</radialGradient>
<radialGradient id="paint2_radial_663_2431" cx="0" cy="0" r="1" gradientUnits="userSpaceOnUse" gradientTransform="translate(384.351 139.671) rotate(-13.3666) scale(10.3635 10.2037)">
<stop offset="0.1808" stop-color="#9CA09A"/>
<stop offset="0.5756" stop-color="#4F5650"/>
<stop offset="0.722" stop-color="#4A4F4B"/>
<stop offset="0.9276" stop-color="#3B3D3C"/>
<stop offset="1" stop-color="#343535"/>
</radialGradient>
<radialGradient id="paint3_radial_663_2431" cx="0" cy="0" r="1" gradientUnits="userSpaceOnUse" gradientTransform="translate(426.074 123.743) rotate(-13.3666) scale(10.3636 10.2038)">
<stop offset="0.1808" stop-color="#9CA09A"/>
<stop offset="0.5756" stop-color="#4F5650"/>
<stop offset="0.722" stop-color="#4A4F4B"/>
<stop offset="0.9276" stop-color="#3B3D3C"/>
<stop offset="1" stop-color="#343535"/>
</radialGradient>
<radialGradient id="paint4_radial_663_2431" cx="0" cy="0" r="1" gradientUnits="userSpaceOnUse" gradientTransform="translate(426.075 123.743) rotate(-13.3666) scale(10.3628 10.203)">
<stop offset="0.1808" stop-color="#9CA09A"/>
<stop offset="0.5756" stop-color="#4F5650"/>
<stop offset="0.722" stop-color="#4A4F4B"/>
<stop offset="0.9276" stop-color="#3B3D3C"/>
<stop offset="1" stop-color="#343535"/>
</radialGradient>
<radialGradient id="paint5_radial_663_2431" cx="0" cy="0" r="1" gradientUnits="userSpaceOnUse" gradientTransform="translate(358.078 173.28) rotate(-13.3666) scale(16.8998 16.6391)">
<stop offset="0.1808" stop-color="#9CA09A"/>
<stop offset="0.5756" stop-color="#4F5650"/>
<stop offset="0.722" stop-color="#4A4F4B"/>
<stop offset="0.9276" stop-color="#3B3D3C"/>
<stop offset="1" stop-color="#343535"/>
</radialGradient>
<radialGradient id="paint6_radial_663_2431" cx="0" cy="0" r="1" gradientUnits="userSpaceOnUse" gradientTransform="translate(358.078 173.28) rotate(-13.3666) scale(16.8997 16.6391)">
<stop offset="0.1808" stop-color="#9CA09A"/>
<stop offset="0.5756" stop-color="#4F5650"/>
<stop offset="0.722" stop-color="#4A4F4B"/>
<stop offset="0.9276" stop-color="#3B3D3C"/>
<stop offset="1" stop-color="#343535"/>
</radialGradient>
<radialGradient id="paint7_radial_663_2431" cx="0" cy="0" r="1" gradientUnits="userSpaceOnUse" gradientTransform="translate(481.956 97.1336) rotate(-13.3666) scale(7.80157 7.68126)">
<stop offset="0.2084" stop-color="#FCFCFC"/>
<stop offset="0.4646" stop-color="#D9E0E7"/>
<stop offset="0.5634" stop-color="#CAD4DE"/>
<stop offset="0.6733" stop-color="#C7D1DC"/>
<stop offset="0.768" stop-color="#BCC7D5"/>
<stop offset="0.8571" stop-color="#AAB6CA"/>
<stop offset="0.9422" stop-color="#919EBA"/>
<stop offset="1" stop-color="#7C8AAD"/>
</radialGradient>
<linearGradient id="paint8_linear_663_2431" x1="417.398" y1="130.182" x2="414.492" y2="122.004" gradientUnits="userSpaceOnUse">
<stop stop-color="#FCFCFC"/>
<stop offset="0.3719" stop-color="#D9E0E7"/>
<stop offset="0.5153" stop-color="#CAD4DE"/>
<stop offset="0.6477" stop-color="#C7D1DC"/>
<stop offset="0.7501" stop-color="#BDC8D6"/>
<stop offset="0.8424" stop-color="#ADB8CC"/>
<stop offset="0.9283" stop-color="#96A2BD"/>
<stop offset="1" stop-color="#7C8AAD"/>
</linearGradient>
<linearGradient id="paint9_linear_663_2431" x1="479.874" y1="101.209" x2="479.567" y2="102.842" gradientUnits="userSpaceOnUse">
<stop stop-color="#FCFCFC"/>
<stop offset="0.4019" stop-color="#D9E0E7"/>
<stop offset="0.557" stop-color="#CAD4DE"/>
<stop offset="0.6685" stop-color="#C7D1DC"/>
<stop offset="0.7646" stop-color="#BCC7D5"/>
<stop offset="0.855" stop-color="#AAB6CA"/>
<stop offset="0.9413" stop-color="#919EBA"/>
<stop offset="1" stop-color="#7C8AAD"/>
</linearGradient>
<linearGradient id="paint10_linear_663_2431" x1="417.398" y1="130.182" x2="415.048" y2="123.569" gradientUnits="userSpaceOnUse">
<stop offset="0.0597298" stop-color="#F0F5F8"/>
<stop offset="0.1349" stop-color="#F7F9FA"/>
<stop offset="0.2428" stop-color="#FCFCFC"/>
<stop offset="0.3067" stop-color="#F5F8FA"/>
<stop offset="0.3985" stop-color="#F0F5F8"/>
<stop offset="0.4719" stop-color="#DCE4EA"/>
<stop offset="0.5481" stop-color="#CFD8E1"/>
<stop offset="0.6167" stop-color="#CAD4DE"/>
<stop offset="0.7113" stop-color="#AEB9CC"/>
<stop offset="0.8242" stop-color="#929FBB"/>
<stop offset="0.9241" stop-color="#8290B1"/>
<stop offset="1" stop-color="#7C8AAD"/>
</linearGradient>
<radialGradient id="paint11_radial_663_2431" cx="0" cy="0" r="1" gradientUnits="userSpaceOnUse" gradientTransform="translate(371.184 154.528) rotate(-13.3666) scale(12.9779 12.7778)">
<stop offset="0.2084" stop-color="#FCFCFC"/>
<stop offset="0.4646" stop-color="#D9E0E7"/>
<stop offset="0.5634" stop-color="#CAD4DE"/>
<stop offset="0.6733" stop-color="#C7D1DC"/>
<stop offset="0.768" stop-color="#BCC7D5"/>
<stop offset="0.8571" stop-color="#AAB6CA"/>
<stop offset="0.9422" stop-color="#919EBA"/>
<stop offset="1" stop-color="#7C8AAD"/>
</radialGradient>
<radialGradient id="paint12_radial_663_2431" cx="0" cy="0" r="1" gradientUnits="userSpaceOnUse" gradientTransform="translate(481.736 102.096) rotate(-13.3666) scale(1.84081 1.81237)">
<stop stop-color="#E92C30"/>
<stop offset="0.1605" stop-color="#DF2C30"/>
<stop offset="0.435" stop-color="#C32C30"/>
<stop offset="0.6457" stop-color="#AA2C30"/>
<stop offset="0.7537" stop-color="#98282A"/>
<stop offset="0.8936" stop-color="#882324"/>
<stop offset="1" stop-color="#822222"/>
</radialGradient>
<radialGradient id="paint13_radial_663_2431" cx="0" cy="0" r="1" gradientUnits="userSpaceOnUse" gradientTransform="translate(481.953 97.1308) rotate(-13.3666) scale(7.8065 7.68612)">
<stop offset="0.2084" stop-color="#FCFCFC"/>
<stop offset="0.4646" stop-color="#D9E0E7"/>
<stop offset="0.5634" stop-color="#CAD4DE"/>
<stop offset="0.6733" stop-color="#C7D1DC"/>
<stop offset="0.768" stop-color="#BCC7D5"/>
<stop offset="0.8571" stop-color="#AAB6CA"/>
<stop offset="0.9422" stop-color="#919EBA"/>
<stop offset="1" stop-color="#7C8AAD"/>
</radialGradient>
<radialGradient id="paint14_radial_663_2431" cx="0" cy="0" r="1" gradientUnits="userSpaceOnUse" gradientTransform="translate(371.184 154.528) rotate(-13.3666) scale(12.9779 12.7778)">
<stop offset="0.2084" stop-color="#FCFCFC"/>
<stop offset="0.4646" stop-color="#D9E0E7"/>
<stop offset="0.5634" stop-color="#CAD4DE"/>
<stop offset="0.6733" stop-color="#C7D1DC"/>
<stop offset="0.768" stop-color="#BCC7D5"/>
<stop offset="0.8571" stop-color="#AAB6CA"/>
<stop offset="0.9422" stop-color="#919EBA"/>
<stop offset="1" stop-color="#7C8AAD"/>
</radialGradient>
<radialGradient id="paint15_radial_663_2431" cx="0" cy="0" r="1" gradientUnits="userSpaceOnUse" gradientTransform="translate(374.877 157.007) rotate(-13.3666) scale(17.4727 17.2032)">
<stop offset="0.2084" stop-color="#FCFCFC"/>
<stop offset="0.4646" stop-color="#D9E0E7"/>
<stop offset="0.5634" stop-color="#CAD4DE"/>
<stop offset="0.6489" stop-color="#C3CEDA"/>
<stop offset="0.7693" stop-color="#B1BCCE"/>
<stop offset="0.9097" stop-color="#93A0BC"/>
<stop offset="1" stop-color="#7C8AAD"/>
</radialGradient>
<radialGradient id="paint16_radial_663_2431" cx="0" cy="0" r="1" gradientUnits="userSpaceOnUse" gradientTransform="translate(374.877 157.006) rotate(-13.3666) scale(17.4739 17.2044)">
<stop offset="0.2084" stop-color="#FCFCFC"/>
<stop offset="0.4646" stop-color="#D9E0E7"/>
<stop offset="0.5634" stop-color="#CAD4DE"/>
<stop offset="0.6489" stop-color="#C3CEDA"/>
<stop offset="0.7693" stop-color="#B1BCCE"/>
<stop offset="0.9097" stop-color="#93A0BC"/>
<stop offset="1" stop-color="#7C8AAD"/>
</radialGradient>
<radialGradient id="paint17_radial_663_2431" cx="0" cy="0" r="1" gradientUnits="userSpaceOnUse" gradientTransform="translate(378.68 153.547) rotate(-13.3666) scale(26.6099 26.1995)">
<stop offset="0.2084" stop-color="#FCFCFC"/>
<stop offset="0.4646" stop-color="#D9E0E7"/>
<stop offset="0.5634" stop-color="#CAD4DE"/>
<stop offset="0.6489" stop-color="#C3CEDA"/>
<stop offset="0.7693" stop-color="#B1BCCE"/>
<stop offset="0.9097" stop-color="#93A0BC"/>
<stop offset="1" stop-color="#7C8AAD"/>
</radialGradient>
<radialGradient id="paint18_radial_663_2431" cx="0" cy="0" r="1" gradientUnits="userSpaceOnUse" gradientTransform="translate(378.681 153.549) rotate(-13.3666) scale(26.6083 26.1978)">
<stop offset="0.2084" stop-color="#FCFCFC"/>
<stop offset="0.4646" stop-color="#D9E0E7"/>
<stop offset="0.5634" stop-color="#CAD4DE"/>
<stop offset="0.6489" stop-color="#C3CEDA"/>
<stop offset="0.7693" stop-color="#B1BCCE"/>
<stop offset="0.9097" stop-color="#93A0BC"/>
<stop offset="1" stop-color="#7C8AAD"/>
</radialGradient>
<radialGradient id="paint19_radial_663_2431" cx="0" cy="0" r="1" gradientUnits="userSpaceOnUse" gradientTransform="translate(388.625 155.089) rotate(-13.3666) scale(27.7474 27.7373)">
<stop offset="0.1808" stop-color="#9CA09A"/>
<stop offset="0.5756" stop-color="#4F5650"/>
<stop offset="0.722" stop-color="#4A4F4B"/>
<stop offset="0.9276" stop-color="#3B3D3C"/>
<stop offset="1" stop-color="#343535"/>
</radialGradient>
<radialGradient id="paint20_radial_663_2431" cx="0" cy="0" r="1" gradientUnits="userSpaceOnUse" gradientTransform="translate(398.918 162.412) rotate(-13.3666) scale(26.024 26.0145)">
<stop stop-color="#343535"/>
<stop offset="0.1839" stop-color="#2D2E2D"/>
<stop offset="0.6133" stop-color="#212120"/>
<stop offset="1" stop-color="#1D1D1B"/>
</radialGradient>
<radialGradient id="paint21_radial_663_2431" cx="0" cy="0" r="1" gradientUnits="userSpaceOnUse" gradientTransform="translate(388.626 155.089) rotate(-13.3666) scale(27.7471 27.737)">
<stop offset="0.1808" stop-color="#9CA09A"/>
<stop offset="0.5756" stop-color="#4F5650"/>
<stop offset="0.722" stop-color="#4A4F4B"/>
<stop offset="0.9276" stop-color="#3B3D3C"/>
<stop offset="1" stop-color="#343535"/>
</radialGradient>
<radialGradient id="paint22_radial_663_2431" cx="0" cy="0" r="1" gradientUnits="userSpaceOnUse" gradientTransform="translate(389.067 150.286) rotate(-13.3666) scale(5.78689 5.78479)">
<stop offset="0.1808" stop-color="#9CA09A"/>
<stop offset="0.5756" stop-color="#4F5650"/>
<stop offset="0.722" stop-color="#4A4F4B"/>
<stop offset="0.9276" stop-color="#3B3D3C"/>
<stop offset="1" stop-color="#343535"/>
</radialGradient>
<linearGradient id="paint23_linear_663_2431" x1="276.027" y1="126.973" x2="283.475" y2="191.866" gradientUnits="userSpaceOnUse">
<stop offset="0.0597298" stop-color="#F0F5F8"/>
<stop offset="0.1349" stop-color="#F7F9FA"/>
<stop offset="0.2428" stop-color="#FCFCFC"/>
<stop offset="0.3067" stop-color="#F5F8FA"/>
<stop offset="0.3985" stop-color="#F0F5F8"/>
<stop offset="0.4719" stop-color="#DCE4EA"/>
<stop offset="0.5481" stop-color="#CFD8E1"/>
<stop offset="0.6167" stop-color="#CAD4DE"/>
<stop offset="0.7113" stop-color="#AEB9CC"/>
<stop offset="0.8242" stop-color="#929FBB"/>
<stop offset="0.9241" stop-color="#8290B1"/>
<stop offset="1" stop-color="#7C8AAD"/>
</linearGradient>
<radialGradient id="paint24_radial_663_2431" cx="0" cy="0" r="1" gradientUnits="userSpaceOnUse" gradientTransform="translate(339.236 143.474) rotate(-13.3666) scale(27.6551 27.2286)">
<stop offset="0.2084" stop-color="#FCFCFC"/>
<stop offset="0.5686" stop-color="#D9E0E7"/>
<stop offset="0.7076" stop-color="#CAD4DE"/>
<stop offset="0.7812" stop-color="#C7D1DC"/>
<stop offset="0.8446" stop-color="#BCC7D5"/>
<stop offset="0.9043" stop-color="#AAB6CA"/>
<stop offset="0.9613" stop-color="#919EBA"/>
<stop offset="1" stop-color="#7C8AAD"/>
</radialGradient>
<linearGradient id="paint25_linear_663_2431" x1="238.371" y1="137.373" x2="246.263" y2="170.583" gradientUnits="userSpaceOnUse">
<stop offset="0.0177774" stop-color="#AA2C30"/>
<stop offset="0.0733403" stop-color="#B72C30"/>
<stop offset="0.2076" stop-color="#D32C30"/>
<stop offset="0.3265" stop-color="#E32C30"/>
<stop offset="0.4167" stop-color="#E92C30"/>
<stop offset="0.5617" stop-color="#DF2C30"/>
<stop offset="0.8096" stop-color="#C32C30"/>
<stop offset="1" stop-color="#AA2C30"/>
</linearGradient>
<linearGradient id="paint26_linear_663_2431" x1="232.083" y1="140.367" x2="239.793" y2="172.816" gradientUnits="userSpaceOnUse">
<stop stop-color="#812C30"/>
<stop offset="0.103" stop-color="#8B2C30"/>
<stop offset="0.2792" stop-color="#A72C30"/>
<stop offset="0.4244" stop-color="#C22C30"/>
<stop offset="0.5456" stop-color="#AE2C30"/>
<stop offset="0.7637" stop-color="#812C30"/>
<stop offset="0.8247" stop-color="#772C30"/>
<stop offset="0.9289" stop-color="#5B2C30"/>
<stop offset="1" stop-color="#452C30"/>
</linearGradient>
<linearGradient id="paint27_linear_663_2431" x1="259.973" y1="162.493" x2="335.442" y2="144.56" gradientUnits="userSpaceOnUse">
<stop offset="0.0177774" stop-color="#AA2C30"/>
<stop offset="0.0733403" stop-color="#B72C30"/>
<stop offset="0.2076" stop-color="#D32C30"/>
<stop offset="0.3265" stop-color="#E32C30"/>
<stop offset="0.4167" stop-color="#E92C30"/>
<stop offset="0.5617" stop-color="#DF2C30"/>
<stop offset="0.8096" stop-color="#C32C30"/>
<stop offset="1" stop-color="#AA2C30"/>
</linearGradient>
<linearGradient id="paint28_linear_663_2431" x1="297.829" y1="123.243" x2="305.72" y2="156.453" gradientUnits="userSpaceOnUse">
<stop offset="0.0177774" stop-color="#AA2C30"/>
<stop offset="0.0733403" stop-color="#B72C30"/>
<stop offset="0.2076" stop-color="#D32C30"/>
<stop offset="0.3265" stop-color="#E32C30"/>
<stop offset="0.4167" stop-color="#E92C30"/>
<stop offset="0.5271" stop-color="#DF2B2F"/>
<stop offset="0.7165" stop-color="#C3292C"/>
<stop offset="0.9607" stop-color="#972728"/>
<stop offset="1" stop-color="#8F2627"/>
</linearGradient>
<linearGradient id="paint29_linear_663_2431" x1="324.208" y1="132.743" x2="327.314" y2="146.448" gradientUnits="userSpaceOnUse">
<stop stop-color="#CAD4DE"/>
<stop offset="0.00138621" stop-color="#CAD4DE"/>
<stop offset="0.0984879" stop-color="#E6EAEF"/>
<stop offset="0.1844" stop-color="#F6F7F8"/>
<stop offset="0.2496" stop-color="#FCFCFC"/>
<stop offset="0.3108" stop-color="#F5F8FA"/>
<stop offset="0.3985" stop-color="#F0F5F8"/>
<stop offset="0.4719" stop-color="#DCE4EA"/>
<stop offset="0.5481" stop-color="#CFD8E1"/>
<stop offset="0.6167" stop-color="#CAD4DE"/>
<stop offset="0.7113" stop-color="#AEB9CC"/>
<stop offset="0.8242" stop-color="#929FBB"/>
<stop offset="0.9241" stop-color="#8290B1"/>
<stop offset="1" stop-color="#7C8AAD"/>
</linearGradient>
<radialGradient id="paint30_radial_663_2431" cx="0" cy="0" r="1" gradientUnits="userSpaceOnUse" gradientTransform="translate(271.508 161.775) rotate(-13.3666) scale(35.5235 34.9755)">
<stop offset="0.2084" stop-color="#FCFCFC"/>
<stop offset="0.4646" stop-color="#D9E0E7"/>
<stop offset="0.5634" stop-color="#CAD4DE"/>
<stop offset="0.6489" stop-color="#C3CEDA"/>
<stop offset="0.7693" stop-color="#B1BCCE"/>
<stop offset="0.9097" stop-color="#93A0BC"/>
<stop offset="1" stop-color="#7C8AAD"/>
</radialGradient>
<linearGradient id="paint31_linear_663_2431" x1="334.205" y1="136.001" x2="345.576" y2="133.298" gradientUnits="userSpaceOnUse">
<stop offset="0.0789421" stop-color="#2F4054"/>
<stop offset="1" stop-color="#100F1F"/>
</linearGradient>
<linearGradient id="paint32_linear_663_2431" x1="320.68" y1="139.063" x2="334.266" y2="135.835" gradientUnits="userSpaceOnUse">
<stop offset="0.0789421" stop-color="#2F4054"/>
<stop offset="1" stop-color="#100F1F"/>
</linearGradient>
<linearGradient id="paint33_linear_663_2431" x1="311.116" y1="141.788" x2="319.494" y2="139.797" gradientUnits="userSpaceOnUse">
<stop offset="0.0789421" stop-color="#2F4054"/>
<stop offset="1" stop-color="#100F1F"/>
</linearGradient>
<linearGradient id="paint34_linear_663_2431" x1="305.45" y1="143.335" x2="314.081" y2="141.284" gradientUnits="userSpaceOnUse">
<stop offset="0.0789421" stop-color="#2F4054"/>
<stop offset="1" stop-color="#100F1F"/>
</linearGradient>
<linearGradient id="paint35_linear_663_2431" x1="289.736" y1="147.524" x2="304.856" y2="143.931" gradientUnits="userSpaceOnUse">
<stop offset="0.0597298" stop-color="#F0F5F8"/>
<stop offset="0.1349" stop-color="#F7F9FA"/>
<stop offset="0.2428" stop-color="#FCFCFC"/>
<stop offset="0.3067" stop-color="#F5F8FA"/>
<stop offset="0.3985" stop-color="#F0F5F8"/>
<stop offset="0.4719" stop-color="#DCE4EA"/>
<stop offset="0.5481" stop-color="#CFD8E1"/>
<stop offset="0.6167" stop-color="#CAD4DE"/>
<stop offset="0.7113" stop-color="#AEB9CC"/>
<stop offset="0.8242" stop-color="#929FBB"/>
<stop offset="0.9241" stop-color="#8290B1"/>
<stop offset="1" stop-color="#7C8AAD"/>
</linearGradient>
<linearGradient id="paint36_linear_663_2431" x1="293.811" y1="162.291" x2="299.09" y2="161.037" gradientUnits="userSpaceOnUse">
<stop offset="0.0789421" stop-color="#2F4054"/>
<stop offset="1" stop-color="#100F1F"/>
</linearGradient>
<linearGradient id="paint37_linear_663_2431" x1="287.228" y1="147.828" x2="288.825" y2="147.449" gradientUnits="userSpaceOnUse">
<stop offset="0.0789421" stop-color="#2F4054"/>
<stop offset="1" stop-color="#100F1F"/>
</linearGradient>
<linearGradient id="paint38_linear_663_2431" x1="284.865" y1="148.164" x2="286.462" y2="147.785" gradientUnits="userSpaceOnUse">
<stop offset="0.0789421" stop-color="#2F4054"/>
<stop offset="1" stop-color="#100F1F"/>
</linearGradient>
<linearGradient id="paint39_linear_663_2431" x1="282.68" y1="148.609" x2="284.276" y2="148.229" gradientUnits="userSpaceOnUse">
<stop offset="0.0789421" stop-color="#2F4054"/>
<stop offset="1" stop-color="#100F1F"/>
</linearGradient>
<linearGradient id="paint40_linear_663_2431" x1="280.566" y1="149.035" x2="282.164" y2="148.655" gradientUnits="userSpaceOnUse">
<stop offset="0.0789421" stop-color="#2F4054"/>
<stop offset="1" stop-color="#100F1F"/>
</linearGradient>
<linearGradient id="paint41_linear_663_2431" x1="278.453" y1="149.462" x2="280.051" y2="149.083" gradientUnits="userSpaceOnUse">
<stop offset="0.0789421" stop-color="#2F4054"/>
<stop offset="1" stop-color="#100F1F"/>
</linearGradient>
<linearGradient id="paint42_linear_663_2431" x1="276.263" y1="149.882" x2="277.86" y2="149.503" gradientUnits="userSpaceOnUse">
<stop offset="0.0789421" stop-color="#2F4054"/>
<stop offset="1" stop-color="#100F1F"/>
</linearGradient>
<linearGradient id="paint43_linear_663_2431" x1="274.011" y1="150.266" x2="275.609" y2="149.886" gradientUnits="userSpaceOnUse">
<stop offset="0.0789421" stop-color="#2F4054"/>
<stop offset="1" stop-color="#100F1F"/>
</linearGradient>
<linearGradient id="paint44_linear_663_2431" x1="271.918" y1="150.663" x2="273.515" y2="150.284" gradientUnits="userSpaceOnUse">
<stop offset="0.0789421" stop-color="#2F4054"/>
<stop offset="1" stop-color="#100F1F"/>
</linearGradient>
<linearGradient id="paint45_linear_663_2431" x1="269.63" y1="151.108" x2="271.227" y2="150.728" gradientUnits="userSpaceOnUse">
<stop offset="0.0789421" stop-color="#2F4054"/>
<stop offset="1" stop-color="#100F1F"/>
</linearGradient>
<linearGradient id="paint46_linear_663_2431" x1="267.548" y1="151.552" x2="269.144" y2="151.172" gradientUnits="userSpaceOnUse">
<stop offset="0.0789421" stop-color="#2F4054"/>
<stop offset="1" stop-color="#100F1F"/>
</linearGradient>
<linearGradient id="paint47_linear_663_2431" x1="265.26" y1="151.996" x2="266.856" y2="151.616" gradientUnits="userSpaceOnUse">
<stop offset="0.0789421" stop-color="#2F4054"/>
<stop offset="1" stop-color="#100F1F"/>
</linearGradient>
<linearGradient id="paint48_linear_663_2431" x1="263.085" y1="152.262" x2="264.681" y2="151.883" gradientUnits="userSpaceOnUse">
<stop offset="0.0789421" stop-color="#2F4054"/>
<stop offset="1" stop-color="#100F1F"/>
</linearGradient>
<linearGradient id="paint49_linear_663_2431" x1="260.086" y1="152.925" x2="261.683" y2="152.545" gradientUnits="userSpaceOnUse">
<stop offset="0.0789421" stop-color="#2F4054"/>
<stop offset="1" stop-color="#100F1F"/>
</linearGradient>
<linearGradient id="paint50_linear_663_2431" x1="256.761" y1="153.715" x2="258.358" y2="153.335" gradientUnits="userSpaceOnUse">
<stop offset="0.0789421" stop-color="#2F4054"/>
<stop offset="1" stop-color="#100F1F"/>
</linearGradient>
<linearGradient id="paint51_linear_663_2431" x1="254.204" y1="153.872" x2="255.799" y2="153.492" gradientUnits="userSpaceOnUse">
<stop offset="0.0789421" stop-color="#2F4054"/>
<stop offset="1" stop-color="#100F1F"/>
</linearGradient>
<linearGradient id="paint52_linear_663_2431" x1="251.89" y1="154.421" x2="253.487" y2="154.042" gradientUnits="userSpaceOnUse">
<stop offset="0.0789421" stop-color="#2F4054"/>
<stop offset="1" stop-color="#100F1F"/>
</linearGradient>
<linearGradient id="paint53_linear_663_2431" x1="250.139" y1="154.762" x2="251.736" y2="154.383" gradientUnits="userSpaceOnUse">
<stop offset="0.0789421" stop-color="#2F4054"/>
<stop offset="1" stop-color="#100F1F"/>
</linearGradient>
<linearGradient id="paint54_linear_663_2431" x1="247.937" y1="155.137" x2="249.535" y2="154.757" gradientUnits="userSpaceOnUse">
<stop offset="0.0789421" stop-color="#2F4054"/>
<stop offset="1" stop-color="#100F1F"/>
</linearGradient>
<linearGradient id="paint55_linear_663_2431" x1="246.185" y1="155.476" x2="247.782" y2="155.097" gradientUnits="userSpaceOnUse">
<stop offset="0.0789421" stop-color="#2F4054"/>
<stop offset="1" stop-color="#100F1F"/>
</linearGradient>
<linearGradient id="paint56_linear_663_2431" x1="244.072" y1="155.903" x2="245.668" y2="155.523" gradientUnits="userSpaceOnUse">
<stop offset="0.0789421" stop-color="#2F4054"/>
<stop offset="1" stop-color="#100F1F"/>
</linearGradient>
<linearGradient id="paint57_linear_663_2431" x1="241.814" y1="156.365" x2="243.411" y2="155.985" gradientUnits="userSpaceOnUse">
<stop offset="0.0789421" stop-color="#2F4054"/>
<stop offset="1" stop-color="#100F1F"/>
</linearGradient>
<linearGradient id="paint58_linear_663_2431" x1="239.685" y1="156.72" x2="241.282" y2="156.341" gradientUnits="userSpaceOnUse">
<stop offset="0.0789421" stop-color="#2F4054"/>
<stop offset="1" stop-color="#100F1F"/>
</linearGradient>
<linearGradient id="paint59_linear_663_2431" x1="237.861" y1="157.078" x2="239.457" y2="156.699" gradientUnits="userSpaceOnUse">
<stop offset="0.0789421" stop-color="#2F4054"/>
<stop offset="1" stop-color="#100F1F"/>
</linearGradient>
<linearGradient id="paint60_linear_663_2431" x1="235.343" y1="157.448" x2="236.804" y2="157.101" gradientUnits="userSpaceOnUse">
<stop offset="0.0789421" stop-color="#2F4054"/>
<stop offset="1" stop-color="#100F1F"/>
</linearGradient>
<linearGradient id="paint61_linear_663_2431" x1="233.537" y1="157.738" x2="234.999" y2="157.39" gradientUnits="userSpaceOnUse">
<stop offset="0.0789421" stop-color="#2F4054"/>
<stop offset="1" stop-color="#100F1F"/>
</linearGradient>
<linearGradient id="paint62_linear_663_2431" x1="231.504" y1="158.077" x2="232.965" y2="157.73" gradientUnits="userSpaceOnUse">
<stop offset="0.0789421" stop-color="#2F4054"/>
<stop offset="1" stop-color="#100F1F"/>
</linearGradient>
<linearGradient id="paint63_linear_663_2431" x1="229.591" y1="158.615" x2="231.054" y2="158.267" gradientUnits="userSpaceOnUse">
<stop offset="0.0789421" stop-color="#2F4054"/>
<stop offset="1" stop-color="#100F1F"/>
</linearGradient>
<linearGradient id="paint64_linear_663_2431" x1="227.934" y1="158.932" x2="229.394" y2="158.585" gradientUnits="userSpaceOnUse">
<stop offset="0.0789421" stop-color="#2F4054"/>
<stop offset="1" stop-color="#100F1F"/>
</linearGradient>
<linearGradient id="paint65_linear_663_2431" x1="226.1" y1="159.156" x2="227.561" y2="158.809" gradientUnits="userSpaceOnUse">
<stop offset="0.0789421" stop-color="#2F4054"/>
<stop offset="1" stop-color="#100F1F"/>
</linearGradient>
<linearGradient id="paint66_linear_663_2431" x1="224.148" y1="159.55" x2="225.609" y2="159.202" gradientUnits="userSpaceOnUse">
<stop offset="0.0789421" stop-color="#2F4054"/>
<stop offset="1" stop-color="#100F1F"/>
</linearGradient>
<linearGradient id="paint67_linear_663_2431" x1="222.092" y1="159.827" x2="223.554" y2="159.479" gradientUnits="userSpaceOnUse">
<stop offset="0.0789421" stop-color="#2F4054"/>
<stop offset="1" stop-color="#100F1F"/>
</linearGradient>
<linearGradient id="paint68_linear_663_2431" x1="220.408" y1="160.17" x2="221.869" y2="159.822" gradientUnits="userSpaceOnUse">
<stop offset="0.0789421" stop-color="#2F4054"/>
<stop offset="1" stop-color="#100F1F"/>
</linearGradient>
<linearGradient id="paint69_linear_663_2431" x1="218.584" y1="160.46" x2="220.045" y2="160.113" gradientUnits="userSpaceOnUse">
<stop offset="0.0789421" stop-color="#2F4054"/>
<stop offset="1" stop-color="#100F1F"/>
</linearGradient>
<linearGradient id="paint70_linear_663_2431" x1="255.963" y1="155.494" x2="260.488" y2="154.418" gradientUnits="userSpaceOnUse">
<stop offset="0.0597298" stop-color="#F0F5F8"/>
<stop offset="0.1349" stop-color="#F7F9FA"/>
<stop offset="0.2428" stop-color="#FCFCFC"/>
<stop offset="0.3067" stop-color="#F5F8FA"/>
<stop offset="0.3985" stop-color="#F0F5F8"/>
<stop offset="0.4719" stop-color="#DCE4EA"/>
<stop offset="0.5481" stop-color="#CFD8E1"/>
<stop offset="0.6167" stop-color="#CAD4DE"/>
<stop offset="0.7113" stop-color="#AEB9CC"/>
<stop offset="0.8242" stop-color="#929FBB"/>
<stop offset="0.9241" stop-color="#8290B1"/>
<stop offset="1" stop-color="#7C8AAD"/>
</linearGradient>
<radialGradient id="paint71_radial_663_2431" cx="0" cy="0" r="1" gradientUnits="userSpaceOnUse" gradientTransform="translate(271.187 163.853) rotate(-13.3666) scale(35.5254 34.9774)">
<stop offset="0.2084" stop-color="#FCFCFC"/>
<stop offset="0.4646" stop-color="#D9E0E7"/>
<stop offset="0.5634" stop-color="#CAD4DE"/>
<stop offset="0.6489" stop-color="#C3CEDA"/>
<stop offset="0.7693" stop-color="#B1BCCE"/>
<stop offset="0.9097" stop-color="#93A0BC"/>
<stop offset="1" stop-color="#7C8AAD"/>
</radialGradient>
<radialGradient id="paint72_radial_663_2431" cx="0" cy="0" r="1" gradientUnits="userSpaceOnUse" gradientTransform="translate(271.187 163.853) rotate(-13.3666) scale(35.5255 34.9775)">
<stop offset="0.2084" stop-color="#FCFCFC"/>
<stop offset="0.4646" stop-color="#D9E0E7"/>
<stop offset="0.5634" stop-color="#CAD4DE"/>
<stop offset="0.6489" stop-color="#C3CEDA"/>
<stop offset="0.7693" stop-color="#B1BCCE"/>
<stop offset="0.9097" stop-color="#93A0BC"/>
<stop offset="1" stop-color="#7C8AAD"/>
</radialGradient>
<linearGradient id="paint73_linear_663_2431" x1="220.651" y1="96.0796" x2="196.09" y2="106.982" gradientUnits="userSpaceOnUse">
<stop stop-color="#B4BFD3"/>
<stop offset="0.1757" stop-color="#D7DDE7"/>
<stop offset="0.3377" stop-color="#F1F3F6"/>
<stop offset="0.4342" stop-color="#FBFBFB"/>
<stop offset="0.8398" stop-color="#B4BFD3"/>
<stop offset="0.918" stop-color="#B2BED2"/>
<stop offset="0.9514" stop-color="#ABB8CF"/>
<stop offset="0.9761" stop-color="#9EAFCA"/>
<stop offset="0.9966" stop-color="#8DA3C3"/>
<stop offset="1" stop-color="#89A0C2"/>
</linearGradient>
<linearGradient id="paint74_linear_663_2431" x1="220.65" y1="96.0797" x2="196.09" y2="106.982" gradientUnits="userSpaceOnUse">
<stop stop-color="#B4BFD3"/>
<stop offset="0.0836867" stop-color="#B6C1D4"/>
<stop offset="0.1193" stop-color="#BDC7D8"/>
<stop offset="0.1459" stop-color="#CAD1DF"/>
<stop offset="0.1677" stop-color="#DBE0EA"/>
<stop offset="0.1868" stop-color="#F2F4F7"/>
<stop offset="0.1895" stop-color="#F6F7F9"/>
<stop offset="0.4993" stop-color="#FBFBFB"/>
<stop offset="0.8398" stop-color="#B4BFD3"/>
<stop offset="0.918" stop-color="#B2BED2"/>
<stop offset="0.9514" stop-color="#ABB8CF"/>
<stop offset="0.9761" stop-color="#9EAFCA"/>
<stop offset="0.9966" stop-color="#8DA3C3"/>
<stop offset="1" stop-color="#89A0C2"/>
</linearGradient>
<linearGradient id="paint75_linear_663_2431" x1="220.651" y1="96.0797" x2="196.09" y2="106.982" gradientUnits="userSpaceOnUse">
<stop stop-color="#B4BFD3"/>
<stop offset="0.0836867" stop-color="#B6C1D4"/>
<stop offset="0.1193" stop-color="#BDC7D8"/>
<stop offset="0.1459" stop-color="#CAD1DF"/>
<stop offset="0.1677" stop-color="#DBE0EA"/>
<stop offset="0.1868" stop-color="#F2F4F7"/>
<stop offset="0.1895" stop-color="#F6F7F9"/>
<stop offset="0.4993" stop-color="#FBFBFB"/>
<stop offset="0.8398" stop-color="#B4BFD3"/>
<stop offset="0.918" stop-color="#B2BED2"/>
<stop offset="0.9514" stop-color="#ABB8CF"/>
<stop offset="0.9761" stop-color="#9EAFCA"/>
<stop offset="0.9966" stop-color="#8DA3C3"/>
<stop offset="1" stop-color="#89A0C2"/>
</linearGradient>
<radialGradient id="paint76_radial_663_2431" cx="0" cy="0" r="1" gradientUnits="userSpaceOnUse" gradientTransform="translate(28.2961 216.005) rotate(-13.3666) scale(5.69963 5.61171)">
<stop offset="0.2084" stop-color="#FCFCFC"/>
<stop offset="0.4646" stop-color="#D9E0E7"/>
<stop offset="0.5634" stop-color="#CAD4DE"/>
<stop offset="0.6733" stop-color="#C7D1DC"/>
<stop offset="0.768" stop-color="#BCC7D5"/>
<stop offset="0.8571" stop-color="#AAB6CA"/>
<stop offset="0.9422" stop-color="#919EBA"/>
<stop offset="1" stop-color="#7C8AAD"/>
</radialGradient>
<radialGradient id="paint77_radial_663_2431" cx="0" cy="0" r="1" gradientUnits="userSpaceOnUse" gradientTransform="translate(104.846 213.606) rotate(-13.3666) scale(15.3283 15.0919)">
<stop offset="0.1808" stop-color="#9CA09A"/>
<stop offset="0.5756" stop-color="#4F5650"/>
<stop offset="0.722" stop-color="#4A4F4B"/>
<stop offset="0.9276" stop-color="#3B3D3C"/>
<stop offset="1" stop-color="#343535"/>
</radialGradient>
<radialGradient id="paint78_radial_663_2431" cx="0" cy="0" r="1" gradientUnits="userSpaceOnUse" gradientTransform="translate(104.845 213.602) rotate(-13.3666) scale(15.3264 15.09)">
<stop offset="0.1808" stop-color="#9CA09A"/>
<stop offset="0.5756" stop-color="#4F5650"/>
<stop offset="0.722" stop-color="#4A4F4B"/>
<stop offset="0.9276" stop-color="#3B3D3C"/>
<stop offset="1" stop-color="#343535"/>
</radialGradient>
<radialGradient id="paint79_radial_663_2431" cx="0" cy="0" r="1" gradientUnits="userSpaceOnUse" gradientTransform="translate(159.905 204.528) rotate(-13.3666) scale(15.5942 15.3537)">
<stop offset="0.1808" stop-color="#9CA09A"/>
<stop offset="0.5756" stop-color="#4F5650"/>
<stop offset="0.722" stop-color="#4A4F4B"/>
<stop offset="0.9276" stop-color="#3B3D3C"/>
<stop offset="1" stop-color="#343535"/>
</radialGradient>
<radialGradient id="paint80_radial_663_2431" cx="0" cy="0" r="1" gradientUnits="userSpaceOnUse" gradientTransform="translate(159.904 204.523) rotate(-13.3666) scale(15.5916 15.3511)">
<stop offset="0.1808" stop-color="#9CA09A"/>
<stop offset="0.5756" stop-color="#4F5650"/>
<stop offset="0.722" stop-color="#4A4F4B"/>
<stop offset="0.9276" stop-color="#3B3D3C"/>
<stop offset="1" stop-color="#343535"/>
</radialGradient>
<radialGradient id="paint81_radial_663_2431" cx="0" cy="0" r="1" gradientUnits="userSpaceOnUse" gradientTransform="translate(196.26 198.574) rotate(-13.3666) scale(16.9858 16.7238)">
<stop offset="0.1808" stop-color="#9CA09A"/>
<stop offset="0.5756" stop-color="#4F5650"/>
<stop offset="0.722" stop-color="#4A4F4B"/>
<stop offset="0.9276" stop-color="#3B3D3C"/>
<stop offset="1" stop-color="#343535"/>
</radialGradient>
<radialGradient id="paint82_radial_663_2431" cx="0" cy="0" r="1" gradientUnits="userSpaceOnUse" gradientTransform="translate(196.26 198.574) rotate(-13.3666) scale(16.9858 16.7238)">
<stop offset="0.1808" stop-color="#9CA09A"/>
<stop offset="0.5756" stop-color="#4F5650"/>
<stop offset="0.722" stop-color="#4A4F4B"/>
<stop offset="0.9276" stop-color="#3B3D3C"/>
<stop offset="1" stop-color="#343535"/>
</radialGradient>
<radialGradient id="paint83_radial_663_2431" cx="0" cy="0" r="1" gradientUnits="userSpaceOnUse" gradientTransform="translate(196.26 198.572) rotate(-13.3666) scale(16.9872 16.7252)">
<stop offset="0.1808" stop-color="#9CA09A"/>
<stop offset="0.5756" stop-color="#4F5650"/>
<stop offset="0.722" stop-color="#4A4F4B"/>
<stop offset="0.9276" stop-color="#3B3D3C"/>
<stop offset="1" stop-color="#343535"/>
</radialGradient>
<radialGradient id="paint84_radial_663_2431" cx="0" cy="0" r="1" gradientUnits="userSpaceOnUse" gradientTransform="translate(248.025 177.777) rotate(-13.3666) scale(28.5043 28.0647)">
<stop offset="0.2084" stop-color="#FCFCFC"/>
<stop offset="0.4646" stop-color="#D9E0E7"/>
<stop offset="0.5634" stop-color="#CAD4DE"/>
<stop offset="0.6489" stop-color="#C3CEDA"/>
<stop offset="0.7693" stop-color="#B1BCCE"/>
<stop offset="0.9097" stop-color="#93A0BC"/>
<stop offset="1" stop-color="#7C8AAD"/>
</radialGradient>
<radialGradient id="paint85_radial_663_2431" cx="0" cy="0" r="1" gradientUnits="userSpaceOnUse" gradientTransform="translate(240.216 161.199) rotate(-13.3666) scale(37.9034 37.3188)">
<stop offset="0.1808" stop-color="#9CA09A"/>
<stop offset="0.5756" stop-color="#4F5650"/>
<stop offset="0.722" stop-color="#4A4F4B"/>
<stop offset="0.9276" stop-color="#3B3D3C"/>
<stop offset="1" stop-color="#343535"/>
</radialGradient>
<linearGradient id="paint86_linear_663_2431" x1="145.819" y1="195.887" x2="144.373" y2="186.447" gradientUnits="userSpaceOnUse">
<stop offset="0.0963146" stop-color="#FCFCFC"/>
<stop offset="0.4334" stop-color="#D9E0E7"/>
<stop offset="0.5634" stop-color="#CAD4DE"/>
<stop offset="0.6733" stop-color="#C7D1DC"/>
<stop offset="0.768" stop-color="#BCC7D5"/>
<stop offset="0.8571" stop-color="#AAB6CA"/>
<stop offset="0.9422" stop-color="#919EBA"/>
<stop offset="1" stop-color="#7C8AAD"/>
</linearGradient>
<linearGradient id="paint87_linear_663_2431" x1="147.65" y1="195.538" x2="146.174" y2="185.902" gradientUnits="userSpaceOnUse">
<stop offset="0.0597298" stop-color="#F0F5F8"/>
<stop offset="0.1349" stop-color="#F7F9FA"/>
<stop offset="0.2428" stop-color="#FCFCFC"/>
<stop offset="0.3067" stop-color="#F5F8FA"/>
<stop offset="0.3985" stop-color="#F0F5F8"/>
<stop offset="0.4719" stop-color="#DCE4EA"/>
<stop offset="0.5481" stop-color="#CFD8E1"/>
<stop offset="0.6167" stop-color="#CAD4DE"/>
<stop offset="0.7113" stop-color="#AEB9CC"/>
<stop offset="0.8242" stop-color="#929FBB"/>
<stop offset="0.9241" stop-color="#8290B1"/>
<stop offset="1" stop-color="#7C8AAD"/>
</linearGradient>
<linearGradient id="paint88_linear_663_2431" x1="26.5944" y1="214.365" x2="25.1182" y2="204.725" gradientUnits="userSpaceOnUse">
<stop offset="0.0963146" stop-color="#FCFCFC"/>
<stop offset="0.4334" stop-color="#D9E0E7"/>
<stop offset="0.5634" stop-color="#CAD4DE"/>
<stop offset="0.6733" stop-color="#C7D1DC"/>
<stop offset="0.768" stop-color="#BCC7D5"/>
<stop offset="0.8571" stop-color="#AAB6CA"/>
<stop offset="0.9422" stop-color="#919EBA"/>
<stop offset="1" stop-color="#7C8AAD"/>
</linearGradient>
<radialGradient id="paint89_radial_663_2431" cx="0" cy="0" r="1" gradientUnits="userSpaceOnUse" gradientTransform="translate(219.304 200.441) rotate(-13.3666) scale(27.0822 26.6644)">
<stop offset="0.2084" stop-color="#FCFCFC"/>
<stop offset="0.4646" stop-color="#D9E0E7"/>
<stop offset="0.5634" stop-color="#CAD4DE"/>
<stop offset="0.6733" stop-color="#C7D1DC"/>
<stop offset="0.768" stop-color="#BCC7D5"/>
<stop offset="0.8571" stop-color="#AAB6CA"/>
<stop offset="0.9422" stop-color="#919EBA"/>
<stop offset="1" stop-color="#7C8AAD"/>
</radialGradient>
<radialGradient id="paint90_radial_663_2431" cx="0" cy="0" r="1" gradientUnits="userSpaceOnUse" gradientTransform="translate(219.304 200.441) rotate(-13.3666) scale(27.0823 26.6645)">
<stop offset="0.2084" stop-color="#FCFCFC"/>
<stop offset="0.4646" stop-color="#D9E0E7"/>
<stop offset="0.5634" stop-color="#CAD4DE"/>
<stop offset="0.6733" stop-color="#C7D1DC"/>
<stop offset="0.768" stop-color="#BCC7D5"/>
<stop offset="0.8571" stop-color="#AAB6CA"/>
<stop offset="0.9422" stop-color="#919EBA"/>
<stop offset="1" stop-color="#7C8AAD"/>
</radialGradient>
<radialGradient id="paint91_radial_663_2431" cx="0" cy="0" r="1" gradientUnits="userSpaceOnUse" gradientTransform="translate(217.825 195.067) rotate(-13.3666) scale(17.4693 17.1999)">
<stop offset="0.2084" stop-color="#FCFCFC"/>
<stop offset="0.4646" stop-color="#D9E0E7"/>
<stop offset="0.5634" stop-color="#CAD4DE"/>
<stop offset="0.6489" stop-color="#C3CEDA"/>
<stop offset="0.7693" stop-color="#B1BCCE"/>
<stop offset="0.9097" stop-color="#93A0BC"/>
<stop offset="1" stop-color="#7C8AAD"/>
</radialGradient>
<radialGradient id="paint92_radial_663_2431" cx="0" cy="0" r="1" gradientUnits="userSpaceOnUse" gradientTransform="translate(217.825 195.066) rotate(-13.3666) scale(17.4701 17.2006)">
<stop offset="0.2084" stop-color="#FCFCFC"/>
<stop offset="0.4646" stop-color="#D9E0E7"/>
<stop offset="0.5634" stop-color="#CAD4DE"/>
<stop offset="0.6489" stop-color="#C3CEDA"/>
<stop offset="0.7693" stop-color="#B1BCCE"/>
<stop offset="0.9097" stop-color="#93A0BC"/>
<stop offset="1" stop-color="#7C8AAD"/>
</radialGradient>
<radialGradient id="paint93_radial_663_2431" cx="0" cy="0" r="1" gradientUnits="userSpaceOnUse" gradientTransform="translate(221.625 191.608) rotate(-13.3666) scale(26.6101 26.1997)">
<stop offset="0.2084" stop-color="#FCFCFC"/>
<stop offset="0.4646" stop-color="#D9E0E7"/>
<stop offset="0.5634" stop-color="#CAD4DE"/>
<stop offset="0.6489" stop-color="#C3CEDA"/>
<stop offset="0.7693" stop-color="#B1BCCE"/>
<stop offset="0.9097" stop-color="#93A0BC"/>
<stop offset="1" stop-color="#7C8AAD"/>
</radialGradient>
<radialGradient id="paint94_radial_663_2431" cx="0" cy="0" r="1" gradientUnits="userSpaceOnUse" gradientTransform="translate(221.626 191.609) rotate(-13.3666) scale(26.609 26.1986)">
<stop offset="0.2084" stop-color="#FCFCFC"/>
<stop offset="0.4646" stop-color="#D9E0E7"/>
<stop offset="0.5634" stop-color="#CAD4DE"/>
<stop offset="0.6489" stop-color="#C3CEDA"/>
<stop offset="0.7693" stop-color="#B1BCCE"/>
<stop offset="0.9097" stop-color="#93A0BC"/>
<stop offset="1" stop-color="#7C8AAD"/>
</radialGradient>
<radialGradient id="paint95_radial_663_2431" cx="0" cy="0" r="1" gradientUnits="userSpaceOnUse" gradientTransform="translate(231.571 193.149) rotate(-13.3666) scale(27.7451 27.735)">
<stop offset="0.1808" stop-color="#9CA09A"/>
<stop offset="0.5756" stop-color="#4F5650"/>
<stop offset="0.722" stop-color="#4A4F4B"/>
<stop offset="0.9276" stop-color="#3B3D3C"/>
<stop offset="1" stop-color="#343535"/>
</radialGradient>
<radialGradient id="paint96_radial_663_2431" cx="0" cy="0" r="1" gradientUnits="userSpaceOnUse" gradientTransform="translate(241.862 200.473) rotate(-13.3666) scale(26.0237 26.0142)">
<stop stop-color="#343535"/>
<stop offset="0.1839" stop-color="#2D2E2D"/>
<stop offset="0.6133" stop-color="#212120"/>
<stop offset="1" stop-color="#1D1D1B"/>
</radialGradient>
<radialGradient id="paint97_radial_663_2431" cx="0" cy="0" r="1" gradientUnits="userSpaceOnUse" gradientTransform="translate(231.571 193.149) rotate(-13.3666) scale(27.7446 27.7345)">
<stop offset="0.1808" stop-color="#9CA09A"/>
<stop offset="0.5756" stop-color="#4F5650"/>
<stop offset="0.722" stop-color="#4A4F4B"/>
<stop offset="0.9276" stop-color="#3B3D3C"/>
<stop offset="1" stop-color="#343535"/>
</radialGradient>
<radialGradient id="paint98_radial_663_2431" cx="0" cy="0" r="1" gradientUnits="userSpaceOnUse" gradientTransform="translate(232.012 188.344) rotate(-13.3666) scale(5.78844 5.78634)">
<stop offset="0.1808" stop-color="#9CA09A"/>
<stop offset="0.5756" stop-color="#4F5650"/>
<stop offset="0.722" stop-color="#4A4F4B"/>
<stop offset="0.9276" stop-color="#3B3D3C"/>
<stop offset="1" stop-color="#343535"/>
</radialGradient>
<linearGradient id="paint99_linear_663_2431" x1="168.973" y1="156.971" x2="170.163" y2="165.443" gradientUnits="userSpaceOnUse">
<stop stop-color="#B4BFD3"/>
<stop offset="0.0836867" stop-color="#B6C1D4"/>
<stop offset="0.1193" stop-color="#BDC7D8"/>
<stop offset="0.1459" stop-color="#CAD1DF"/>
<stop offset="0.1677" stop-color="#DBE0EA"/>
<stop offset="0.1868" stop-color="#F2F4F7"/>
<stop offset="0.1895" stop-color="#F6F7F9"/>
<stop offset="0.4993" stop-color="#FBFBFB"/>
<stop offset="0.8398" stop-color="#B4BFD3"/>
<stop offset="0.918" stop-color="#B2BED2"/>
<stop offset="0.9514" stop-color="#ABB8CF"/>
<stop offset="0.9761" stop-color="#9EAFCA"/>
<stop offset="0.9966" stop-color="#8DA3C3"/>
<stop offset="1" stop-color="#89A0C2"/>
</linearGradient>
<linearGradient id="paint100_linear_663_2431" x1="167.672" y1="156.224" x2="169.388" y2="165.136" gradientUnits="userSpaceOnUse">
<stop stop-color="#B4BFD3"/>
<stop offset="0.0836867" stop-color="#B6C1D4"/>
<stop offset="0.1193" stop-color="#BDC7D8"/>
<stop offset="0.1459" stop-color="#CAD1DF"/>
<stop offset="0.1677" stop-color="#DBE0EA"/>
<stop offset="0.1868" stop-color="#F2F4F7"/>
<stop offset="0.1895" stop-color="#F6F7F9"/>
<stop offset="0.4993" stop-color="#FBFBFB"/>
<stop offset="0.8398" stop-color="#B4BFD3"/>
<stop offset="0.918" stop-color="#B2BED2"/>
<stop offset="0.9514" stop-color="#ABB8CF"/>
<stop offset="0.9761" stop-color="#9EAFCA"/>
<stop offset="0.9966" stop-color="#8DA3C3"/>
<stop offset="1" stop-color="#89A0C2"/>
</linearGradient>
<linearGradient id="paint101_linear_663_2431" x1="235.373" y1="156.935" x2="237.532" y2="164.113" gradientUnits="userSpaceOnUse">
<stop offset="0.0177774" stop-color="#AA2C30"/>
<stop offset="0.0733403" stop-color="#B72C30"/>
<stop offset="0.2076" stop-color="#D32C30"/>
<stop offset="0.3265" stop-color="#E32C30"/>
<stop offset="0.4167" stop-color="#E92C30"/>
<stop offset="0.5271" stop-color="#DF2B2F"/>
<stop offset="0.7165" stop-color="#C3292C"/>
<stop offset="0.9607" stop-color="#972728"/>
<stop offset="1" stop-color="#8F2627"/>
</linearGradient>
<linearGradient id="paint102_linear_663_2431" x1="279.282" y1="126.778" x2="286.708" y2="191.48" gradientUnits="userSpaceOnUse">
<stop offset="0.0597298" stop-color="#F0F5F8"/>
<stop offset="0.1349" stop-color="#F7F9FA"/>
<stop offset="0.2428" stop-color="#FCFCFC"/>
<stop offset="0.3067" stop-color="#F5F8FA"/>
<stop offset="0.3985" stop-color="#F0F5F8"/>
<stop offset="0.4719" stop-color="#DCE4EA"/>
<stop offset="0.5481" stop-color="#CFD8E1"/>
<stop offset="0.6167" stop-color="#CAD4DE"/>
<stop offset="0.7113" stop-color="#AEB9CC"/>
<stop offset="0.8242" stop-color="#929FBB"/>
<stop offset="0.9241" stop-color="#8290B1"/>
<stop offset="1" stop-color="#7C8AAD"/>
</linearGradient>
<clipPath id="clip0_663_2431">
<rect width="471.095" height="158.668" fill="white" transform="translate(0 108.908) rotate(-13.3666)"/>
</clipPath>
</defs>
</svg>
