<svg width="512" height="512" viewBox="0 0 512 512" fill="none" xmlns="http://www.w3.org/2000/svg">
<path d="M202.621 146.055C196.687 130.425 183.2 118.569 167.015 114.796C156.765 120.724 144.356 124.497 131.409 124.497C118.461 124.497 106.053 121.263 95.8024 114.796C79.6177 118.569 66.1305 130.425 60.1961 146.055L19.7344 253.305C15.4185 264.084 21.3529 276.48 32.1426 280.792C42.9324 285.103 55.3407 279.175 59.6566 268.396L80.1572 213.423V280.253L63.9725 483.975C62.8935 498.526 73.6833 510.922 88.2495 512C88.789 512 89.868 512 90.4075 512C103.895 512 115.224 501.76 116.303 487.747L131.409 300.194L146.514 487.747C147.593 501.221 158.923 512 172.41 512C172.949 512 174.028 512 174.568 512C189.134 510.922 199.924 497.987 198.845 483.975L182.66 280.253V213.423L203.7 268.396C206.937 277.019 215.03 282.409 223.661 282.409C226.359 282.409 228.517 281.87 231.214 280.792C242.004 276.48 247.938 264.084 243.623 253.305L202.621 146.055Z" fill="black"/>
<path d="M131.411 104.556C160.312 104.556 183.741 81.1502 183.741 52.2779C183.741 23.4056 160.312 0 131.411 0C102.509 0 79.0801 23.4056 79.0801 52.2779C79.0801 81.1502 102.509 104.556 131.411 104.556Z" fill="black"/>
<path d="M491.789 252.766L441.617 138.509C436.761 127.191 427.05 119.107 415.721 115.874C405.471 121.263 394.142 124.497 381.733 124.497C369.325 123.958 357.456 121.263 347.745 115.874C336.416 119.107 326.705 127.191 321.31 138.509L271.138 252.766C266.822 263.006 271.138 274.863 281.388 279.714C291.639 284.025 303.507 279.714 308.363 269.474L331.561 217.196V247.916L295.415 372.951C293.796 379.419 294.875 386.425 298.652 391.815C302.428 397.204 308.902 400.438 315.916 400.438H321.85L314.837 484.513C313.758 498.526 324.008 510.383 338.035 511.461C338.574 511.461 339.653 511.461 340.193 511.461C353.14 511.461 364.47 501.221 365.549 488.286L372.562 399.899H390.365L397.378 487.747C398.457 500.682 409.247 510.922 422.734 510.922C423.274 510.922 424.353 510.922 424.892 510.922C438.919 509.844 449.169 497.448 448.09 483.975L441.077 399.899H447.011C453.485 399.899 459.959 396.665 464.275 391.276C468.052 385.886 469.67 378.88 467.512 372.412L431.366 247.377V216.657L454.564 268.935C457.801 276.48 465.354 281.33 473.446 281.33C476.144 281.33 478.841 280.791 481.539 279.714C491.789 274.863 496.644 263.006 491.789 252.766Z" fill="black"/>
<path d="M381.192 104.556C410.093 104.556 433.522 81.1502 433.522 52.2779C433.522 23.4056 410.093 0 381.192 0C352.29 0 328.861 23.4056 328.861 52.2779C328.861 81.1502 352.29 104.556 381.192 104.556Z" fill="black"/>
</svg>
