<svg width="79" height="70" viewBox="0 0 79 70" fill="none" xmlns="http://www.w3.org/2000/svg">
<path d="M70.5476 12.0444H50.9743V7.81901C50.9743 4.02118 47.9287 0.879639 44.1227 0.879639H34.7693C30.9634 0.879639 27.8117 4.02117 27.8117 7.81478V12.0402H8.23836C3.88874 12.0402 0.409912 15.5078 0.409912 19.8433V62.1149C0.409912 66.4504 3.88874 69.918 8.23836 69.918L70.5478 69.9222C74.8974 69.9222 78.3762 66.4547 78.3762 62.1191V19.8476C78.3762 15.6221 74.8972 12.0444 70.5476 12.0444ZM31.7283 7.81478C31.7283 6.07882 33.1428 4.77903 34.7739 4.77903H44.1273C45.8689 4.77903 47.1729 6.18895 47.1729 7.81478V12.0402L31.7285 12.0444L31.7283 7.81478ZM19.2231 66.0227H8.23814C6.06333 66.0227 4.21561 64.2868 4.21561 62.0132V19.7416C4.21561 17.5739 5.9572 15.7321 8.23814 15.7321H19.2231V66.0227ZM55.7578 66.0227H23.1356V15.9439H55.7578V66.0227ZM74.571 62.119C74.571 64.2868 72.8294 66.1285 70.5484 66.1285H59.5635V15.9435H70.5484C72.7233 15.9435 74.571 17.6794 74.571 19.953V62.119Z" fill="black"/>
<path d="M40.3011 39.157H32.6211C32.5571 39.0503 32.4824 38.8903 32.3971 38.677C32.3331 38.4423 32.3011 38.2076 32.3011 37.973C32.3011 37.525 32.3971 37.205 32.5891 37.013C32.8024 36.821 33.0584 36.725 33.3571 36.725H46.5411C46.6264 36.8743 46.7011 37.0556 46.7651 37.269C46.8291 37.4823 46.8611 37.6956 46.8611 37.909C46.8611 38.3356 46.7544 38.6556 46.5411 38.869C46.3491 39.061 46.1037 39.157 45.8051 39.157H43.4691C43.4264 40.1383 43.1704 41.0343 42.7011 41.845C42.2317 42.6556 41.5491 43.317 40.6531 43.829C39.7784 44.341 38.6797 44.6396 37.3571 44.725L43.4691 49.237C43.4477 49.8343 43.2771 50.3036 42.9571 50.645C42.6584 50.9863 42.2424 51.157 41.7091 51.157C41.3677 51.157 41.0371 51.061 40.7171 50.869C40.3971 50.677 40.0237 50.3996 39.5971 50.037L33.6451 44.629C33.5597 44.373 33.5171 44.1276 33.5171 43.893C33.5171 43.317 33.7304 42.8903 34.1571 42.613H36.0131C37.3144 42.613 38.3384 42.293 39.0851 41.653C39.8531 41.013 40.2584 40.181 40.3011 39.157ZM45.8051 33.749H32.6211C32.5571 33.621 32.4824 33.4503 32.3971 33.237C32.3331 33.0023 32.3011 32.7676 32.3011 32.533C32.3011 32.1063 32.3971 31.797 32.5891 31.605C32.8024 31.3916 33.0584 31.285 33.3571 31.285H46.5411C46.6264 31.3916 46.7011 31.5623 46.7651 31.797C46.8291 32.0316 46.8611 32.2556 46.8611 32.469C46.8611 32.9383 46.7544 33.269 46.5411 33.461C46.3491 33.653 46.1037 33.749 45.8051 33.749Z" fill="black"/>
</svg>
