<svg width="512" height="512" viewBox="0 0 512 512" fill="none" xmlns="http://www.w3.org/2000/svg">
<path d="M510.87 228.093C507.758 220.575 499.157 217.016 491.676 220.124C441.944 240.796 402.003 242.051 371.112 235.126C370.367 234.886 369.61 234.744 368.854 234.635C316.147 221.967 290.621 185.49 288.891 182.929C284.38 176.175 275.261 174.355 268.548 178.85C261.79 183.356 259.946 192.5 264.446 199.271C264.879 199.932 290.399 237.077 341.9 256.562C335.255 275.488 323.98 311.845 320.942 348.305C320.942 348.305 323.997 348.898 329.151 349.731C326.637 374.618 325.994 393.584 325.954 395.375C325.704 403.509 332.075 410.296 340.176 410.547C340.33 410.547 340.489 410.559 340.637 410.559C348.545 410.559 355.058 404.262 355.309 396.287C355.326 395.865 355.94 377.481 358.329 353.365C366.584 354.1 375.572 354.654 384.692 354.734C402.139 394.513 425.583 414.284 427.193 415.607C429.918 417.831 433.2 418.915 436.454 418.915C440.721 418.915 444.948 417.067 447.866 413.491C452.98 407.188 452.036 397.913 445.744 392.768C445.454 392.534 430.02 379.455 416.259 352.697C424.377 351.391 431.863 349.389 438.144 346.423C438.144 346.423 423.569 301.783 422.585 267.559C446.586 265.717 473.335 259.636 502.934 247.338C510.432 244.23 513.988 235.605 510.87 228.093ZM243.483 178.907C236.759 174.39 227.651 176.186 223.117 182.911C221.478 185.347 195.953 221.955 143.137 234.641C142.369 234.755 141.607 234.904 140.856 235.137C109.971 242.051 70.0413 240.79 20.3151 220.124C12.8229 217.01 4.22137 220.575 1.12664 228.093C-1.98516 235.605 1.57037 244.23 9.06827 247.338C45.3404 262.414 77.3743 268.255 105.244 268.255C105.568 268.255 105.87 268.209 106.194 268.209C108.026 280.057 110.085 297.79 109.71 316.505C96.1475 367.106 67.8511 391.445 66.1957 392.819C59.955 397.953 59.0277 407.199 64.1363 413.496C67.0433 417.073 71.2644 418.921 75.5311 418.921C78.7965 418.921 82.0732 417.837 84.8039 415.613C86.6926 414.067 118.971 386.813 135.947 331.256C140.794 330.32 145.845 329.596 150.823 329.271C155.613 364.168 156.677 395.734 156.694 396.287C156.944 404.256 163.464 410.564 171.365 410.564C171.519 410.564 171.667 410.553 171.832 410.553C179.927 410.302 186.293 403.514 186.048 395.38C185.986 393.065 184.95 362.126 180.121 326.71C180.217 310.567 180.086 278.619 178.05 253.35C224.226 233.266 247.147 199.898 247.562 199.271C252.028 192.511 250.201 183.425 243.483 178.907ZM125.007 230.511C155.454 230.511 180.132 205.767 180.132 175.24C180.132 144.712 155.454 119.968 125.007 119.968C94.5603 119.968 69.8764 144.712 69.8764 175.24C69.8764 205.767 94.566 230.511 125.007 230.511ZM352.925 133.207C353.994 135.112 353.733 137.53 352.311 139.196C346.519 145.927 342.315 154.129 340.313 163.523C333.697 194.582 354.489 225.115 386.353 229.793C414.825 233.968 442.223 214.723 448.168 186.499C450.125 177.219 449.618 168.041 447.087 159.559C446.472 157.483 447.223 155.19 448.953 153.889C464.66 142.025 449.863 197.103 506.148 184.623C471.435 176.477 488.65 144.626 484.383 131.764C480.298 119.722 458.88 109.022 439.669 139.607C438.975 140.73 437.416 140.821 436.579 139.8C428.962 130.514 418.409 123.744 405.769 121.029C393.225 118.336 380.749 120.173 370.094 125.455C368.916 126.042 367.54 125.324 367.358 124.017C362.215 88.2875 338.282 89.2629 329.652 98.5832C320.504 108.571 323.218 144.695 288.22 137.895C334.351 172.33 343.385 116.186 352.925 133.207Z" fill="black"/>
</svg>
