<svg width="512" height="512" viewBox="0 0 512 512" fill="none" xmlns="http://www.w3.org/2000/svg">
<path d="M435.797 78H75.7074C55.8938 78 36.8916 85.8811 22.8813 99.9095C8.87094 113.938 1 132.965 1 152.804V359.636C1 379.475 8.87094 398.502 22.8813 412.53C36.8916 426.559 55.8938 434.44 75.7074 434.44H435.797C455.611 434.44 474.613 426.559 488.623 412.53C502.633 398.502 510.504 379.475 510.504 359.636V152.804C510.504 132.965 502.633 113.938 488.623 99.9095C474.613 85.8811 455.611 78 435.797 78ZM485.602 359.636C485.602 372.862 480.355 385.547 471.014 394.899C461.674 404.251 449.006 409.505 435.797 409.505H75.7074C62.4983 409.505 49.8302 404.251 40.49 394.899C31.1497 385.547 25.9025 372.862 25.9025 359.636V152.804C25.9025 139.578 31.1497 126.893 40.49 117.541C49.8302 108.189 62.4983 102.935 75.7074 102.935H435.797C449.006 102.935 461.674 108.189 471.014 117.541C480.355 126.893 485.602 139.578 485.602 152.804V359.636Z" fill="black"/>
<path d="M423.234 156.851L396.14 174.729C396.14 174.729 396.14 174.729 396.14 174.729C396.14 174.729 396.14 174.729 396.14 174.73C395.4 175.217 394.764 175.845 394.268 176.578C393.772 177.311 393.425 178.136 393.247 179.003C393.069 179.871 393.064 180.765 393.232 181.634C393.4 182.504 393.738 183.331 394.226 184.07C394.226 184.07 394.226 184.07 394.226 184.071L416.49 217.81L416.492 217.814C417.478 219.292 419.007 220.321 420.747 220.678C422.487 221.034 424.297 220.689 425.784 219.718L425.788 219.715L452.882 201.837L452.886 201.834C454.364 200.849 455.393 199.32 455.75 197.58C456.106 195.84 455.761 194.029 454.79 192.542L454.788 192.538L432.523 158.798L432.523 158.798L432.52 158.793C432.01 158.032 431.352 157.384 430.583 156.886C430.431 156.788 430.275 156.695 430.116 156.61L430.567 156.312L428.113 155.867C426.423 155.561 424.68 155.911 423.24 156.847L423.24 156.847L423.234 156.851ZM425.043 171.827L439.948 194.415L424.133 204.85L409.228 182.262L425.043 171.827Z" fill="#3F86E2" stroke="#3F86E2" stroke-width="2"/>
<path d="M424.114 207.676L424.116 207.657C422.432 207.378 420.706 207.748 419.285 208.693C419.284 208.693 419.284 208.694 419.283 208.694L296.407 289.776L281.502 267.189L306.228 250.873L306.232 250.87C307.71 249.885 308.739 248.356 309.096 246.616C309.452 244.876 309.107 243.065 308.136 241.578L308.134 241.575C307.647 240.836 307.018 240.199 306.285 239.703C305.552 239.206 304.728 238.859 303.86 238.682C302.992 238.504 302.098 238.499 301.229 238.667C300.361 238.835 299.534 239.172 298.796 239.659C298.795 239.659 298.794 239.66 298.792 239.661L295.408 241.857L295.402 241.861L268.308 259.74C267.569 260.227 266.933 260.855 266.436 261.589C265.94 262.322 265.593 263.146 265.415 264.014C265.237 264.881 265.232 265.775 265.4 266.645C265.568 267.514 265.906 268.342 266.394 269.081L288.658 302.821L288.661 302.825C289.646 304.302 291.175 305.332 292.915 305.688C294.655 306.045 296.465 305.7 297.952 304.729L297.956 304.726L426.526 219.886L426.53 219.884C428.008 218.898 429.037 217.369 429.393 215.629C429.75 213.889 429.405 212.079 428.434 210.592L428.433 210.591C427.929 209.822 427.274 209.165 426.507 208.659C425.78 208.18 424.967 207.846 424.114 207.676Z" fill="#3F86E2" stroke="#3F86E2" stroke-width="2"/>
<path d="M320.656 227.349C319.785 227.168 318.888 227.16 318.014 227.327C317.141 227.494 316.309 227.832 315.567 228.321C314.825 228.811 314.187 229.443 313.69 230.18C313.193 230.918 312.847 231.746 312.672 232.618C312.498 233.485 312.496 234.379 312.667 235.247C312.838 236.115 313.178 236.941 313.668 237.678C314.158 238.415 314.789 239.048 315.523 239.541C316.258 240.034 317.083 240.378 317.951 240.552C319.694 240.902 321.505 240.549 322.99 239.57C324.474 238.59 325.511 237.064 325.874 235.323C326.055 234.457 326.064 233.564 325.9 232.694C325.735 231.825 325.401 230.996 324.917 230.256C324.432 229.515 323.806 228.877 323.075 228.379C322.344 227.88 321.522 227.53 320.656 227.349Z" fill="#3F86E2" stroke="#3F86E2" stroke-width="2"/>
<path d="M397.243 174.969L397.238 174.973L333.085 217.305C333.084 217.306 333.083 217.306 333.083 217.307C329.966 219.343 329.104 223.55 331.167 226.648C333.204 229.764 337.412 230.626 340.51 228.561C340.511 228.561 340.511 228.56 340.512 228.56L404.661 186.23C404.661 186.229 404.661 186.229 404.662 186.229C407.78 184.192 408.643 179.982 406.576 176.882L406.575 176.882C405.57 175.377 404.15 174.324 402.284 174.006C400.624 173.708 398.701 174.02 397.243 174.969Z" fill="#3F86E2" stroke="#3F86E2" stroke-width="2"/>
<path d="M274.317 258.892L274.233 258.749L273.825 258.648C270.964 257.94 268.253 259.231 266.718 261.624L266.718 261.624L266.713 261.632L240.677 303.155C240.677 303.155 240.676 303.156 240.676 303.157C237.579 308.053 241.695 314.291 247.4 313.411L247.404 313.41L295.833 305.761L295.836 305.76C299.488 305.172 301.98 301.749 301.41 298.078L274.317 258.892ZM274.317 258.892C274.918 259.071 275.58 259.347 276.089 259.657L276.098 259.663L276.106 259.668C279.224 261.656 280.167 265.792 278.205 268.924L278.204 268.926L260.037 297.801L293.73 292.455L293.733 292.455C297.408 291.883 300.846 294.405 301.41 298.077L274.317 258.892Z" fill="#3F86E2" stroke="#3F86E2" stroke-width="2"/>
<mask id="path-7-outside-1_316_31" maskUnits="userSpaceOnUse" x="368.639" y="198.224" width="75.392" height="83.9599" fill="black">
<rect fill="white" x="368.639" y="198.224" width="75.392" height="83.9599"/>
<path d="M423.954 208.644C422.52 208.406 421.049 208.722 419.838 209.527C418.58 210.366 417.703 211.668 417.4 213.15C417.096 214.632 417.39 216.173 418.217 217.44L423.985 226.182L374.653 258.734C374.024 259.149 373.482 259.684 373.059 260.309C372.636 260.933 372.341 261.635 372.189 262.374C372.038 263.113 372.034 263.874 372.177 264.615C372.32 265.355 372.608 266.06 373.023 266.69C373.862 267.948 375.164 268.824 376.646 269.128C378.128 269.432 379.67 269.138 380.936 268.311L435.124 232.553C436.383 231.714 437.259 230.412 437.563 228.931C437.867 227.449 437.573 225.907 436.746 224.641L427.823 211.119C427.395 210.465 426.837 209.905 426.184 209.475C425.531 209.044 424.796 208.751 424.026 208.615L423.954 208.644Z"/>
</mask>
<path d="M423.954 208.644C422.52 208.406 421.049 208.722 419.838 209.527C418.58 210.366 417.703 211.668 417.4 213.15C417.096 214.632 417.39 216.173 418.217 217.44L423.985 226.182L374.653 258.734C374.024 259.149 373.482 259.684 373.059 260.309C372.636 260.933 372.341 261.635 372.189 262.374C372.038 263.113 372.034 263.874 372.177 264.615C372.32 265.355 372.608 266.06 373.023 266.69C373.862 267.948 375.164 268.824 376.646 269.128C378.128 269.432 379.67 269.138 380.936 268.311L435.124 232.553C436.383 231.714 437.259 230.412 437.563 228.931C437.867 227.449 437.573 225.907 436.746 224.641L427.823 211.119C427.395 210.465 426.837 209.905 426.184 209.475C425.531 209.044 424.796 208.751 424.026 208.615L423.954 208.644Z" fill="#3F86E2"/>
<path d="M423.954 208.644L423.627 210.617L424.184 210.709L424.706 210.497L423.954 208.644ZM419.838 209.527L418.731 207.862L418.729 207.863L419.838 209.527ZM418.217 217.44L416.542 218.533L416.548 218.541L418.217 217.44ZM423.985 226.182L425.087 227.851L426.756 226.749L425.655 225.08L423.985 226.182ZM374.653 258.734L375.754 260.404L375.755 260.404L374.653 258.734ZM373.023 266.69L371.355 267.792L371.359 267.799L373.023 266.69ZM380.936 268.311L382.03 269.985L382.038 269.98L380.936 268.311ZM435.124 232.553L436.226 234.223L436.234 234.217L435.124 232.553ZM436.746 224.641L438.42 223.547L438.415 223.539L436.746 224.641ZM427.823 211.119L426.151 212.216L426.154 212.221L427.823 211.119ZM424.026 208.615L424.375 206.645L423.808 206.545L423.274 206.762L424.026 208.615ZM424.281 206.671C422.347 206.351 420.363 206.776 418.731 207.862L420.946 211.192C421.734 210.668 422.693 210.462 423.627 210.617L424.281 206.671ZM418.729 207.863C417.032 208.994 415.85 210.75 415.44 212.748L419.359 213.551C419.557 212.586 420.128 211.738 420.948 211.191L418.729 207.863ZM415.44 212.748C415.031 214.747 415.427 216.826 416.542 218.533L419.891 216.346C419.353 215.521 419.161 214.517 419.359 213.551L415.44 212.748ZM416.548 218.541L422.316 227.283L425.655 225.08L419.886 216.338L416.548 218.541ZM422.884 224.512L373.552 257.065L375.755 260.404L425.087 227.851L422.884 224.512ZM373.553 257.064C372.704 257.624 371.973 258.346 371.403 259.188L374.715 261.43C374.991 261.023 375.344 260.675 375.754 260.404L373.553 257.064ZM371.403 259.188C370.833 260.03 370.434 260.976 370.23 261.973L374.149 262.776C374.247 262.294 374.44 261.837 374.715 261.43L371.403 259.188ZM370.23 261.973C370.026 262.969 370.02 263.996 370.213 264.994L374.14 264.235C374.047 263.753 374.05 263.257 374.149 262.776L370.23 261.973ZM370.213 264.994C370.406 265.993 370.794 266.944 371.355 267.792L374.692 265.587C374.421 265.177 374.234 264.718 374.14 264.235L370.213 264.994ZM371.359 267.799C372.491 269.496 374.246 270.678 376.245 271.087L377.048 267.169C376.082 266.971 375.234 266.4 374.687 265.58L371.359 267.799ZM376.245 271.087C378.243 271.497 380.322 271.101 382.03 269.985L379.842 266.636C379.017 267.175 378.013 267.367 377.048 267.169L376.245 271.087ZM382.038 269.98L436.226 234.223L434.023 230.884L379.834 266.642L382.038 269.98ZM436.234 234.217C437.931 233.086 439.113 231.33 439.522 229.332L435.604 228.529C435.406 229.494 434.835 230.343 434.015 230.889L436.234 234.217ZM439.522 229.332C439.932 227.334 439.536 225.255 438.42 223.547L435.071 225.734C435.61 226.559 435.802 227.564 435.604 228.529L439.522 229.332ZM438.415 223.539L429.493 210.018L426.154 212.221L435.077 225.742L438.415 223.539ZM429.496 210.023C428.918 209.14 428.165 208.386 427.285 207.805L425.082 211.144C425.508 211.425 425.871 211.789 426.151 212.215L429.496 210.023ZM427.285 207.805C426.404 207.224 425.414 206.83 424.375 206.645L423.677 210.584C424.179 210.673 424.657 210.864 425.082 211.144L427.285 207.805ZM423.274 206.762L423.201 206.791L424.706 210.497L424.779 210.468L423.274 206.762Z" fill="#3F86E2" mask="url(#path-7-outside-1_316_31)"/>
<path d="M192.091 160.028C194.78 163.519 196.223 168.235 196.316 174.576C196.477 187.275 190.631 205.684 180.273 226.329C171.754 243.312 159.189 262.175 146.056 280.898C146.001 280.395 145.947 279.892 145.893 279.388M192.091 160.028C189.535 156.717 185.72 154.194 179.579 152.769L179.508 153.779M192.091 160.028L191.299 160.638C191.299 160.638 191.299 160.638 191.299 160.638M192.091 160.028L191.299 160.639C191.299 160.639 191.299 160.638 191.299 160.638M179.508 153.779C179.148 153.694 178.778 153.612 178.399 153.535C178.396 153.534 178.394 153.534 178.391 153.533L178.578 152.618L177.589 152.549L177.594 152.484L177.597 152.433C172.232 151.518 168.115 152.375 164.376 154.548C160.412 156.852 156.774 160.992 153.637 166.936C147.394 178.698 143.58 197.634 142.36 219.444C141.296 238.439 142.745 259.677 145.021 280.632C145.312 280.217 145.603 279.803 145.893 279.388M179.508 153.779L179.505 153.828L178.386 153.598C172.75 152.443 168.613 153.242 164.879 155.412C161.13 157.591 157.605 161.559 154.522 167.403L154.52 167.405C148.38 178.974 144.576 197.735 143.359 219.5L143.359 219.5C142.318 238.072 143.69 258.824 145.893 279.388M179.508 153.779C185.379 155.169 188.932 157.573 191.299 160.638M145.893 279.388C158.784 260.978 171.037 242.512 179.38 225.88L179.38 225.88C189.72 205.271 195.473 187.04 195.316 174.59M195.316 174.59C195.225 168.391 193.817 163.907 191.299 160.638M195.316 174.59C195.316 174.589 195.316 174.589 195.316 174.589L196.315 174.576L195.316 174.591C195.316 174.59 195.316 174.59 195.316 174.59ZM180.895 140.356C172.578 138.694 164.675 139.934 158.114 143.773C151.529 147.606 146.487 153.704 142.624 161.056C134.865 175.75 131.18 196.015 129.9 218.786L129.9 218.786C128.534 243.222 130.425 270.275 134.112 296.591C118.317 317.743 101.022 339.005 83.7637 357.864L83.7637 357.864L83.7622 357.866C82.56 359.185 81.9305 360.928 82.0119 362.711C82.0932 364.494 82.8788 366.172 84.1961 367.377L84.2022 367.382C85.5205 368.568 87.253 369.186 89.024 369.103C90.7951 369.02 92.462 368.242 93.6635 366.938L93.6647 366.937C108.718 350.54 123.349 332.114 137.652 313.628C137.788 314.407 137.924 315.188 138.06 315.969C140.768 331.524 143.515 347.295 147.595 360.274L147.597 360.28C147.994 361.52 148.742 362.618 149.751 363.442C150.759 364.266 151.985 364.78 153.279 364.922C154.574 365.064 155.881 364.828 157.044 364.242C158.207 363.656 159.176 362.746 159.833 361.621L159.835 361.617L196.995 297.294L206.072 330.997L206.073 330.998C206.351 332.027 206.869 332.975 207.585 333.765C208.301 334.555 209.194 335.164 210.191 335.541C211.188 335.919 212.26 336.054 213.319 335.937C214.379 335.82 215.395 335.453 216.285 334.866L216.286 334.866L250.026 312.602L250.03 312.599C251.508 311.614 252.537 310.085 252.893 308.345C253.25 306.605 252.905 304.795 251.934 303.307L251.932 303.304C251.444 302.565 250.816 301.928 250.083 301.432C249.349 300.935 248.525 300.588 247.658 300.411C246.79 300.233 245.896 300.228 245.026 300.396C244.157 300.564 243.329 300.902 242.59 301.39L216.654 318.504L205.808 277.982C205.808 277.982 205.808 277.982 205.808 277.981C205.465 276.697 204.749 275.543 203.751 274.664C202.753 273.785 201.517 273.221 200.199 273.043C198.882 272.866 197.541 273.082 196.345 273.664C195.15 274.247 194.154 275.17 193.482 276.318L193.48 276.321L156.76 339.619C153.529 327.225 150.666 314.152 148.509 299.967C165.483 276.797 180.485 253.429 191.313 231.816C202.089 210.339 208.942 190.766 208.718 174.333C208.61 166.099 206.626 158.415 201.892 152.308C197.153 146.168 189.92 142.136 180.92 140.292L180.895 140.356Z" fill="#3F86E2" stroke="#3F86E2" stroke-width="2"/>
</svg>
