<svg width="67" height="70" viewBox="0 0 67 70" fill="none" xmlns="http://www.w3.org/2000/svg">
<path fill-rule="evenodd" clip-rule="evenodd" d="M8.1438 4.77856H48.0608C50.2699 4.77856 52.0608 6.56943 52.0608 8.77856V39.1572C52.309 39.1457 52.5587 39.1399 52.8098 39.1399C53.9239 39.1399 55.0112 39.2543 56.0608 39.4719V8.77856C56.0608 4.36029 52.4791 0.778564 48.0608 0.778564H8.1438C3.72552 0.778564 0.143799 4.36029 0.143799 8.77857V52.9221C0.143799 57.3404 3.72552 60.9221 8.1438 60.9221H37.9889C37.4901 59.6598 37.1478 58.3185 36.9861 56.9221H8.1438C5.93466 56.9221 4.1438 55.1313 4.1438 52.9221V8.77857C4.1438 6.56943 5.93466 4.77856 8.1438 4.77856Z" fill="#111111"/>
<circle cx="52.8098" cy="55.0701" r="11.3291" stroke="#111111" stroke-width="4"/>
<line x1="12.1448" y1="13.4543" x2="23.7495" y2="13.4543" stroke="#111111" stroke-width="4" stroke-linecap="round"/>
<line x1="12.1448" y1="37.4543" x2="32.1343" y2="37.4543" stroke="#111111" stroke-width="4" stroke-linecap="round"/>
<line x1="12.1448" y1="25.4543" x2="41.3196" y2="25.4543" stroke="#111111" stroke-width="4" stroke-linecap="round"/>
<path d="M52.8078 53.9161H48.7278C48.6938 53.8594 48.6541 53.7744 48.6088 53.6611C48.5748 53.5364 48.5578 53.4117 48.5578 53.2871C48.5578 53.0491 48.6088 52.8791 48.7108 52.7771C48.8241 52.6751 48.9601 52.6241 49.1188 52.6241H56.1228C56.1681 52.7034 56.2078 52.7997 56.2418 52.9131C56.2758 53.0264 56.2928 53.1397 56.2928 53.2531C56.2928 53.4797 56.2361 53.6497 56.1228 53.7631C56.0208 53.8651 55.8905 53.9161 55.7318 53.9161H54.4908C54.4681 54.4374 54.3321 54.9134 54.0828 55.3441C53.8335 55.7747 53.4708 56.1261 52.9948 56.3981C52.5301 56.6701 51.9465 56.8287 51.2438 56.8741L54.4908 59.2711C54.4795 59.5884 54.3888 59.8377 54.2188 60.0191C54.0601 60.2004 53.8391 60.2911 53.5558 60.2911C53.3745 60.2911 53.1988 60.2401 53.0288 60.1381C52.8588 60.0361 52.6605 59.8887 52.4338 59.6961L49.2718 56.8231C49.2265 56.6871 49.2038 56.5567 49.2038 56.4321C49.2038 56.1261 49.3171 55.8994 49.5438 55.7521H50.5298C51.2211 55.7521 51.7651 55.5821 52.1618 55.2421C52.5698 54.9021 52.7851 54.4601 52.8078 53.9161ZM55.7318 51.0431H48.7278C48.6938 50.9751 48.6541 50.8844 48.6088 50.7711C48.5748 50.6464 48.5578 50.5217 48.5578 50.3971C48.5578 50.1704 48.6088 50.0061 48.7108 49.9041C48.8241 49.7907 48.9601 49.7341 49.1188 49.7341H56.1228C56.1681 49.7907 56.2078 49.8814 56.2418 50.0061C56.2758 50.1307 56.2928 50.2497 56.2928 50.3631C56.2928 50.6124 56.2361 50.7881 56.1228 50.8901C56.0208 50.9921 55.8905 51.0431 55.7318 51.0431Z" fill="black"/>
</svg>
