<svg width="47" height="61" viewBox="0 0 47 61" fill="none" xmlns="http://www.w3.org/2000/svg">
<path d="M42.9155 58.9221H4.28686C3.1823 58.9221 2.28687 58.0267 2.28687 56.9221V4.77856C2.28687 3.67399 3.18229 2.77856 4.28686 2.77856H32.7142C33.238 2.77856 33.741 2.98409 34.1149 3.35097L44.3162 13.3602C44.6996 13.7363 44.9155 14.2508 44.9155 14.7878V56.9221C44.9155 58.0267 44.0201 58.9221 42.9155 58.9221Z" stroke="#111111" stroke-width="4"/>
<line x1="10.1425" y1="24.5115" x2="33.3566" y2="24.5115" stroke="#111111" stroke-width="4" stroke-linecap="round"/>
<line x1="10.1425" y1="33.5115" x2="33.3566" y2="33.5115" stroke="#111111" stroke-width="4" stroke-linecap="round"/>
<line x1="10.1425" y1="51.5115" x2="33.3566" y2="51.5115" stroke="#111111" stroke-width="4" stroke-linecap="round"/>
<line x1="10.1425" y1="42.5115" x2="33.3566" y2="42.5115" stroke="#111111" stroke-width="4" stroke-linecap="round"/>
<path d="M34.2688 4.93175L35.8095 5.71214L43.1514 12.3283L43.4229 14.7534H34.2688L34.2688 9.21509L34.2688 4.93175Z" stroke="#111111" stroke-width="4"/>
</svg>
