<svg width="512" height="512" viewBox="0 0 512 512" fill="none" xmlns="http://www.w3.org/2000/svg">
<g clip-path="url(#clip0_545_2408)">
<path fill-rule="evenodd" clip-rule="evenodd" d="M190.965 114.512L296.169 243.26L201.386 214.937L158.473 110.336C159.281 97.7074 183.916 100.674 190.965 114.512ZM50.3014 112.797L43.1326 185.661C24.3696 185.782 16.1556 196.939 36.8206 211.216C57.4858 225.494 144.072 277.092 179.323 288.325L75.0716 387.492C64.0244 398.01 105.184 415.43 115.404 406.189L278.641 320.975L470.863 384.156C480.949 387.439 493.081 381.587 489.447 370.332C488.627 367.965 433.245 299.146 402.641 289.502L134.067 204.948C122.677 201.328 117.329 191.755 110.287 182.021L70.8905 127.47C64.8952 119.109 58.5742 115.515 50.3014 112.797Z" fill="#091853"/>
<rect width="15.0045" height="19.994" rx="5" transform="matrix(0.963132 0.267907 -0.261808 0.965433 162.686 232.789)" fill="white"/>
<rect width="15.0045" height="19.994" rx="5" transform="matrix(0.963132 0.267907 -0.261808 0.965433 187.304 240.883)" fill="white"/>
<rect width="15.0045" height="19.994" rx="5" transform="matrix(0.963132 0.267907 -0.261808 0.965433 211.922 248.977)" fill="white"/>
<rect width="15.0045" height="19.994" rx="5" transform="matrix(0.963132 0.267907 -0.261808 0.965433 236.54 257.072)" fill="white"/>
<rect width="15.0045" height="19.994" rx="5" transform="matrix(0.963132 0.267907 -0.261808 0.965433 261.158 265.166)" fill="white"/>
<rect width="15.0045" height="19.994" rx="5" transform="matrix(0.963132 0.267907 -0.261808 0.965433 285.777 273.26)" fill="white"/>
<rect width="15.0045" height="19.994" rx="5" transform="matrix(0.963132 0.267907 -0.261808 0.965433 310.395 281.354)" fill="white"/>
<rect width="15.0045" height="19.994" rx="5" transform="matrix(0.963132 0.267907 -0.261808 0.965433 335.013 289.449)" fill="white"/>
<rect width="15.0045" height="19.994" rx="5" transform="matrix(0.963132 0.267907 -0.261808 0.965433 359.631 297.543)" fill="white"/>
<rect width="15.0045" height="19.994" rx="5" transform="matrix(0.963132 0.267907 -0.261808 0.965433 384.249 305.637)" fill="white"/>
</g>
<defs>
<clipPath id="clip0_545_2408">
<rect width="512" height="512" fill="white"/>
</clipPath>
</defs>
</svg>
