<svg width="512" height="512" viewBox="0 0 512 512" fill="none" xmlns="http://www.w3.org/2000/svg">
<path fill-rule="evenodd" clip-rule="evenodd" d="M116.208 108.268L276.234 153.389L182.346 184.554L87.1976 123.483C80.6159 112.675 102.497 100.975 116.208 108.268ZM0 187.544L35.9212 251.343C20.6204 262.203 20.2917 276.055 45.4084 275.897C70.5258 275.739 171.049 268.342 206.367 257.324L177.849 398.353C174.833 413.306 218.541 403.967 221.612 390.535L306.451 227.104L500.149 168.604C510.295 165.508 516.875 153.756 507.443 146.621C505.414 145.152 420.575 120.545 389.973 130.198L121.473 214.984C110.066 218.551 100.195 213.777 88.8428 209.842L25.2818 187.754C15.575 184.344 8.33588 185.025 0 187.544Z" fill="#DC8400"/>
<rect x="161.438" y="221.464" width="15" height="20" rx="5" transform="rotate(-19.6885 161.438 221.464)" fill="white"/>
<rect x="186.212" y="213.874" width="15" height="20" rx="5" transform="rotate(-19.6885 186.212 213.874)" fill="white"/>
<rect x="210.986" y="206.284" width="15" height="20" rx="5" transform="rotate(-19.6885 210.986 206.284)" fill="white"/>
<rect x="235.76" y="198.694" width="15" height="20" rx="5" transform="rotate(-19.6885 235.76 198.694)" fill="white"/>
<rect x="260.534" y="191.104" width="15" height="20" rx="5" transform="rotate(-19.6885 260.534 191.104)" fill="white"/>
<rect x="285.307" y="183.514" width="15" height="20" rx="5" transform="rotate(-19.6885 285.307 183.514)" fill="white"/>
<rect x="310.081" y="175.924" width="15" height="20" rx="5" transform="rotate(-19.6885 310.081 175.924)" fill="white"/>
<rect x="334.855" y="168.335" width="15" height="20" rx="5" transform="rotate(-19.6885 334.855 168.335)" fill="white"/>
<rect x="359.629" y="160.745" width="15" height="20" rx="5" transform="rotate(-19.6885 359.629 160.745)" fill="white"/>
<rect x="384.403" y="153.155" width="15" height="20" rx="5" transform="rotate(-19.6885 384.403 153.155)" fill="white"/>
</svg>
