<svg width="512" height="512" viewBox="0 0 512 512" fill="none" xmlns="http://www.w3.org/2000/svg">
<path d="M435.797 78H75.7074C55.8938 78 36.8916 85.8811 22.8813 99.9095C8.87094 113.938 1 132.965 1 152.804V359.636C1 379.475 8.87094 398.502 22.8813 412.53C36.8916 426.559 55.8938 434.44 75.7074 434.44H435.797C455.611 434.44 474.613 426.559 488.623 412.53C502.633 398.502 510.504 379.475 510.504 359.636V152.804C510.504 132.965 502.633 113.938 488.623 99.9095C474.613 85.8811 455.611 78 435.797 78ZM485.602 359.636C485.602 372.862 480.355 385.547 471.014 394.899C461.674 404.251 449.006 409.505 435.797 409.505H75.7074C62.4983 409.505 49.8302 404.251 40.49 394.899C31.1497 385.547 25.9025 372.862 25.9025 359.636V152.804C25.9025 139.578 31.1497 126.893 40.49 117.541C49.8302 108.189 62.4983 102.935 75.7074 102.935H435.797C449.006 102.935 461.674 108.189 471.014 117.541C480.355 126.893 485.602 139.578 485.602 152.804V359.636Z" fill="black"/>
<path d="M274.558 217.11C271.901 220.662 269.476 226.487 265.826 235.748C265.826 235.748 265.826 235.748 265.826 235.748L264.431 235.198C264.09 236.061 263.737 236.956 263.372 237.878L274.558 217.11ZM274.558 217.11C275.854 215.378 277.156 214.259 278.623 213.556C280.096 212.849 281.847 212.508 284.121 212.508C291.115 212.508 296.806 218.199 296.806 225.193C296.806 232.186 291.115 237.878 284.121 237.878H264.985L274.558 217.11ZM245.676 235.748C245.948 236.438 246.229 237.149 246.517 237.878H227.381C220.388 237.878 214.696 232.186 214.696 225.193C214.696 218.199 220.388 212.508 227.381 212.508C229.656 212.508 231.406 212.849 232.88 213.556C234.346 214.259 235.649 215.378 236.944 217.11C239.601 220.662 242.026 226.487 245.676 235.748ZM245.676 235.748L247.072 235.198M245.676 235.748C245.676 235.748 245.676 235.748 245.676 235.748L247.072 235.198M247.072 235.198C247.412 236.061 247.765 236.956 248.13 237.878L227.381 239.378C219.559 239.378 213.196 233.014 213.196 225.193C213.196 217.371 219.559 211.008 227.381 211.008C237.074 211.008 239.828 216.821 247.072 235.198ZM264.703 209.498L265.894 210.401L264.703 209.498C261.262 214.037 258.648 220.086 255.751 227.352C252.855 220.085 250.24 214.037 246.799 209.498L245.66 210.362L246.799 209.498C241.924 203.069 235.683 200.051 227.381 200.051C213.516 200.051 202.239 211.328 202.239 225.193C202.239 229.816 203.495 234.152 205.681 237.878H189.239C180.589 237.878 173.554 244.913 173.554 253.563V263.02C173.554 269.461 177.455 274.999 183.01 277.412V348.761C183.01 357.411 190.045 364.446 198.696 364.446H312.807C321.457 364.446 328.492 357.411 328.492 348.761V277.412C334.048 274.999 337.949 269.461 337.949 263.02V253.563C337.949 244.913 330.914 237.878 322.264 237.878H305.821C308.007 234.152 309.263 229.816 309.263 225.193C309.263 211.328 297.986 200.051 284.121 200.051C275.819 200.051 269.578 203.069 264.703 209.498ZM235.338 351.989H198.696C196.917 351.989 195.467 350.539 195.467 348.761V278.705H235.338V351.989ZM235.338 266.248H189.239C187.46 266.248 186.01 264.798 186.01 263.02V253.563C186.01 251.784 187.46 250.335 189.239 250.335H235.338V266.248ZM247.794 351.989V250.335H247.808H247.835H247.861H247.888H247.915H247.942H247.969H247.997H248.025H248.053H248.081H248.109H248.137H248.166H248.195H248.224H248.253H248.282H248.311H248.341H248.371H248.401H248.431H248.461H248.492H248.523H248.553H248.584H248.616H248.647H248.678H248.71H248.742H248.774H248.806H248.838H248.871H248.903H248.936H248.969H249.002H249.035H249.069H249.102H249.136H249.17H249.204H249.238H249.272H249.307H249.341H249.376H249.411H249.446H249.481H249.517H249.552H249.588H249.623H249.659H249.695H249.731H249.768H249.804H249.841H249.877H249.914H249.951H249.988H250.026H250.063H250.1H250.138H250.176H250.214H250.252H250.29H250.328H250.366H250.405H250.443H250.482H250.521H250.56H250.599H250.638H250.678H250.717H250.757H250.796H250.836H250.876H250.916H250.956H250.997H251.037H251.077H251.118H251.159H251.199H251.24H251.281H251.322H251.364H251.405H251.446H251.488H251.529H251.571H251.613H251.655H251.697H251.739H251.781H251.823H251.866H251.908H251.951H251.993H252.036H252.079H252.122H252.165H252.208H252.251H252.294H252.338H252.381H252.425H252.468H252.512H252.556H252.599H252.643H252.687H252.731H252.776H252.82H252.864H252.908H252.953H252.997H253.042H253.087H253.131H253.176H253.221H253.266H253.311H253.356H253.401H253.446H253.491H253.537H253.582H253.627H253.673H253.718H253.764H253.81H253.855H253.901H253.947H253.993H254.039H254.085H254.131H254.177H254.223H254.269H254.315H254.362H254.408H254.454H254.501H254.547H254.594H254.64H254.687H254.733H254.78H254.827H254.873H254.92H254.967H255.014H255.061H255.108H255.155H255.201H255.248H255.295H255.343H255.39H255.437H255.484H255.531H255.578H255.625H255.673H255.72H255.767H255.815H255.862H255.909H255.957H256.004H256.051H256.099H256.146H256.194H256.241H256.289H256.336H256.383H256.431H256.478H256.526H256.574H256.621H256.669H256.716H256.764H256.811H256.859H256.906H256.954H257.001H257.049H257.097H257.144H257.192H257.239H257.287H257.334H257.382H257.429H257.477H257.524H257.572H257.619H257.667H257.714H257.762H257.809H257.857H257.904H257.951H257.999H258.046H258.093H258.141H258.188H258.235H258.283H258.33H258.377H258.424H258.471H258.519H258.566H258.613H258.66H258.707H258.754H258.801H258.848H258.894H258.941H258.988H259.035H259.082H259.128H259.175H259.222H259.268H259.315H259.361H259.408H259.454H259.501H259.547H259.593H259.64H259.686H259.732H259.778H259.824H259.87H259.916H259.962H260.008H260.054H260.099H260.145H260.191H260.236H260.282H260.327H260.373H260.418H260.463H260.508H260.554H260.599H260.644H260.689H260.734H260.778H260.823H260.868H260.912H260.957H261.001H261.046H261.09H261.134H261.179H261.223H261.267H261.311H261.355H261.398H261.442H261.486H261.529H261.573H261.616H261.66H261.703H261.746H261.789H261.832H261.875H261.918H261.96H262.003H262.045H262.088H262.13H262.172H262.215H262.257H262.299H262.34H262.382H262.424H262.466H262.507H262.548H262.59H262.631H262.672H262.713H262.754H262.794H262.835H262.876H262.916H262.956H262.996H263.037H263.077H263.116H263.156H263.196H263.235H263.275H263.314H263.353H263.392H263.431H263.47H263.509H263.547H263.586H263.624H263.662H263.7H263.708V351.989H247.794ZM316.035 348.761C316.035 350.539 314.586 351.989 312.807 351.989H276.165V278.705H316.035V348.761ZM325.492 263.02C325.492 264.798 324.042 266.248 322.264 266.248H276.165V250.335H322.264C324.042 250.335 325.492 251.784 325.492 253.563V263.02Z" fill="#3F86E2" stroke="#3F86E2" stroke-width="3"/>
<rect x="17.543" y="317.927" width="157.511" height="20.7258" fill="black"/>
<rect x="336.449" y="317.927" width="157.511" height="20.7258" fill="black"/>
</svg>
