<svg width="512" height="512" viewBox="0 0 512 512" fill="none" xmlns="http://www.w3.org/2000/svg">
<path d="M255.555 50.3169C208.769 50.3169 169.928 88.2755 169.928 135.944C169.928 183.613 208.769 220.689 255.555 220.689C302.341 220.689 341.183 182.731 341.183 135.062C341.183 87.3927 302.341 50.3169 255.555 50.3169ZM212.3 112.11C208.769 115.641 202.59 115.641 199.059 112.11C195.528 108.579 195.528 102.4 199.059 98.8686C207.886 90.041 222.893 90.041 231.721 98.8686C235.252 102.4 235.252 108.579 231.721 112.11C228.19 115.641 222.01 115.641 218.479 112.11C217.597 110.344 214.948 110.344 212.3 112.11ZM289.983 173.02C280.273 182.731 267.914 187.144 255.555 187.144C243.197 187.144 230.838 182.731 221.128 173.02C217.597 169.489 217.597 163.31 221.128 159.779C224.659 156.248 230.838 156.248 234.369 159.779C246.728 172.138 266.148 172.138 277.624 159.779C281.155 156.248 287.335 156.248 290.866 159.779C293.514 164.193 293.514 169.489 289.983 173.02ZM311.169 112.11C307.638 115.641 301.459 115.641 297.928 112.11C296.162 110.344 292.631 110.344 290.866 112.11C287.335 115.641 281.155 115.641 277.624 112.11C274.093 108.579 274.093 102.4 277.624 98.8686C286.452 90.041 301.459 90.041 310.286 98.8686C314.7 103.282 314.7 108.579 311.169 112.11Z" fill="black"/>
<path d="M244.082 421.958C278.51 441.379 321.765 451.972 373.848 443.145C385.323 423.724 391.503 400.772 391.503 376.055V331.917C282.041 348.689 251.144 403.42 244.082 421.958Z" fill="black"/>
<path d="M228.191 412.249C233.487 399.89 244.963 380.47 268.798 361.932C239.667 353.104 188.467 318.677 120.494 205.684V264.828C124.908 278.07 157.57 363.697 228.191 412.249Z" fill="black"/>
<path d="M120.494 308.966V376.938C120.494 451.09 180.522 512 255.556 512C297.046 512 334.122 493.462 358.839 463.449C350.894 464.331 343.832 464.331 335.887 464.331C237.901 465.214 165.515 396.359 120.494 308.966Z" fill="black"/>
<path d="M255.556 0C180.522 0 120.494 60.9103 120.494 135.062V169.49C222.894 349.572 283.804 346.924 291.749 346.041C315.584 331.917 348.246 319.558 391.501 313.379V135.062C390.618 60.9103 330.591 0 255.556 0ZM255.556 239.227C198.177 239.227 152.273 192.441 152.273 135.945C152.273 79.4482 198.177 31.7793 255.556 31.7793C312.935 31.7793 358.839 78.5655 358.839 135.062C358.839 191.559 312.935 239.227 255.556 239.227Z" fill="black"/>
</svg>
