<svg width="512" height="512" viewBox="0 0 512 512" fill="none" xmlns="http://www.w3.org/2000/svg">
<path d="M85.1106 103.289C66.41 103.289 51 118.676 51 137.348V477.941C51 496.613 66.41 512 85.1106 512H289.774C308.474 512 323.884 496.613 323.884 477.941V443.881H426.216C444.92 443.881 460.327 428.498 460.327 409.822V205.467C460.327 186.791 444.92 171.407 426.216 171.407H323.884V137.348C323.884 118.676 308.474 103.289 289.774 103.289H85.1106ZM85.1106 125.995H289.774C296.27 125.995 301.144 130.862 301.144 137.348V477.941C301.144 484.427 296.27 489.294 289.774 489.294H85.1106C78.6148 489.294 73.7404 484.427 73.7404 477.941V137.348C73.7404 130.862 78.6148 125.995 85.1106 125.995ZM323.884 194.114H426.216C432.63 194.114 437.586 199.062 437.586 205.467V239.526H323.884V194.114ZM323.884 262.232H437.586V409.822C437.586 416.227 432.63 421.175 426.216 421.175H323.884V262.232Z" fill="black"/>
<path d="M119.22 421.176C106.795 421.176 96.4795 431.476 96.4795 443.882C96.4795 456.288 106.795 466.588 119.22 466.588C131.644 466.588 141.96 456.288 141.96 443.882C141.96 431.476 131.644 421.176 119.22 421.176Z" fill="#36353B"/>
<path d="M187.441 421.176C175.017 421.176 164.701 431.476 164.701 443.882C164.701 456.288 175.017 466.588 187.441 466.588C199.866 466.588 210.181 456.288 210.181 443.882C210.181 431.476 199.866 421.176 187.441 421.176Z" fill="#F5F5F5"/>
<path d="M255.661 421.176C243.237 421.176 232.921 431.476 232.921 443.882C232.921 456.288 243.237 466.588 255.661 466.588C268.086 466.588 278.402 456.288 278.402 443.882C278.402 431.476 268.086 421.176 255.661 421.176Z" fill="#36353B"/>
<path d="M119.22 364.41C106.795 364.41 96.4795 374.71 96.4795 387.116C96.4795 399.522 106.795 409.822 119.22 409.822C131.644 409.822 141.96 399.522 141.96 387.116C141.96 374.71 131.644 364.41 119.22 364.41Z" fill="#F5F5F5"/>
<path d="M187.441 364.41C175.017 364.41 164.701 374.71 164.701 387.116C164.701 399.522 175.017 409.822 187.441 409.822C199.866 409.822 210.181 399.522 210.181 387.116C210.181 374.71 199.866 364.41 187.441 364.41Z" fill="#36353B"/>
<path d="M255.661 364.41C243.237 364.41 232.921 374.71 232.921 387.116C232.921 399.522 243.237 409.822 255.661 409.822C268.086 409.822 278.402 399.522 278.402 387.116C278.402 374.71 268.086 364.41 255.661 364.41Z" fill="#F5F5F5"/>
<path d="M119.22 307.644C106.795 307.644 96.4795 317.945 96.4795 330.35C96.4795 342.756 106.795 353.057 119.22 353.057C131.644 353.057 141.96 342.756 141.96 330.35C141.96 317.945 131.644 307.644 119.22 307.644Z" fill="#36353B"/>
<path d="M187.441 307.644C175.017 307.644 164.701 317.945 164.701 330.35C164.701 342.756 175.017 353.057 187.441 353.057C199.866 353.057 210.181 342.756 210.181 330.35C210.181 317.945 199.866 307.644 187.441 307.644Z" fill="#F5F5F5"/>
<path d="M255.661 307.644C243.237 307.644 232.921 317.945 232.921 330.35C232.921 342.756 243.237 353.057 255.661 353.057C268.086 353.057 278.402 342.756 278.402 330.35C278.402 317.945 268.086 307.644 255.661 307.644Z" fill="#36353B"/>
<path d="M107.85 194.114C104.834 194.114 101.942 195.31 99.8101 197.439C97.6778 199.568 96.4798 202.456 96.4795 205.467V273.585C96.4798 276.596 97.6778 279.484 99.8101 281.613C101.942 283.742 104.834 284.938 107.85 284.938H267.032C270.048 284.938 272.94 283.742 275.072 281.613C277.204 279.484 278.402 276.596 278.402 273.585V205.467C278.402 202.456 277.204 199.568 275.072 197.439C272.94 195.31 270.048 194.114 267.032 194.114H107.85ZM119.22 216.82H255.662V262.232H119.22V216.82Z" fill="#36353B"/>
<path d="M107.85 148.701C104.834 148.701 101.942 149.897 99.8097 152.027C97.6774 154.156 96.4795 157.043 96.4795 160.054C96.4795 163.065 97.6774 165.953 99.8097 168.082C101.942 170.211 104.834 171.407 107.85 171.407H267.032C270.048 171.407 272.94 170.211 275.072 168.082C277.205 165.953 278.402 163.065 278.402 160.054C278.402 157.043 277.205 154.156 275.072 152.027C272.94 149.897 270.048 148.701 267.032 148.701H107.85Z" fill="#36353B"/>
<path d="M357.996 330.351C354.981 330.351 352.089 331.547 349.957 333.676C347.824 335.805 346.626 338.693 346.626 341.704V387.116C346.626 390.127 347.824 393.014 349.957 395.144C352.089 397.273 354.981 398.469 357.996 398.469H403.477C406.492 398.469 409.384 397.273 411.517 395.144C413.649 393.014 414.847 390.127 414.847 387.116V341.704C414.847 338.693 413.649 335.805 411.517 333.676C409.384 331.547 406.492 330.351 403.477 330.351H357.996ZM369.366 353.057H392.107V375.763H369.366V353.057Z" fill="#36353B"/>
<path d="M357.996 284.938C354.981 284.938 352.089 286.134 349.956 288.263C347.824 290.393 346.626 293.28 346.626 296.291C346.626 299.302 347.824 302.19 349.956 304.319C352.089 306.448 354.981 307.644 357.996 307.644H403.477C406.492 307.644 409.385 306.448 411.517 304.319C413.649 302.19 414.847 299.302 414.847 296.291C414.847 293.28 413.649 290.393 411.517 288.263C409.385 286.134 406.492 284.938 403.477 284.938H357.996Z" fill="#36353B"/>
<path d="M338.318 105.657C358.964 96.4755 383.127 105.616 392.192 125.999C393.636 129.248 397.462 130.681 400.723 129.231C403.984 127.78 405.482 123.98 404.037 120.731C392.086 93.8579 360.26 81.8483 333.101 93.9262C329.84 95.3764 328.341 99.1764 329.786 102.425C331.231 105.675 335.057 107.107 338.318 105.657Z" fill="#3F86E2" stroke="#3F86E2" stroke-width="2"/>
<path d="M326.863 79.899C361.878 64.328 402.868 79.8252 418.249 114.412C419.694 117.661 423.519 119.093 426.78 117.643C430.041 116.193 431.54 112.393 430.095 109.144C411.828 68.0676 363.174 49.7007 321.647 68.1683C318.386 69.6184 316.887 73.4185 318.332 76.6676C319.777 79.9167 323.603 81.3492 326.863 79.899Z" fill="#3F86E2" stroke="#3F86E2" stroke-width="2"/>
<path d="M349.747 131.356C356.058 128.549 363.432 131.348 366.195 137.561C367.64 140.81 371.465 142.242 374.726 140.792C377.987 139.342 379.485 135.542 378.04 132.293C372.391 119.59 357.355 113.922 344.53 119.625C341.27 121.075 339.771 124.875 341.216 128.124C342.661 131.373 346.486 132.806 349.747 131.356Z" fill="#3F86E2" stroke="#3F86E2" stroke-width="2"/>
<path d="M389.724 15.5356L389.724 15.5358L397.279 25.9959L407.922 18.312C407.922 18.312 407.922 18.3119 407.922 18.3118C410.834 16.209 414.875 16.8253 416.941 19.6872C419.01 22.5509 418.324 26.5766 415.41 28.6805L404.767 36.3639L412.321 46.8224C414.389 49.6859 413.704 53.7121 410.79 55.8155C410.79 55.8156 410.79 55.8156 410.79 55.8157C410.79 55.8157 410.79 55.8158 410.79 55.8158C409.334 56.8673 407.593 57.2388 405.963 56.9902C404.333 56.7416 402.805 55.8713 401.771 54.4407L401.771 54.4404L394.217 43.9808M389.724 15.5356L394.217 43.9808M389.724 15.5356C387.656 12.674 383.617 12.0574 380.706 14.1604L389.724 15.5356ZM394.217 43.9808L395.034 43.3906L394.456 42.5893L394.454 42.5868L393.636 43.1774L394.217 43.9808ZM387.546 33.0224L388.127 33.826L387.309 34.4164L386.728 33.6128L387.546 33.0224ZM383.573 51.6649L382.994 50.8642L383.572 51.6652L383.573 51.6649ZM375.368 49.7018L374.554 50.2896C374.554 50.2897 374.554 50.2898 374.554 50.2899L375.368 49.7018ZM379.174 23.1538L379.992 22.5633L379.174 23.1538L379.174 23.1538ZM403.949 36.9543L403.369 36.1507L404.187 35.5603L403.949 36.9543ZM380.705 14.1605C380.705 14.1605 380.705 14.1606 380.705 14.1607C380.705 14.1606 380.705 14.1605 380.705 14.1605Z" fill="#3F86E2" stroke="#3F86E2" stroke-width="2"/>
</svg>
