<svg width="512" height="512" viewBox="0 0 512 512" fill="none" xmlns="http://www.w3.org/2000/svg">
<path d="M85.1106 94.7888C65.0329 94.7888 48.5 111.291 48.5 131.348V471.941C48.5 491.997 65.0329 508.5 85.1106 508.5H289.774C309.852 508.5 326.384 491.997 326.384 471.941V440.381H426.216C446.297 440.381 462.827 423.882 462.827 403.822V199.467C462.827 179.406 446.297 162.907 426.216 162.907H326.384V131.348C326.384 111.291 309.852 94.7888 289.774 94.7888H85.1106ZM85.1106 122.495H289.774C294.893 122.495 298.644 126.246 298.644 131.348V471.941C298.644 477.042 294.893 480.794 289.774 480.794H85.1106C79.992 480.794 76.2404 477.042 76.2404 471.941V131.348C76.2404 126.246 79.992 122.495 85.1106 122.495ZM326.384 190.614H426.216C431.253 190.614 435.086 194.446 435.086 199.467V231.026H326.384V190.614ZM326.384 258.732H435.086V403.822C435.086 408.843 431.253 412.675 426.216 412.675H326.384V258.732Z" fill="white" stroke="white" stroke-width="5"/>
<path d="M119.22 414.676C105.418 414.676 93.9797 426.092 93.9797 439.882C93.9797 453.672 105.418 465.088 119.22 465.088C133.022 465.088 144.46 453.672 144.46 439.882C144.46 426.092 133.022 414.676 119.22 414.676Z" fill="white" stroke="white" stroke-width="5"/>
<path d="M187.441 414.676C173.64 414.676 162.201 426.092 162.201 439.882C162.201 453.672 173.64 465.088 187.441 465.088C201.243 465.088 212.682 453.672 212.682 439.882C212.682 426.092 201.243 414.676 187.441 414.676Z" fill="white" stroke="white" stroke-width="5"/>
<path d="M255.661 414.676C241.86 414.676 230.421 426.092 230.421 439.882C230.421 453.672 241.86 465.088 255.661 465.088C269.463 465.088 280.902 453.672 280.902 439.882C280.902 426.092 269.463 414.676 255.661 414.676Z" fill="white" stroke="white" stroke-width="5"/>
<path d="M119.22 357.91C105.418 357.91 93.9797 369.326 93.9797 383.116C93.9797 396.906 105.418 408.322 119.22 408.322C133.022 408.322 144.46 396.906 144.46 383.116C144.46 369.326 133.022 357.91 119.22 357.91Z" fill="white" stroke="white" stroke-width="5"/>
<path d="M187.441 357.91C173.64 357.91 162.201 369.326 162.201 383.116C162.201 396.906 173.64 408.322 187.441 408.322C201.243 408.322 212.682 396.906 212.682 383.116C212.682 369.326 201.243 357.91 187.441 357.91Z" fill="white" stroke="white" stroke-width="5"/>
<path d="M255.661 357.91C241.86 357.91 230.421 369.326 230.421 383.116C230.421 396.906 241.86 408.322 255.661 408.322C269.463 408.322 280.902 396.906 280.902 383.116C280.902 369.326 269.463 357.91 255.661 357.91Z" fill="white" stroke="white" stroke-width="5"/>
<path d="M119.22 301.144C105.418 301.144 93.9797 312.56 93.9797 326.35C93.9797 340.141 105.418 351.557 119.22 351.557C133.022 351.557 144.46 340.141 144.46 326.35C144.46 312.56 133.022 301.144 119.22 301.144Z" fill="white" stroke="white" stroke-width="5"/>
<path d="M187.441 301.144C173.64 301.144 162.201 312.56 162.201 326.35C162.201 340.141 173.64 351.557 187.441 351.557C201.243 351.557 212.682 340.141 212.682 326.35C212.682 312.56 201.243 301.144 187.441 301.144Z" fill="white" stroke="white" stroke-width="5"/>
<path d="M255.661 301.144C241.86 301.144 230.421 312.56 230.421 326.35C230.421 340.141 241.86 351.557 255.661 351.557C269.463 351.557 280.902 340.141 280.902 326.35C280.902 312.56 269.463 301.144 255.661 301.144Z" fill="white" stroke="white" stroke-width="5"/>
<path d="M107.85 187.614H107.85C104.172 187.614 100.645 189.073 98.0439 191.67C95.4424 194.268 93.9801 197.791 93.9797 201.466V201.467V269.585V269.585C93.9801 273.261 95.4424 276.784 98.0439 279.382C100.645 281.979 104.172 283.438 107.85 283.438H107.85H267.033H267.033C270.71 283.438 274.237 281.979 276.839 279.382C279.44 276.784 280.902 273.261 280.903 269.585V269.585V201.467V201.466C280.902 197.791 279.44 194.268 276.839 191.67C274.237 189.073 270.71 187.614 267.033 187.614H267.033H107.85ZM121.72 215.32H253.162V255.732H121.72V215.32Z" fill="white" stroke="white" stroke-width="5"/>
<path d="M107.85 142.201C104.173 142.201 100.645 143.66 98.0436 146.257C95.442 148.855 93.9797 152.379 93.9797 156.054C93.9797 159.73 95.442 163.254 98.0436 165.851C100.645 168.449 104.173 169.907 107.85 169.907H267.033C270.71 169.907 274.237 168.449 276.839 165.851C279.441 163.254 280.903 159.73 280.903 156.054C280.903 152.379 279.441 148.855 276.839 146.257C274.237 143.66 270.71 142.201 267.033 142.201H107.85Z" fill="white" stroke="white" stroke-width="5"/>
<path d="M357.996 322.851H357.996C354.319 322.851 350.792 324.31 348.19 326.907C345.589 329.505 344.127 333.028 344.126 336.703V336.704V382.116V382.116C344.127 385.791 345.589 389.315 348.19 391.913C350.792 394.51 354.319 395.969 357.996 395.969H357.996H403.477H403.477C407.155 395.969 410.682 394.51 413.283 391.913C415.885 389.315 417.347 385.791 417.347 382.116V382.116V336.704V336.703C417.347 333.028 415.885 329.505 413.283 326.907C410.682 324.31 407.155 322.851 403.477 322.851H403.477H357.996ZM371.867 350.557H389.607V368.263H371.867V350.557Z" fill="white" stroke="white" stroke-width="5"/>
<path d="M357.996 277.438C354.319 277.438 350.791 278.897 348.19 281.494C345.588 284.092 344.126 287.616 344.126 291.291C344.126 294.967 345.588 298.491 348.19 301.088C350.791 303.686 354.319 305.144 357.996 305.144H403.477C407.155 305.144 410.682 303.686 413.284 301.088C415.885 298.491 417.347 294.967 417.347 291.291C417.347 287.616 415.885 284.092 413.284 281.494C410.682 278.897 407.155 277.438 403.477 277.438H357.996Z" fill="white" stroke="white" stroke-width="5"/>
<path d="M347.928 107.028C367.832 98.1762 391.1 106.998 399.821 126.609C401.61 130.63 406.33 132.381 410.333 130.601C414.336 128.821 416.196 124.143 414.408 120.122C402.114 92.4766 369.393 80.1478 341.492 92.5557C337.489 94.3359 335.628 99.0142 337.416 103.035C339.204 107.056 343.925 108.808 347.928 107.028Z" fill="white" stroke="white" stroke-width="5"/>
<path d="M336.473 81.2697C370.745 66.0286 410.841 81.2067 425.879 115.021C427.667 119.042 432.387 120.794 436.39 119.014C440.393 117.234 442.253 112.555 440.465 108.534C421.855 66.6864 372.307 48.0003 330.037 66.7978C326.034 68.5779 324.174 73.2563 325.962 77.2772C327.75 81.2981 332.47 83.0499 336.473 81.2697Z" fill="white" stroke="white" stroke-width="5"/>
<path d="M359.357 132.726C364.926 130.25 371.405 132.729 373.824 138.17C375.613 142.191 380.333 143.943 384.336 142.163C388.339 140.383 390.199 135.704 388.411 131.683C382.419 118.209 366.488 112.221 352.921 118.254C348.918 120.035 347.058 124.713 348.846 128.734C350.634 132.755 355.354 134.507 359.357 132.726Z" fill="white" stroke="white" stroke-width="5"/>
<path d="M402.861 46.072L409.545 55.3264L409.546 55.327C410.82 57.0897 412.704 58.1629 414.712 58.4691C416.718 58.775 418.866 58.3177 420.66 57.0217C420.661 57.0216 420.661 57.0214 420.661 57.0213C420.661 57.0212 420.661 57.021 420.661 57.0209C424.253 54.4281 425.097 49.4657 422.548 45.9366L415.865 36.6839L425.281 29.8863C428.872 27.2933 429.717 22.3316 427.169 18.8021C424.622 15.274 419.641 14.5144 416.053 17.1063C416.052 17.1065 416.052 17.1066 416.052 17.1068L406.635 23.905L399.951 14.6502L399.951 14.6494L402.861 46.072ZM402.861 46.072L404.905 44.5963L403.456 42.5894L403.454 42.587L401.41 44.0634L402.861 46.072ZM413.821 38.1598L412.369 36.1508L414.414 34.6749L413.821 38.1598ZM393.444 52.8703L391.993 50.8615L393.443 52.8709C393.443 52.8708 393.444 52.8706 393.444 52.8705C393.444 52.8705 393.444 52.8704 393.444 52.8703ZM382.328 51.1758L384.372 49.6994L382.327 51.1752C382.328 51.1754 382.328 51.1756 382.328 51.1758ZM395.676 31.8171L397.127 33.8261L395.083 35.3021L393.632 33.293L395.676 31.8171ZM386.948 24.0398L388.99 22.5652L386.948 24.0398C386.948 24.0398 386.948 24.0398 386.948 24.0398ZM388.835 12.9554L390.286 14.9643L388.836 12.9548C388.836 12.9549 388.836 12.955 388.835 12.9551L388.835 12.9554Z" fill="white" stroke="white" stroke-width="5"/>
</svg>
