<svg width="512" height="512" viewBox="0 0 512 512" fill="none" xmlns="http://www.w3.org/2000/svg">
<path d="M435.797 78H75.7066C55.8929 78 36.8908 85.8811 22.8804 99.9096C8.86998 113.938 0.999023 132.965 0.999023 152.804V359.637C0.999023 379.476 8.86998 398.503 22.8804 412.531C36.8908 426.56 55.8929 434.441 75.7066 434.441H435.797C455.611 434.441 474.613 426.56 488.623 412.531C502.634 398.503 510.505 379.476 510.505 359.637V152.804C510.505 132.965 502.634 113.938 488.623 99.9096C474.613 85.8811 455.611 78 435.797 78ZM485.602 359.637C485.602 372.863 480.355 385.548 471.015 394.9C461.674 404.252 449.006 409.506 435.797 409.506H75.7066C62.4975 409.506 49.8294 404.252 40.4891 394.9C31.1489 385.548 25.9016 372.863 25.9016 359.637V152.804C25.9016 139.578 31.1489 126.893 40.4891 117.541C49.8294 108.189 62.4975 102.935 75.7066 102.935H435.797C449.006 102.935 461.674 108.189 471.015 117.541C480.355 126.893 485.602 139.578 485.602 152.804V359.637ZM372.109 206.351H276.234V181.417H372.109V206.351ZM276.234 243.753H434.365V268.688H276.234V243.753ZM276.234 306.09H434.365V331.024H276.234V306.09Z" fill="black"/>
<path d="M183.906 240.554C194.452 231.648 200.608 218.52 200.628 204.624V204.621C200.606 178.643 179.488 157.5 153.489 157.5C127.49 157.5 106.372 178.644 106.372 204.643L106.372 204.646C106.392 218.54 112.529 231.669 123.092 240.576C90.6569 252.887 67.5 284.224 67.5 320.934L67.5 320.936C67.5221 339.47 82.5254 354.5 101.063 354.5H205.937H205.939C224.473 354.478 239.478 339.472 239.5 320.936V320.934C239.5 284.203 216.342 252.864 183.906 240.554ZM205.937 337.628H101.063C91.8363 337.628 84.3497 330.141 84.3497 320.913C84.3497 282.781 115.362 251.766 153.489 251.766C191.617 251.766 222.629 282.781 222.629 320.913C222.629 330.142 215.141 337.628 205.937 337.628ZM123.222 204.643C123.222 187.952 136.8 174.372 153.489 174.372C170.179 174.372 183.757 187.952 183.757 204.643C183.757 221.335 170.179 234.914 153.489 234.914C136.8 234.914 123.222 221.335 123.222 204.643Z" fill="#3F86E2" stroke="#3F86E2" stroke-width="3"/>
</svg>
