<svg width="18" height="16" viewBox="0 0 18 16" fill="none" xmlns="http://www.w3.org/2000/svg">
    <path
        d="M14.7925 0.999384C13.4715 -0.333128 11.3421 -0.333128 10.0408 0.999384L6.47201 4.59916C6.31427 4.75826 6.17626 4.93726 6.03824 5.11625C6.74804 4.93726 7.517 4.97703 8.20709 5.21569L11.2238 2.19268C11.8744 1.53637 12.9391 1.53637 13.6095 2.19268C14.2601 2.84899 14.2601 3.92296 13.6095 4.59916L10.0408 8.19893C9.5084 8.73591 8.68029 8.83535 8.04935 8.49725C7.91134 8.4177 7.77332 8.31826 7.67473 8.19893C7.55643 8.0796 7.45785 7.96027 7.37898 7.82105C6.96493 7.66195 6.45229 7.7415 6.11711 8.0796L5.78192 8.4177C5.93966 8.77569 6.17626 9.11379 6.47201 9.41211C6.49173 9.432 6.51144 9.45189 6.55088 9.49167C7.8719 10.7446 9.94217 10.7247 11.2435 9.41211L14.7925 5.79245C16.1135 4.47983 16.1135 2.3319 14.7925 0.999384Z"
        fill="#949494" />
    <path
        d="M7.57618 10.6849L4.55951 13.7278C3.90885 14.3841 2.84415 14.3841 2.17378 13.7278C1.52312 13.0715 1.52312 11.9976 2.17378 11.3214L5.74252 7.72158C6.27487 7.1846 7.10298 7.08516 7.73391 7.42326C7.87193 7.50281 8.00995 7.60225 8.10853 7.72158C8.22683 7.84091 8.32542 7.96024 8.40428 8.09946C8.81834 8.25856 9.33097 8.17901 9.66616 7.84091L10.0013 7.50281C9.84361 7.14482 9.60701 6.80672 9.31126 6.5084C9.29154 6.48851 9.27182 6.46862 9.23239 6.42884C7.91136 5.17588 5.8411 5.19577 4.53979 6.5084L0.990769 10.1281C-0.330256 11.4407 -0.330256 13.5886 0.990769 14.9211C2.31179 16.2536 4.44121 16.2536 5.74252 14.9211L9.31126 11.3214C9.46899 11.1622 9.60701 10.9833 9.74503 10.8043C9.03522 10.9634 8.26627 10.9236 7.57618 10.6849Z"
        fill="#949494" />
    <circle cx="14.2231" cy="12.5" r="3.25" stroke="#949494" stroke-width="0.5" />
    <rect x="12.2231" y="12" width="4" height="1" rx="0.5" fill="#949494" />
</svg>