<svg width="512" height="512" viewBox="0 0 512 512" fill="none" xmlns="http://www.w3.org/2000/svg">
<path d="M280.416 231.164C282.334 229.22 283.411 226.585 283.411 223.836C283.411 221.088 282.334 218.453 280.416 216.509C278.498 214.566 275.897 213.474 273.185 213.474H130.029C127.317 213.474 124.716 214.566 122.799 216.509C120.881 218.453 119.804 221.088 119.804 223.836C119.804 226.585 120.881 229.22 122.799 231.164C124.716 233.107 127.317 234.199 130.029 234.199H273.185C275.897 234.199 278.498 233.107 280.416 231.164Z" fill="#3F86E2"/>
<path d="M168.278 293.336C170.196 291.393 171.273 288.758 171.273 286.009C171.273 283.261 170.196 280.625 168.278 278.682C166.36 276.739 163.76 275.647 161.048 275.647H130.029C127.317 275.647 124.716 276.739 122.799 278.682C120.881 280.625 119.804 283.261 119.804 286.009C119.804 288.758 120.881 291.393 122.799 293.336C124.716 295.28 127.317 296.371 130.029 296.371H161.048C163.76 296.371 166.36 295.28 168.278 293.336Z" fill="#3F86E2"/>
<path d="M280.416 178.014C282.334 176.071 283.411 173.435 283.411 170.687C283.411 167.939 282.334 165.303 280.416 163.36C278.498 161.417 275.897 160.325 273.185 160.325H130.029C127.317 160.325 124.716 161.417 122.799 163.36C120.881 165.303 119.804 167.939 119.804 170.687C119.804 173.435 120.881 176.071 122.799 178.014C124.716 179.957 127.317 181.049 130.029 181.049H273.185C275.897 181.049 278.498 179.957 280.416 178.014Z" fill="#3F86E2"/>
<path d="M416.607 368.874C411.4 368.874 406.309 370.436 401.98 373.362C397.651 376.287 394.277 380.445 392.285 385.309C390.292 390.173 389.772 395.526 390.788 400.689C391.805 405.852 394.313 410.595 397.996 414.317C401.679 418.039 406.37 420.574 411.478 421.6C416.585 422.626 421.879 422.098 426.69 420.083C431.501 418.068 435.612 414.655 438.505 410.277C441.397 405.9 442.94 400.753 442.94 395.488C442.932 388.431 440.155 381.664 435.219 376.674C430.282 371.684 423.588 368.879 416.607 368.874ZM416.607 406.568C414.441 406.568 412.323 405.917 410.522 404.7C408.721 403.483 407.317 401.753 406.488 399.729C405.66 397.705 405.443 395.479 405.866 393.33C406.289 391.182 407.332 389.209 408.864 387.66C410.396 386.111 412.348 385.056 414.472 384.629C416.597 384.201 418.8 384.42 420.802 385.258C422.803 386.096 424.514 387.515 425.719 389.336C426.923 391.157 427.566 393.298 427.566 395.488C427.564 398.426 426.408 401.242 424.353 403.32C422.299 405.397 419.513 406.565 416.607 406.568Z" fill="#3F86E2"/>
<path d="M474.994 334.056L475.001 333.992L475 333.926C474.981 332.651 474.682 331.397 474.126 330.253C472.496 320.88 468.529 312.081 462.597 304.688C456.682 297.317 449.011 291.589 440.304 288.041L388.518 230.283L388.515 230.28C387.236 228.866 385.535 227.91 383.669 227.559C381.802 227.207 379.873 227.48 378.174 228.334L378.17 228.336L319.715 258.081L292.878 237.122C291.375 235.946 289.531 235.299 287.628 235.284C285.725 235.268 283.87 235.885 282.349 237.037L220.354 283.984H214.479H214.478C199.827 284.001 185.783 289.893 175.426 300.363C165.07 310.834 159.246 325.027 159.23 339.829V339.83L159.23 451.154L159.23 451.155C159.246 465.957 165.07 480.151 175.426 490.621C185.783 501.092 199.827 506.983 214.478 507H214.479H419.751H419.752C434.403 506.983 448.447 501.092 458.804 490.621C469.16 480.151 474.984 465.957 475 451.155V451.154V339.83C475 338.262 474.901 336.725 474.776 335.217C474.875 334.836 474.948 334.448 474.994 334.056ZM334.947 269.977L380.08 247.012L413.225 283.984H352.882L334.947 269.977ZM249.319 283.984L287.478 255.085L324.489 283.984H249.319ZM214.482 301.527H419.748C427.459 301.548 434.981 303.951 441.304 308.416C447.238 312.606 451.851 318.423 454.609 325.17H179.622C182.38 318.423 186.993 312.606 192.926 308.416C199.25 303.951 206.771 301.548 214.482 301.527ZM419.75 489.458H214.48C204.441 489.447 194.815 485.41 187.713 478.23C180.611 471.05 176.614 461.312 176.603 451.153V342.713H457.627V451.153C457.616 461.312 453.62 471.05 446.517 478.23C439.415 485.41 429.789 489.447 419.75 489.458Z" fill="black" stroke="black" stroke-width="2"/>
<path fill-rule="evenodd" clip-rule="evenodd" d="M362.965 112.961C364 113.837 364.778 114.984 365.214 116.277C365.519 117.572 365.519 118.92 365.214 120.215V232.369C360.148 233.906 353.299 235.992 344.763 240.921V130.577H252.734C250.022 130.577 247.422 129.485 245.504 127.542C243.586 125.599 242.509 122.963 242.509 120.215V26.9555H68.6763C65.9644 26.9555 63.3635 28.0473 61.4459 29.9905C59.5282 31.9338 58.4509 34.5695 58.4509 37.3177V431.079C58.4509 433.828 59.5282 436.463 61.4459 438.407C63.3635 440.35 65.9644 441.442 68.6763 441.442H146.774V462.166H68.6763C60.5405 462.166 52.7378 458.891 46.9849 453.061C41.232 447.231 38 439.324 38 431.079V37.3177C38 29.0731 41.232 21.1661 46.9849 15.3363C52.7378 9.50642 60.5405 6.23124 68.6763 6.23124H252.734C254.012 5.92292 255.343 5.92292 256.62 6.23124C258.306 6.73906 259.757 7.84181 260.71 9.33989L362.965 112.961ZM330.243 109.853L262.96 41.6698V109.853H330.243Z" fill="#36353B"/>
</svg>
