<svg width="512" height="512" viewBox="0 0 512 512" fill="none" xmlns="http://www.w3.org/2000/svg">
<g clip-path="url(#clip0_312_6)">
<path d="M431.517 203.579C425.255 203.58 419.134 205.487 413.928 209.059C408.723 212.631 404.665 217.708 402.27 223.648C399.875 229.588 399.249 236.123 400.471 242.428C401.693 248.733 404.71 254.524 409.138 259.069C413.566 263.614 419.208 266.709 425.349 267.962C431.491 269.215 437.856 268.571 443.641 266.11C449.425 263.649 454.369 259.482 457.847 254.136C461.325 248.791 463.181 242.506 463.18 236.078C463.172 227.459 459.833 219.197 453.896 213.104C447.96 207.011 439.911 203.585 431.517 203.579ZM431.517 249.607C428.912 249.606 426.365 248.812 424.199 247.326C422.034 245.839 420.346 243.727 419.349 241.256C418.353 238.785 418.092 236.066 418.601 233.442C419.109 230.819 420.364 228.41 422.206 226.519C424.048 224.627 426.395 223.339 428.95 222.817C431.505 222.295 434.153 222.563 436.56 223.586C438.967 224.609 441.025 226.342 442.473 228.565C443.921 230.789 444.694 233.403 444.695 236.078C444.691 239.665 443.302 243.104 440.831 245.64C438.36 248.177 435.011 249.604 431.517 249.607Z" fill="#3F86E2"/>
<path fill-rule="evenodd" clip-rule="evenodd" d="M512.828 154.248C513.551 155.652 513.939 157.203 513.963 158.782C513.9 159.319 513.793 159.851 513.643 160.37C513.822 162.459 513.963 164.56 513.963 166.694V316.256C513.941 335.792 506.166 354.522 492.342 368.335C478.519 382.149 459.777 389.92 440.228 389.942H235.938C236.587 384.899 236.922 379.758 236.922 374.539C236.922 372.703 236.881 370.876 236.799 369.061H440.228C454.238 369.046 467.669 363.478 477.575 353.578C487.481 343.679 493.053 330.256 493.068 316.256V169.222H108.385V255.417C101.226 255.955 94.2423 257.124 87.4902 258.869V166.694C87.5123 147.158 95.2878 128.429 109.111 114.615C122.934 100.801 141.676 93.0306 161.225 93.0085H169.667L254.294 29.6618C256.123 28.2925 258.352 27.5609 260.637 27.5793C262.923 27.5977 265.139 28.3651 266.946 29.7637L304.106 58.4495L384.328 18.0997C386.372 17.0836 388.69 16.7599 390.934 17.1776C393.178 17.5952 395.225 18.7315 396.765 20.4147L467.362 98.2434C479.1 102.914 489.443 110.515 497.404 120.321C505.364 130.126 510.674 141.807 512.828 154.248ZM434.403 93.0085L386.623 40.3266L322.444 72.606L348.873 93.0085H434.403ZM314.698 93.0085L260.457 51.1444L204.532 93.0085H314.698ZM440.228 113.89H161.225C150.464 113.918 139.969 117.234 131.147 123.391C122.324 129.549 115.596 138.255 111.865 148.341H489.59C485.858 138.255 479.13 129.549 470.307 123.391C461.485 117.234 450.989 113.918 440.228 113.89Z" fill="#36353B"/>
<path d="M121.866 401.038H121.868L110.867 412.074C110.866 412.074 110.866 412.075 110.865 412.076C106.766 416.166 101.207 418.465 95.4098 418.465C89.6118 418.465 84.0518 416.165 79.9528 412.074C75.8539 407.982 73.5517 402.433 73.5518 396.647C73.5518 390.863 75.8537 385.314 79.9518 381.223C79.9523 381.222 79.9527 381.222 79.9532 381.221L93.556 367.706C94.1803 367.113 94.6805 366.401 95.0274 365.613C95.377 364.818 95.5638 363.962 95.5766 363.094C95.5895 362.226 95.4282 361.365 95.1024 360.56C94.7765 359.756 94.2927 359.025 93.6795 358.41C93.0664 357.796 92.3364 357.31 91.5326 356.982C90.7287 356.653 89.8673 356.489 88.999 356.498C88.1308 356.508 87.273 356.69 86.4764 357.036C85.6861 357.378 84.9718 357.874 84.3748 358.495L70.7723 372.008L70.7722 372.009C65.879 376.871 62.5412 383.074 61.1822 389.832C59.8232 396.59 60.5042 403.598 63.1389 409.97C65.7735 416.341 70.2431 421.788 75.981 425.62C81.7188 429.453 88.4668 431.499 95.3703 431.5H95.3704H95.409C99.9983 431.507 104.543 430.604 108.78 428.844C113.017 427.083 116.86 424.5 120.089 421.245C120.09 421.244 120.09 421.244 120.091 421.243L133.642 407.652L132.58 406.593L133.642 407.652C134.86 406.431 135.543 404.775 135.539 403.05C135.535 401.326 134.845 399.674 133.621 398.458C132.397 397.242 130.74 396.562 129.014 396.566C127.289 396.57 125.635 397.258 124.417 398.479L121.866 401.038Z" fill="#3F86E2" stroke="#3F86E2" stroke-width="3"/>
<path d="M138.778 318.503H138.777H138.778ZM138.778 318.503H138.817V319.997V319.997V320.003M138.778 318.503L138.777 319.963L138.817 320.003M138.817 320.003L138.821 320L138.817 320.003ZM123.323 337.929L123.326 337.925C125.348 335.886 127.756 334.268 130.41 333.165C133.065 332.063 135.912 331.498 138.787 331.503H138.79H138.817C138.817 331.503 138.817 331.503 138.817 331.503C143.145 331.503 147.375 332.786 150.971 335.188C154.568 337.589 157.368 341.003 159.019 344.994C160.67 348.986 161.097 353.377 160.246 357.611C159.395 361.844 157.304 365.731 154.238 368.779L140.634 382.296C140.008 382.889 139.506 383.6 139.157 384.388C138.806 385.183 138.618 386.04 138.604 386.909C138.59 387.778 138.751 388.641 139.076 389.447C139.402 390.253 139.887 390.985 140.501 391.6C141.114 392.216 141.846 392.702 142.651 393.03C143.456 393.359 144.319 393.523 145.188 393.512C146.058 393.502 146.916 393.318 147.713 392.971C148.504 392.627 149.218 392.129 149.814 391.507L163.419 377.991L163.419 377.99C168.312 373.128 171.65 366.925 173.009 360.167C174.368 353.409 173.687 346.401 171.053 340.03C168.418 333.658 163.948 328.212 158.21 324.379C152.472 320.547 145.724 318.501 138.821 318.5L138.2 318.5L138.193 318.507C133.803 318.574 129.465 319.473 125.409 321.159C121.172 322.919 117.328 325.502 114.1 328.758C114.099 328.758 114.099 328.759 114.098 328.759L100.558 342.338C99.9379 342.935 99.4425 343.649 99.1006 344.438C98.7562 345.234 98.5745 346.09 98.5662 346.956C98.5579 347.823 98.7232 348.682 99.0524 349.484C99.3815 350.286 99.8677 351.013 100.482 351.625C101.097 352.236 101.828 352.718 102.632 353.043C103.435 353.368 104.296 353.529 105.163 353.518C106.03 353.506 106.886 353.321 107.68 352.975C108.469 352.63 109.182 352.133 109.778 351.512L123.323 337.929Z" fill="#3F86E2" stroke="#3F86E2" stroke-width="3"/>
<path d="M91.9189 400.138L91.919 400.138C93.1398 401.356 94.7947 402.04 96.5197 402.04C98.2447 402.04 99.8997 401.356 101.12 400.138L101.121 400.137L142.275 359.055L142.283 359.048L142.29 359.041C143.483 357.817 144.147 356.172 144.135 354.463C144.124 352.753 143.438 351.118 142.228 349.91C141.018 348.702 139.381 348.018 137.671 348.007C135.961 347.995 134.315 348.656 133.088 349.847L133.081 349.854L133.074 349.862L91.9243 390.937C91.9242 390.937 91.9241 390.938 91.924 390.938C91.3183 391.541 90.8376 392.257 90.5093 393.046C90.181 393.835 90.0117 394.682 90.0112 395.536C90.0107 396.391 90.179 397.237 90.5064 398.027C90.8338 398.816 91.3138 399.534 91.9189 400.138Z" fill="#3F86E2" stroke="#3F86E2" stroke-width="3"/>
<path d="M224.922 374.539C224.922 433.888 176.81 482 117.461 482C58.112 482 10 433.888 10 374.539C10 315.19 58.112 267.078 117.461 267.078C176.81 267.078 224.922 315.19 224.922 374.539Z" stroke="black" stroke-width="24"/>
</g>
<defs>
<clipPath id="clip0_312_6">
<rect width="512" height="512" fill="white"/>
</clipPath>
</defs>
</svg>
