<svg width="17" height="17" viewBox="0 0 17 17" fill="none" xmlns="http://www.w3.org/2000/svg">
    <path
        d="M15.4853 1.0984C14.1643 -0.234114 12.0349 -0.234114 10.7336 1.0984L7.16482 4.69817C7.00708 4.85728 6.86907 5.03627 6.73105 5.21527C7.44085 5.03627 8.20981 5.07605 8.8999 5.31471L11.9166 2.29169C12.5672 1.63538 13.6319 1.63538 14.3023 2.29169C14.953 2.94801 14.953 4.02197 14.3023 4.69817L10.7336 8.29795C10.2012 8.83493 9.3731 8.93437 8.74216 8.59627C8.60415 8.51672 8.46613 8.41727 8.36754 8.29795C8.24924 8.17862 8.15066 8.05929 8.07179 7.92007C7.65774 7.76096 7.1451 7.84051 6.80992 8.17861L6.47473 8.51672C6.63247 8.8747 6.86907 9.2128 7.16482 9.51113C7.18454 9.53102 7.20425 9.5509 7.24369 9.59068C8.56471 10.8436 10.635 10.8238 11.9363 9.51113L15.4853 5.89147C16.8063 4.57884 16.8063 2.43091 15.4853 1.0984Z"
        fill="#1DB4A9" />
    <path
        d="M8.26902 10.784L5.25235 13.8269C4.6017 14.4832 3.53699 14.4832 2.86662 13.8269C2.21596 13.1706 2.21596 12.0966 2.86662 11.4204L6.43536 7.82062C6.96771 7.28364 7.79582 7.1842 8.42675 7.5223C8.56477 7.60185 8.70279 7.70129 8.80137 7.82062C8.91967 7.93995 9.01826 8.05928 9.09713 8.1985C9.51118 8.35761 10.0238 8.27805 10.359 7.93995L10.6942 7.60185C10.5365 7.24387 10.2999 6.90577 10.0041 6.60744C9.98438 6.58755 9.96466 6.56766 9.92523 6.52789C8.60421 5.27493 6.53394 5.29482 5.23263 6.60744L1.68361 10.2271C0.362584 11.5397 0.362584 13.6877 1.68361 15.0202C3.00463 16.3527 5.13405 16.3527 6.43536 15.0202L10.0041 11.4204C10.1618 11.2613 10.2999 11.0823 10.4379 10.9033C9.72806 11.0624 8.95911 11.0226 8.26902 10.784Z"
        fill="#1DB4A9" />
</svg>