<svg width="512" height="512" viewBox="0 0 512 512" fill="none" xmlns="http://www.w3.org/2000/svg">
<mask id="path-1-outside-1_356_17" maskUnits="userSpaceOnUse" x="42" y="6" width="429" height="500" fill="black">
<rect fill="white" x="42" y="6" width="429" height="500"/>
<path d="M466.385 300.091L428.71 234.84C427.832 233.317 426.459 232.14 424.82 231.503L345.277 200.575C347.753 192.219 349.089 183.378 349.089 174.23C349.089 123.016 307.424 81.3504 256.21 81.3504C204.996 81.3504 163.33 123.016 163.33 174.23C163.33 183.379 164.666 192.219 167.142 200.575L87.5986 231.503C85.9602 232.14 84.5873 233.317 83.7087 234.84L46.0346 300.091C44.9079 302.042 44.6897 304.389 45.4379 306.515C46.1852 308.641 47.8246 310.335 49.9245 311.152L82.6727 323.885V430.166C82.6727 433.351 84.6288 436.21 87.5986 437.364L253.41 501.836C254.31 502.187 255.26 502.362 256.209 502.362C257.158 502.362 258.108 502.187 259.008 501.836L424.819 437.364C427.788 436.21 429.744 433.351 429.744 430.166V323.885L462.493 311.152C464.594 310.335 466.232 308.641 466.979 306.515C467.729 304.389 467.511 302.043 466.385 300.091ZM256.211 96.7981C298.907 96.7981 333.642 131.534 333.642 174.23C333.642 216.925 298.906 251.662 256.211 251.662C213.515 251.662 178.779 216.925 178.779 174.23C178.779 131.534 213.514 96.7981 256.211 96.7981ZM256.211 267.109C293.013 267.109 324.884 245.593 339.907 214.48L400.863 238.642L256.211 294.887L111.557 238.642L172.513 214.48C187.536 245.593 219.407 267.109 256.211 267.109ZM63.9163 300.017L93.7748 248.302L245.019 307.11L215.16 358.826L63.9163 300.017ZM98.1224 329.892L215.738 375.625C219.29 377.004 223.32 375.589 225.226 372.288L248.487 332V483.347L98.1224 424.882V329.892ZM414.299 424.882L263.934 483.347V332L287.195 372.289C289.102 375.59 293.131 377.006 296.683 375.626L414.299 329.893V424.882ZM297.261 358.826L267.401 307.11L418.646 248.302L448.505 300.017L297.261 358.826ZM248.487 52.8995V16.7239C248.487 12.4584 251.944 9 256.211 9C260.476 9 263.934 12.4584 263.934 16.7239V52.8995C263.934 57.165 260.476 60.6234 256.211 60.6234C251.944 60.6234 248.487 57.165 248.487 52.8995ZM170.496 40.6707C168.363 36.9768 169.63 32.2527 173.324 30.1199C177.017 27.9882 181.742 29.2529 183.875 32.9469L201.962 64.2758C204.095 67.9698 202.829 72.6939 199.135 74.8266C197.919 75.5285 196.59 75.8626 195.28 75.8626C192.61 75.8626 190.015 74.4771 188.583 71.9997L170.496 40.6707ZM112.101 89.8544C114.233 86.1595 118.957 84.8937 122.651 87.0274L153.98 105.115C157.674 107.248 158.94 111.972 156.807 115.666C155.377 118.143 152.78 119.528 150.111 119.528C148.801 119.528 147.473 119.194 146.257 118.493L114.928 100.405C111.234 98.2724 109.968 93.5483 112.101 89.8544ZM88.9484 172.197C88.9484 167.931 92.4057 164.473 96.6722 164.473H132.847C137.113 164.473 140.571 167.931 140.571 172.197C140.571 176.462 137.113 179.92 132.847 179.92H96.6722C92.4057 179.92 88.9484 176.463 88.9484 172.197ZM309.915 66.3082L328.002 34.9792C330.135 31.2843 334.859 30.0176 338.553 32.1523C342.247 34.285 343.513 39.0091 341.381 42.7031L323.292 74.032C321.861 76.5095 319.265 77.8949 316.596 77.8949C315.286 77.8949 313.957 77.5609 312.741 76.859C309.048 74.7272 307.782 70.0031 309.915 66.3082ZM353.581 119.187C351.449 115.493 352.714 110.769 356.408 108.636L387.737 90.5485C391.431 88.4168 396.155 89.6825 398.288 93.3755C400.421 97.0694 399.155 101.794 395.461 103.926L364.132 122.014C362.916 122.716 361.588 123.05 360.278 123.05C357.607 123.05 355.011 121.664 353.581 119.187ZM375.508 168.538H411.683C415.95 168.538 419.407 171.997 419.407 176.262C419.407 180.528 415.95 183.986 411.683 183.986H375.508C371.242 183.986 367.785 180.528 367.785 176.262C367.785 171.997 371.243 168.538 375.508 168.538Z"/>
</mask>
<path d="M466.385 300.091L428.71 234.84C427.832 233.317 426.459 232.14 424.82 231.503L345.277 200.575C347.753 192.219 349.089 183.378 349.089 174.23C349.089 123.016 307.424 81.3504 256.21 81.3504C204.996 81.3504 163.33 123.016 163.33 174.23C163.33 183.379 164.666 192.219 167.142 200.575L87.5986 231.503C85.9602 232.14 84.5873 233.317 83.7087 234.84L46.0346 300.091C44.9079 302.042 44.6897 304.389 45.4379 306.515C46.1852 308.641 47.8246 310.335 49.9245 311.152L82.6727 323.885V430.166C82.6727 433.351 84.6288 436.21 87.5986 437.364L253.41 501.836C254.31 502.187 255.26 502.362 256.209 502.362C257.158 502.362 258.108 502.187 259.008 501.836L424.819 437.364C427.788 436.21 429.744 433.351 429.744 430.166V323.885L462.493 311.152C464.594 310.335 466.232 308.641 466.979 306.515C467.729 304.389 467.511 302.043 466.385 300.091ZM256.211 96.7981C298.907 96.7981 333.642 131.534 333.642 174.23C333.642 216.925 298.906 251.662 256.211 251.662C213.515 251.662 178.779 216.925 178.779 174.23C178.779 131.534 213.514 96.7981 256.211 96.7981ZM256.211 267.109C293.013 267.109 324.884 245.593 339.907 214.48L400.863 238.642L256.211 294.887L111.557 238.642L172.513 214.48C187.536 245.593 219.407 267.109 256.211 267.109ZM63.9163 300.017L93.7748 248.302L245.019 307.11L215.16 358.826L63.9163 300.017ZM98.1224 329.892L215.738 375.625C219.29 377.004 223.32 375.589 225.226 372.288L248.487 332V483.347L98.1224 424.882V329.892ZM414.299 424.882L263.934 483.347V332L287.195 372.289C289.102 375.59 293.131 377.006 296.683 375.626L414.299 329.893V424.882ZM297.261 358.826L267.401 307.11L418.646 248.302L448.505 300.017L297.261 358.826ZM248.487 52.8995V16.7239C248.487 12.4584 251.944 9 256.211 9C260.476 9 263.934 12.4584 263.934 16.7239V52.8995C263.934 57.165 260.476 60.6234 256.211 60.6234C251.944 60.6234 248.487 57.165 248.487 52.8995ZM170.496 40.6707C168.363 36.9768 169.63 32.2527 173.324 30.1199C177.017 27.9882 181.742 29.2529 183.875 32.9469L201.962 64.2758C204.095 67.9698 202.829 72.6939 199.135 74.8266C197.919 75.5285 196.59 75.8626 195.28 75.8626C192.61 75.8626 190.015 74.4771 188.583 71.9997L170.496 40.6707ZM112.101 89.8544C114.233 86.1595 118.957 84.8937 122.651 87.0274L153.98 105.115C157.674 107.248 158.94 111.972 156.807 115.666C155.377 118.143 152.78 119.528 150.111 119.528C148.801 119.528 147.473 119.194 146.257 118.493L114.928 100.405C111.234 98.2724 109.968 93.5483 112.101 89.8544ZM88.9484 172.197C88.9484 167.931 92.4057 164.473 96.6722 164.473H132.847C137.113 164.473 140.571 167.931 140.571 172.197C140.571 176.462 137.113 179.92 132.847 179.92H96.6722C92.4057 179.92 88.9484 176.463 88.9484 172.197ZM309.915 66.3082L328.002 34.9792C330.135 31.2843 334.859 30.0176 338.553 32.1523C342.247 34.285 343.513 39.0091 341.381 42.7031L323.292 74.032C321.861 76.5095 319.265 77.8949 316.596 77.8949C315.286 77.8949 313.957 77.5609 312.741 76.859C309.048 74.7272 307.782 70.0031 309.915 66.3082ZM353.581 119.187C351.449 115.493 352.714 110.769 356.408 108.636L387.737 90.5485C391.431 88.4168 396.155 89.6825 398.288 93.3755C400.421 97.0694 399.155 101.794 395.461 103.926L364.132 122.014C362.916 122.716 361.588 123.05 360.278 123.05C357.607 123.05 355.011 121.664 353.581 119.187ZM375.508 168.538H411.683C415.95 168.538 419.407 171.997 419.407 176.262C419.407 180.528 415.95 183.986 411.683 183.986H375.508C371.242 183.986 367.785 180.528 367.785 176.262C367.785 171.997 371.243 168.538 375.508 168.538Z" fill="black"/>
<path d="M466.385 300.091L428.71 234.84C427.832 233.317 426.459 232.14 424.82 231.503L345.277 200.575C347.753 192.219 349.089 183.378 349.089 174.23C349.089 123.016 307.424 81.3504 256.21 81.3504C204.996 81.3504 163.33 123.016 163.33 174.23C163.33 183.379 164.666 192.219 167.142 200.575L87.5986 231.503C85.9602 232.14 84.5873 233.317 83.7087 234.84L46.0346 300.091C44.9079 302.042 44.6897 304.389 45.4379 306.515C46.1852 308.641 47.8246 310.335 49.9245 311.152L82.6727 323.885V430.166C82.6727 433.351 84.6288 436.21 87.5986 437.364L253.41 501.836C254.31 502.187 255.26 502.362 256.209 502.362C257.158 502.362 258.108 502.187 259.008 501.836L424.819 437.364C427.788 436.21 429.744 433.351 429.744 430.166V323.885L462.493 311.152C464.594 310.335 466.232 308.641 466.979 306.515C467.729 304.389 467.511 302.043 466.385 300.091ZM256.211 96.7981C298.907 96.7981 333.642 131.534 333.642 174.23C333.642 216.925 298.906 251.662 256.211 251.662C213.515 251.662 178.779 216.925 178.779 174.23C178.779 131.534 213.514 96.7981 256.211 96.7981ZM256.211 267.109C293.013 267.109 324.884 245.593 339.907 214.48L400.863 238.642L256.211 294.887L111.557 238.642L172.513 214.48C187.536 245.593 219.407 267.109 256.211 267.109ZM63.9163 300.017L93.7748 248.302L245.019 307.11L215.16 358.826L63.9163 300.017ZM98.1224 329.892L215.738 375.625C219.29 377.004 223.32 375.589 225.226 372.288L248.487 332V483.347L98.1224 424.882V329.892ZM414.299 424.882L263.934 483.347V332L287.195 372.289C289.102 375.59 293.131 377.006 296.683 375.626L414.299 329.893V424.882ZM297.261 358.826L267.401 307.11L418.646 248.302L448.505 300.017L297.261 358.826ZM248.487 52.8995V16.7239C248.487 12.4584 251.944 9 256.211 9C260.476 9 263.934 12.4584 263.934 16.7239V52.8995C263.934 57.165 260.476 60.6234 256.211 60.6234C251.944 60.6234 248.487 57.165 248.487 52.8995ZM170.496 40.6707C168.363 36.9768 169.63 32.2527 173.324 30.1199C177.017 27.9882 181.742 29.2529 183.875 32.9469L201.962 64.2758C204.095 67.9698 202.829 72.6939 199.135 74.8266C197.919 75.5285 196.59 75.8626 195.28 75.8626C192.61 75.8626 190.015 74.4771 188.583 71.9997L170.496 40.6707ZM112.101 89.8544C114.233 86.1595 118.957 84.8937 122.651 87.0274L153.98 105.115C157.674 107.248 158.94 111.972 156.807 115.666C155.377 118.143 152.78 119.528 150.111 119.528C148.801 119.528 147.473 119.194 146.257 118.493L114.928 100.405C111.234 98.2724 109.968 93.5483 112.101 89.8544ZM88.9484 172.197C88.9484 167.931 92.4057 164.473 96.6722 164.473H132.847C137.113 164.473 140.571 167.931 140.571 172.197C140.571 176.462 137.113 179.92 132.847 179.92H96.6722C92.4057 179.92 88.9484 176.463 88.9484 172.197ZM309.915 66.3082L328.002 34.9792C330.135 31.2843 334.859 30.0176 338.553 32.1523C342.247 34.285 343.513 39.0091 341.381 42.7031L323.292 74.032C321.861 76.5095 319.265 77.8949 316.596 77.8949C315.286 77.8949 313.957 77.5609 312.741 76.859C309.048 74.7272 307.782 70.0031 309.915 66.3082ZM353.581 119.187C351.449 115.493 352.714 110.769 356.408 108.636L387.737 90.5485C391.431 88.4168 396.155 89.6825 398.288 93.3755C400.421 97.0694 399.155 101.794 395.461 103.926L364.132 122.014C362.916 122.716 361.588 123.05 360.278 123.05C357.607 123.05 355.011 121.664 353.581 119.187ZM375.508 168.538H411.683C415.95 168.538 419.407 171.997 419.407 176.262C419.407 180.528 415.95 183.986 411.683 183.986H375.508C371.242 183.986 367.785 180.528 367.785 176.262C367.785 171.997 371.243 168.538 375.508 168.538Z" stroke="black" stroke-width="6" mask="url(#path-1-outside-1_356_17)"/>
<path d="M237.432 225C243.179 224.994 247.389 223.024 251.025 219.436L308.79 162.433C316.295 155.026 316.295 142.973 308.789 135.564C305.153 131.976 300.318 130 295.177 130C290.035 130 285.2 131.976 281.563 135.564L239.043 177.525L227.694 163.433C224.024 158.878 218.534 156.264 212.633 156.264C208.31 156.264 204.063 157.729 200.673 160.387C192.374 166.899 190.99 178.861 197.587 187.05L221.765 217.074C225.379 222.043 230.556 225.007 237.432 225ZM209.894 171.834C210.891 171.053 211.933 170.888 212.632 170.888C213.989 170.888 215.25 171.488 216.091 172.532L232.606 193.041C233.92 194.673 235.877 195.674 237.986 195.792C240.089 195.909 242.154 195.136 243.647 193.663L292.041 145.905C292.878 145.079 293.991 144.625 295.176 144.625C296.36 144.625 297.472 145.08 298.308 145.904C300.037 147.611 300.038 150.387 298.309 152.093L240.545 209.096C239.472 210.153 238.259 210.375 237.43 210.375C235.947 210.375 234.612 209.69 233.767 208.495C233.679 208.371 233.588 208.25 233.492 208.132L209.188 177.95C207.675 176.072 207.992 173.328 209.894 171.834Z" fill="#3F86E2"/>
</svg>
