<svg width="512" height="512" viewBox="0 0 512 512" fill="none" xmlns="http://www.w3.org/2000/svg">
<g clip-path="url(#clip0_548_2467)">
<path d="M152.678 458.035C152.678 472.372 141.979 484 128.763 484C115.547 484 104.817 472.372 104.817 458.035L104.817 118.086L40.8318 187.497C31.495 197.626 16.3394 197.626 7.0026 187.497C-2.33422 177.347 -2.33422 160.906 7.0026 150.777L111.833 37.0695C116.321 32.2011 122.408 29.4592 128.753 29.4592C135.108 29.4592 141.185 32.2011 145.672 37.0695L250.451 150.777C255.135 155.859 257.456 162.495 257.456 169.132C257.456 175.791 255.115 182.428 250.451 187.509C241.094 197.637 225.938 197.637 216.601 187.486L152.678 118.12L152.678 458.035Z" fill="white"/>
<path d="M504.995 362.682L400.154 476.39C395.666 481.258 389.59 484 383.245 484C376.889 484 370.792 481.258 366.304 476.39L260.596 362.648C252.22 352.52 251.259 336.079 260.596 325.95C270.914 315.822 286.049 315.822 294.446 325.973L359.309 395.339L359.309 55.4239C359.309 41.0873 370.029 29.4592 383.245 29.4592C396.461 29.4592 407.159 41.0873 407.159 55.4239L407.159 395.362L471.145 325.95C480.502 315.822 495.658 315.822 504.995 325.95C509.658 331.031 512 337.668 512 344.327C512 350.964 509.658 357.601 504.995 362.682Z" fill="white"/>
</g>
<defs>
<clipPath id="clip0_548_2467">
<rect width="512" height="512" fill="white"/>
</clipPath>
</defs>
</svg>
