<svg width="75" height="76" viewBox="0 0 75 76" fill="none" xmlns="http://www.w3.org/2000/svg">
<path d="M41.9806 54.4037H5.12082C1.7477 54.4037 0 52.6441 0 49.256C0 34.666 0 20.078 0 5.49199C0 2.18747 1.78945 0.421875 5.10292 0.421875H66.8539C70.2241 0.421875 71.9658 2.17852 71.9658 5.57848C71.9658 17.1383 71.9658 28.6972 71.9658 40.2551C71.9658 40.8516 72.0702 41.2274 72.6905 41.5584C73.3826 41.9043 73.9626 42.4391 74.3632 43.101C74.7638 43.7629 74.9687 44.5248 74.9542 45.2984C74.993 49.9509 75.0407 54.6065 74.9393 59.2591C74.8766 61.982 73.5018 64.0667 71.1248 65.4208C70.9046 65.5176 70.7213 65.6826 70.6021 65.8915C70.4829 66.1004 70.434 66.3421 70.4627 66.5809C70.4955 68.8923 70.4806 71.2037 70.4627 73.515C70.4627 74.8661 69.9348 75.397 68.5987 75.3999H48.3629C47.0089 75.3999 46.484 74.875 46.481 73.5359C46.481 71.2245 46.4631 68.9132 46.481 66.6018C46.5134 66.3628 46.4687 66.1196 46.3534 65.9077C46.2381 65.6958 46.0581 65.5263 45.8398 65.4237C43.2988 63.9743 42.0223 61.7375 41.9627 58.8117C41.9627 57.3801 41.9806 55.9486 41.9806 54.4037ZM2.99733 12.438V49.1546C2.99733 51.0037 3.39698 51.4064 5.24608 51.4064C17.0207 51.4064 28.8072 51.3855 40.5728 51.4332C41.9149 51.4332 42.8186 51.2513 43.5553 49.942C44.4739 48.3166 46.1649 47.5143 47.9275 47.0401V45.3819L47.0507 46.0678C44.0731 48.4481 40.3991 49.7897 36.5883 49.8883C25.1478 50.1866 16.5345 40.4549 18.157 29.1008C19.5796 19.1545 29.5409 12.1159 39.356 14.2215C46.3945 15.7306 51.0083 20.0074 53.2422 26.8551C53.3294 27.165 53.5308 27.4303 53.8059 27.5977C56.0486 28.4715 57.0239 30.1149 56.9791 32.4769C56.9404 34.3409 56.9791 36.205 56.9791 38.1227C59.2279 37.553 60.9517 38.2241 62.2849 39.9449C64.3278 39.0502 66.1441 39.2769 67.7516 40.8217C68.0122 41.0248 68.2955 41.1969 68.5957 41.3347C68.7209 40.9977 68.9565 40.6607 68.9595 40.3237C68.9774 31.3267 68.9824 22.3297 68.9744 13.3328V12.438H2.99733ZM50.4178 27.9168C49.401 24.2018 46.9888 21.0229 43.6847 19.0436C40.3805 17.0642 36.4396 16.4372 32.6843 17.2934C25.0672 19.0053 19.8868 26.5389 21.2408 34.1829C22.3324 40.3565 25.95 44.5647 32.0073 46.2498C38.0169 47.9199 43.2153 46.1901 47.3936 41.5465C47.7395 41.1248 47.9356 40.6004 47.9514 40.0553C48.008 37.6216 48.0289 35.185 47.9514 32.7513C47.8947 30.6845 48.5299 29.0203 50.4119 27.9168H50.4178ZM47.9842 50.3088C46.3349 50.6846 45.0644 52.3518 45.0017 54.2218C44.954 55.6563 44.9838 57.0938 44.9868 58.5314C44.9868 61.5138 46.8449 63.3987 49.8184 63.4017C55.5963 63.4017 61.3732 63.4017 67.1492 63.4017C70.0839 63.4017 71.9628 61.5317 71.9718 58.6119C71.9718 55.4893 71.9718 52.3667 71.9718 49.2441C71.9718 47.9647 71.9986 46.6822 71.9718 45.4027C71.975 45.206 71.9386 45.0107 71.8648 44.8283C71.791 44.6459 71.6813 44.4802 71.5422 44.3411C71.4031 44.202 71.2374 44.0923 71.055 44.0185C70.8726 43.9447 70.6773 43.9083 70.4806 43.9115C70.0851 43.9115 69.7058 44.0686 69.4261 44.3483C69.1465 44.628 68.9894 45.0073 68.9894 45.4027C68.9595 45.871 68.9894 46.3422 68.9744 46.8075C68.9297 47.7648 68.3243 48.3941 67.4832 48.3941C66.6422 48.3941 66.0218 47.7589 65.992 46.8015C65.9652 45.9068 65.992 44.9912 65.992 44.0875C65.9711 43.0586 65.3747 42.4084 64.5008 42.4084C63.627 42.4084 63.0275 43.0586 63.0096 44.0905C62.9917 44.9643 63.0096 45.8382 63.0096 46.712C62.9857 47.741 62.3893 48.3941 61.5184 48.3941C60.6475 48.3941 60.0272 47.738 60.0272 46.712C60.0093 45.3998 60.0272 44.0875 60.0272 42.7752C60.0272 41.5823 59.4635 40.9082 58.536 40.9082C57.6084 40.9082 57.0448 41.5942 57.0448 42.7752C57.0448 44.1501 57.0656 45.525 57.0269 46.8969C57.0301 47.0937 56.9937 47.289 56.9199 47.4714C56.8461 47.6538 56.7364 47.8194 56.5973 47.9586C56.4582 48.0977 56.2925 48.2074 56.1101 48.2812C55.9277 48.355 55.7324 48.3914 55.5357 48.3881C55.1402 48.3881 54.7609 48.231 54.4812 47.9514C54.2016 47.6717 54.0444 47.2924 54.0444 46.8969C54.0265 46.6494 54.0444 46.3989 54.0444 46.1484C54.0444 41.621 54.0444 37.0927 54.0444 32.5634C54.0614 32.283 54.0544 32.0016 54.0236 31.7224C53.8744 30.9171 53.3823 30.425 52.5532 30.422C51.7241 30.4191 51.2231 30.9022 51.062 31.7075C51.0247 32.0182 51.0157 32.3316 51.0352 32.644C51.0352 39.764 51.0352 46.884 51.0352 54.0041C51.0352 55.197 50.4805 55.877 49.544 55.8889C48.6075 55.9009 48.0378 55.2089 48.0289 54.0369C47.9722 52.8051 47.9782 51.5674 47.9782 50.3088H47.9842ZM3.0033 9.35423H68.9685V5.65304C68.9685 3.81587 68.5659 3.41921 66.7048 3.41921H5.26695C5.01643 3.41921 4.76591 3.41921 4.51538 3.41921C3.62066 3.48184 3.03909 4.01569 3.02417 4.89551C2.97347 6.36286 3.0033 7.82723 3.0033 9.35423ZM49.5291 72.331H67.4027V66.4527H49.5171L49.5291 72.331Z" fill="white"/>
<path d="M37.4189 7.91539H24.675C24.3634 7.93654 24.0505 7.92454 23.7415 7.8796C22.984 7.71557 22.5187 7.22943 22.5098 6.44506C22.5098 5.61296 22.972 5.10893 23.7743 4.95385C24.0532 4.91795 24.3348 4.90896 24.6154 4.927H50.3835C50.6042 4.927 50.8219 4.927 51.0396 4.927C51.4351 4.93175 51.8125 5.09341 52.0888 5.37642C52.3651 5.65943 52.5177 6.04061 52.5129 6.43611C52.5082 6.8316 52.3465 7.20901 52.0635 7.48531C51.7805 7.76161 51.3993 7.91417 51.0038 7.90942C50.7563 7.93328 50.5058 7.90942 50.2552 7.90942L37.4189 7.91539Z" fill="white"/>
<path d="M7.49902 7.91016C7.20409 7.91016 6.91578 7.8227 6.67055 7.65884C6.42532 7.49499 6.23419 7.26209 6.12133 6.98961C6.00846 6.71713 5.97893 6.41729 6.03647 6.12802C6.094 5.83876 6.23603 5.57305 6.44458 5.3645C6.65313 5.15595 6.91884 5.01393 7.2081 4.95639C7.49737 4.89885 7.7972 4.92838 8.06969 5.04125C8.34217 5.15411 8.57506 5.34525 8.73892 5.59047C8.90278 5.8357 8.99023 6.12401 8.99023 6.41895C8.98635 6.81324 8.82799 7.19028 8.54917 7.4691C8.27036 7.74791 7.89331 7.90627 7.49902 7.91016Z" fill="white"/>
<path d="M11.9971 7.91016C11.7021 7.91016 11.4138 7.8227 11.1686 7.65884C10.9234 7.49499 10.7322 7.26209 10.6194 6.98961C10.5065 6.71713 10.477 6.41729 10.5345 6.12802C10.5921 5.83876 10.7341 5.57305 10.9426 5.3645C11.1512 5.15595 11.4169 5.01393 11.7061 4.95639C11.9954 4.89885 12.2952 4.92838 12.5677 5.04125C12.8402 5.15411 13.0731 5.34525 13.237 5.59047C13.4008 5.8357 13.4883 6.12401 13.4883 6.41895C13.4844 6.81324 13.326 7.19028 13.0472 7.4691C12.7684 7.74791 12.3914 7.90627 11.9971 7.91016Z" fill="white"/>
<path d="M16.4588 4.92418C16.7536 4.91777 17.0437 4.99891 17.2924 5.15737C17.5412 5.31582 17.7373 5.54446 17.8561 5.81438C17.9749 6.0843 18.011 6.38338 17.9598 6.67381C17.9086 6.96424 17.7725 7.23297 17.5686 7.44604C17.3647 7.6591 17.1022 7.80693 16.8143 7.87082C16.5264 7.93472 16.226 7.91182 15.9512 7.80502C15.6763 7.69822 15.4392 7.51231 15.27 7.2708C15.1008 7.02929 15.0069 6.74303 15.0004 6.4482C14.996 6.25236 15.0303 6.05758 15.1012 5.87498C15.1722 5.69239 15.2784 5.52557 15.4138 5.38404C15.5493 5.24251 15.7113 5.12906 15.8906 5.05015C16.0698 4.97125 16.2629 4.92844 16.4588 4.92418Z" fill="white"/>
<path d="M31.8213 31.0693C32.7161 31.0693 33.5839 31.0693 34.4518 31.0693C34.7933 31.0752 35.1315 31.0015 35.4395 30.854C35.7476 30.7064 36.017 30.4891 36.2264 30.2193C36.3675 30.0208 36.496 29.8136 36.6111 29.599L36.5694 29.5542H31.8303V28.063H36.6022C36.584 27.9959 36.5611 27.9301 36.5336 27.8662C36.3606 27.4699 36.0751 27.1331 35.7124 26.8977C35.3498 26.6623 34.9259 26.5386 34.4936 26.542C33.6764 26.5241 32.8622 26.542 32.045 26.542H31.8422V25.0508H40.1393V26.542H37.482C37.8208 26.9932 38.0588 27.5119 38.1799 28.063H40.1393V29.5542H38.2067C37.5297 31.8239 35.9639 32.7365 33.6794 32.5903V32.6381L38.1828 37.1415H37.6848C37.1808 37.1415 36.6797 37.1415 36.1757 37.1415C36.0962 37.136 36.0208 37.1046 35.9609 37.052C34.6049 35.7 33.2499 34.345 31.8959 32.987C31.8528 32.9496 31.8252 32.8975 31.8184 32.8409C31.8184 32.2503 31.8213 31.6718 31.8213 31.0693Z" fill="white"/>
</svg>
