<svg width="113" height="113" viewBox="0 0 113 113" fill="none" xmlns="http://www.w3.org/2000/svg">
<path d="M60.0321 62.7997C62.3836 62.7997 64.6677 62.7997 66.9575 62.7997C67.8565 62.8131 68.7462 62.6131 69.5566 62.2153C70.3669 61.8176 71.0756 61.2331 71.6268 60.5078C71.9988 59.9772 72.3362 59.4221 72.637 58.8462L72.5191 58.7259H60.0602V54.7151H72.5921C72.5413 54.5337 72.4794 54.3557 72.4069 54.1822C71.952 53.118 71.2011 52.2136 70.2473 51.5811C69.2936 50.9485 68.1789 50.6158 67.0417 50.6241C64.8979 50.5782 62.7484 50.6241 60.599 50.6241H60.0658V46.6133H81.9194V50.6241H74.9267C75.8177 51.8382 76.4434 53.2332 76.7619 54.7151H81.925V58.7259H76.8404C75.0614 64.8166 70.9421 67.2689 64.9315 66.8793V67.0053L76.7787 79.1008H75.4655C74.1466 79.1008 72.8222 79.1008 71.5033 79.1008C71.2958 79.0886 71.0983 79.0059 70.9421 78.8659C67.3653 75.2332 63.7997 71.5949 60.2454 67.9508C60.1336 67.8458 60.0619 67.7036 60.0434 67.5497C60.0265 65.9683 60.0321 64.4155 60.0321 62.7997Z" fill="white"/>
<path d="M112.994 78.5406C112.655 80.3765 112.429 82.2464 111.96 84.0428C109.468 93.3129 103.172 98.6287 94.0503 100.764C91.5066 101.333 88.9086 101.625 86.302 101.634C77.8811 101.741 69.4603 101.674 61.0451 101.668C60.5699 101.689 60.0944 101.632 59.6378 101.498C59.2529 101.353 58.9276 101.083 58.7136 100.731C58.4996 100.38 58.4091 99.967 58.4565 99.5583C58.5039 99.1496 58.6864 98.7684 58.9751 98.4751C59.2639 98.1819 59.6423 97.9934 60.0504 97.9395C60.4532 97.9142 60.8571 97.9142 61.2599 97.9395C69.6468 97.9395 78.0281 97.9395 86.4093 97.9395C90.7637 98.0061 95.0685 97.0093 98.9502 95.0359C104.658 92.0532 107.75 87.2119 108.807 80.9753C109.818 74.976 108.925 69.1123 107.456 63.305C104.523 51.6792 99.2215 41.4092 90.6311 32.9356C87.8761 30.2301 84.8259 27.8425 81.5377 25.8177C80.7069 25.298 80.0005 25.1342 79.1188 25.6031C78.5888 25.8355 78.0406 26.0245 77.4799 26.168C79.0849 27.665 80.6278 29.0772 82.1311 30.5234C83.0975 31.4499 83.1201 32.6362 82.2498 33.4214C81.3794 34.2066 80.4413 34.071 79.4918 33.1898C77.2764 31.1448 75.0836 29.0772 72.8738 27.0323C72.4603 26.7045 72.0282 26.4008 71.5796 26.1228C71.5796 27.6085 71.5796 28.7609 71.5796 29.919C71.5796 30.6138 71.5796 31.3143 71.5796 32.0091C71.5859 32.2532 71.5441 32.4961 71.4565 32.724C71.3689 32.9519 71.2372 33.1603 71.069 33.3374C70.9008 33.5144 70.6994 33.6566 70.4762 33.7558C70.253 33.8551 70.0125 33.9094 69.7683 33.9157C69.5241 33.922 69.2811 33.8802 69.0531 33.7926C68.8251 33.705 68.6166 33.5734 68.4395 33.4053C68.2623 33.2371 68.1201 33.0358 68.0208 32.8127C67.9215 32.5896 67.8672 32.3492 67.8609 32.1051C67.7874 30.7494 67.8326 29.3879 67.827 28.0265V26.2075C67.3978 26.4463 66.9844 26.7123 66.5893 27.004C64.4021 29.0207 62.2319 31.0657 60.0504 33.0881C58.9201 34.1049 57.8519 34.1671 57.0494 33.2915C56.2469 32.4158 56.3995 31.3538 57.5015 30.3144C58.9427 28.9643 60.3895 27.6198 61.9154 26.2019C61.1384 25.8858 60.344 25.6142 59.5361 25.3884C59.1282 25.3282 58.7118 25.4078 58.3549 25.6144C52.5129 29.0617 47.4083 33.6266 43.3331 39.0479C43.1018 39.3808 42.8508 39.6996 42.5814 40.0026C42.2738 40.3507 41.8455 40.5693 41.3831 40.6144C40.9206 40.6594 40.4582 40.5276 40.0891 40.2455C39.8888 40.1114 39.7182 39.9377 39.5877 39.7352C39.4573 39.5326 39.3698 39.3055 39.3306 39.0678C39.2914 38.8301 39.3014 38.5869 39.3599 38.3532C39.4184 38.1195 39.5242 37.9002 39.6708 37.709C40.6712 36.3476 41.7789 35.0709 42.8075 33.7547C43.0838 33.4365 43.2589 33.0431 43.3104 32.6249C43.35 28.727 43.3104 24.8291 43.3104 20.9369C43.2984 20.7771 43.2738 20.6184 43.237 20.4624C40.0172 21.9393 36.5163 22.7039 32.9737 22.7039C29.4311 22.7039 25.9302 21.9393 22.7105 20.4624V33.8451C24.4625 34.1332 26.2483 34.2179 27.8986 34.7433C29.8113 35.3529 31.6455 36.1853 33.3637 37.2232C35.0592 38.2739 35.8278 39.9969 35.8165 42.104C35.7656 50.8488 35.8165 59.6162 35.8165 68.3497V69.7732C36.2799 69.7732 36.6699 69.7732 37.0542 69.7732C40.4451 69.6376 43.7569 69.8467 46.9162 71.1121C48.1742 71.6172 49.366 72.2736 50.4653 73.0666C51.2319 73.6134 51.8477 74.345 52.2558 75.1933C52.6638 76.0417 52.8509 76.9793 52.7994 77.9192C52.7505 85.5982 52.7505 93.279 52.7994 100.962C52.8373 101.993 52.6098 103.016 52.1388 103.934C51.6678 104.852 50.969 105.633 50.1093 106.204C47.6848 107.961 44.8929 108.678 41.9823 109.029C37.1728 109.627 32.5329 109.113 28.1642 106.826C26.2879 110.644 22.7783 111.757 19.0822 112.554C18.2627 112.734 17.4262 112.853 16.6011 113H11.7295C11.3734 112.927 11.023 112.831 10.667 112.78C7.79596 112.39 5.01539 111.65 2.66433 109.927C0.929298 108.656 -0.0597276 107.029 0.0193945 104.781C0.146556 102.321 0.146556 99.8567 0.0193945 97.3972C-0.195365 94.1377 1.38708 92.104 4.08853 90.72C5.21884 90.1551 6.34916 89.7427 7.5699 89.2287V87.9011C7.5699 72.7616 7.60946 57.622 7.54164 42.4825C7.48846 41.2655 7.77809 40.058 8.37756 38.9974C8.97703 37.9368 9.86227 37.0657 10.9326 36.4832C13.0174 35.2306 15.3556 34.4587 17.7766 34.2236C18.6809 34.1219 18.907 33.7999 18.907 32.9243C18.873 27.1566 18.907 21.3888 18.907 15.6155C18.8656 14.7484 19.0353 13.8842 19.4015 13.0971C19.7676 12.31 20.3194 11.6234 21.0093 11.0962C22.046 10.2823 23.1863 9.60984 24.4003 9.09644C28.5259 7.44126 32.8324 7.23224 37.1898 7.87623C39.8284 8.1695 42.3529 9.11286 44.5368 10.6217C45.382 11.1802 46.0685 11.9475 46.5299 12.8491C46.9913 13.7507 47.212 14.7561 47.1705 15.768C47.0857 19.8127 47.1705 23.8575 47.1705 27.8966V29.0264C50.0754 26.8233 52.822 24.7274 55.6139 22.6316C55.5887 22.5751 55.5564 22.5219 55.5178 22.4735C50.5501 17.3272 49.0411 10.938 49.0185 4.0631C49.0185 1.17077 51.9178 -0.507005 54.5175 0.809231C55.3945 1.26967 56.2172 1.82675 56.9703 2.47006C59.0783 4.20998 61.6215 4.23823 63.6957 2.47006C67.5557 -0.817703 71.9244 -0.829001 75.7505 2.47006C77.8698 4.27777 80.3904 4.24387 82.5324 2.47006C83.2611 1.85421 84.0552 1.32001 84.9004 0.877022C87.6357 -0.507003 90.5011 1.30635 90.4841 4.3851C90.4928 5.19369 90.4418 6.00182 90.3315 6.80291C90.1846 7.80844 90.4333 8.30557 91.4618 8.7123C96.4917 10.6499 100.069 17.7508 94.6776 23.1175C94.5881 23.2377 94.5141 23.3686 94.4572 23.5072C94.9715 23.6485 95.3897 23.7615 95.8079 23.8857C99.018 24.8348 102.025 26.1906 104.285 28.7439C104.479 28.9263 104.633 29.1474 104.736 29.3928C104.839 29.6382 104.89 29.9026 104.885 30.1688C104.879 30.4349 104.818 30.697 104.705 30.9381C104.592 31.1792 104.43 31.394 104.229 31.5685C103.398 32.269 102.392 32.1334 101.499 31.2408C98.1703 27.8514 93.8525 27.0605 89.0656 26.4956C89.8059 27.1396 90.2976 27.5633 90.7611 27.9983C91.2245 28.4332 91.8122 28.9191 92.3209 29.3992C102.855 39.4038 108.982 51.7865 111.87 65.8867C112.356 68.248 112.61 70.6601 113 73.0497L112.994 78.5406ZM24.519 90.7878C24.519 86.4945 24.632 82.4159 24.4794 78.3598C24.3664 75.3997 25.7001 73.4621 28.1247 72.1063C29.0463 71.5766 30.0245 71.1522 31.0409 70.8409C31.8773 70.5923 32.0582 70.1856 32.0525 69.3665C32.0186 62.2035 32.0525 55.0404 32.0525 47.9C32.0525 47.5554 32.0186 47.2051 31.996 46.7702C28.7726 48.2593 25.264 49.0305 21.713 49.0305C18.1619 49.0305 14.6533 48.2593 11.4299 46.7702V88.6412C15.9088 88.0758 20.4556 88.8215 24.519 90.7878ZM28.2773 82.4667V83.6813C28.2773 89.3755 28.3112 95.0755 28.2773 100.77C28.2366 101.299 28.3533 101.829 28.6127 102.292C28.8721 102.755 29.2627 103.132 29.7354 103.374C30.2425 103.668 30.7694 103.926 31.3122 104.148C34.2865 105.253 37.4752 105.658 40.6316 105.334C42.9399 105.208 45.1962 104.6 47.2552 103.549C47.8237 103.295 48.2996 102.872 48.6174 102.337C48.9352 101.801 49.0793 101.181 49.0298 100.561C48.9507 94.9399 48.9959 89.319 48.9959 83.6926C48.9959 83.3141 48.962 82.9356 48.9394 82.4893C42.0332 85.5172 35.2457 85.5342 28.2773 82.4667ZM86.658 4.00096C85.895 4.56587 85.3751 4.88787 84.9004 5.28331C81.1986 8.36771 76.7508 8.33381 73.0886 5.18727C70.9071 3.31177 68.3752 3.30613 66.2163 5.18727C62.5654 8.33946 58.1176 8.37335 54.3988 5.28895C53.9184 4.89352 53.3759 4.56587 52.7034 4.0857C52.7768 9.16987 53.6698 13.7852 56.4617 17.8356C57.7898 19.7675 59.3948 21.434 61.7176 22.1684C62.5373 22.3745 63.3674 22.5367 64.2043 22.6542C63.8596 21.9989 63.6392 21.66 63.4979 21.2928C62.458 18.7903 61.3898 16.299 60.4234 13.7682C60.3345 13.5345 60.2962 13.2847 60.311 13.0351C60.3258 12.7856 60.3934 12.542 60.5093 12.3204C60.6252 12.0989 60.7867 11.9044 60.9833 11.7499C61.1799 11.5953 61.4071 11.4842 61.6498 11.4239C62.11 11.2838 62.6067 11.3281 63.0349 11.5474C63.4631 11.7666 63.7892 12.1437 63.9443 12.5989C64.0687 12.9039 64.1139 13.2429 64.2495 13.5366C65.5494 16.2821 66.804 19.0501 68.2056 21.7504C68.8725 23.0553 70.4663 23.0101 71.2518 21.7843C73.0077 19.0687 74.3807 16.1242 75.3323 13.0338C75.7448 11.6724 76.6773 11.0962 77.7681 11.4295C78.8588 11.7628 79.3788 12.7966 78.8984 14.2032C78.3521 15.7962 77.7511 17.3705 77.0955 18.9258C76.5869 20.1347 75.9652 21.2872 75.3718 22.4848C76.337 22.5167 77.2984 22.3513 78.1974 21.9986C79.0963 21.646 79.9137 21.1137 80.5995 20.4341C85.2395 16.0505 86.4263 10.3731 86.658 4.00096ZM38.7496 73.4395C35.9172 73.3326 33.098 73.8777 30.5096 75.0325C29.5658 75.4901 28.379 75.959 28.3451 77.1509C28.3112 78.3429 29.4754 78.9021 30.4475 79.3032C33.0267 80.4252 35.8095 81.0042 38.6225 81.0042C41.4354 81.0042 44.2182 80.4252 46.7975 79.3032C47.7639 78.9021 48.9338 78.3598 48.9168 77.1622C48.8999 75.9646 47.713 75.4675 46.7692 75.0325C44.2505 73.9034 41.5088 73.3587 38.7496 73.4395ZM21.6706 37.6864C18.8683 37.591 16.0816 38.1419 13.5267 39.2964C12.5772 39.7596 11.3791 40.2342 11.4017 41.4431C11.4243 42.652 12.5885 43.1717 13.5606 43.5728C16.1308 44.6838 18.9014 45.257 21.7017 45.257C24.5019 45.257 27.2725 44.6838 29.8428 43.5728C30.8092 43.1717 31.9847 42.6463 31.9677 41.4318C31.9508 40.2172 30.764 39.7371 29.8145 39.2964C27.2588 38.1442 24.4727 37.5934 21.6706 37.6864ZM14.1088 99.7585C16.9027 99.8542 19.6818 99.3133 22.2357 98.1768C23.2191 97.7079 24.4568 97.2334 24.4398 95.9793C24.4229 94.7252 23.2417 94.2846 22.2753 93.8609C19.7089 92.7582 16.9446 92.1895 14.1512 92.1895C11.3577 92.1895 8.59344 92.7582 6.02702 93.8609C5.0606 94.2563 3.89072 94.7874 3.86811 95.985C3.84551 97.1826 5.04365 97.6797 5.98181 98.1316C8.53022 99.2894 11.3108 99.8461 14.1088 99.7585ZM32.9285 18.8129C35.7302 18.9146 38.518 18.3735 41.0781 17.2311C42.0219 16.7735 43.2144 16.3273 43.2483 15.1184C43.2878 13.8247 42.0558 13.3107 41.0668 12.9096C38.5107 11.8165 35.7595 11.2529 32.9794 11.2529C30.1992 11.2529 27.448 11.8165 24.892 12.9096C23.9256 13.305 22.7444 13.8134 22.7105 15.0167C22.6766 16.3047 23.9199 16.7622 24.8976 17.2311C27.4185 18.3649 30.1658 18.906 32.9285 18.8129ZM24.5133 101.289C17.5901 104.346 10.7348 104.334 3.79465 101.289C3.79465 102.419 3.87377 103.498 3.79465 104.543C3.7268 105.057 3.82447 105.578 4.07347 106.032C4.32247 106.487 4.70983 106.849 5.17928 107.068C5.87119 107.478 6.59961 107.822 7.35514 108.097C10.8054 109.295 14.5162 109.538 18.0931 108.797C19.8646 108.378 21.5852 107.769 23.2248 106.978C23.5374 106.806 23.81 106.569 24.0243 106.284C24.2387 105.999 24.3899 105.671 24.4681 105.323C24.5773 103.981 24.5924 102.633 24.5133 101.289ZM84.1092 22.2588C86.9745 23.1796 90.8176 22.0328 92.5469 19.8353C94.6945 17.1068 93.0556 12.8474 89.4895 12.0792C88.5913 15.8745 86.7395 19.3782 84.1092 22.2588Z" fill="white"/>
<path d="M87.8436 93.9298C85.7037 93.9627 84.7615 93.2497 84.7501 92.0761C84.7388 90.9024 85.6186 90.2005 87.083 90.1621C89.8518 90.1367 92.5786 89.5048 95.058 88.3139C99.0994 86.3066 100.734 82.8296 101.268 78.7109C101.324 78.2831 101.268 77.8498 101.336 77.4275C101.368 76.9246 101.597 76.4523 101.976 76.1068C102.356 75.7614 102.858 75.5688 103.379 75.5684C103.648 75.5881 103.91 75.66 104.149 75.7797C104.388 75.8995 104.6 76.0647 104.772 76.2654C104.944 76.4661 105.072 76.6982 105.148 76.9478C105.225 77.1975 105.249 77.4595 105.218 77.7182C105.143 80.499 104.411 83.2264 103.078 85.6924C100.723 90.0798 96.7382 92.1912 92.0156 93.2826C90.449 93.6501 88.8256 93.7817 87.8436 93.9298Z" fill="white"/>
</svg>
