<svg width="54" height="55" viewBox="0 0 54 55" fill="none" xmlns="http://www.w3.org/2000/svg">
<circle cx="26.8003" cy="27.2954" r="26.8003" fill="#091853"/>
<path d="M23.2141 36.289C23.2141 36.9295 22.6998 37.449 22.0644 37.449C21.429 37.449 20.9132 36.9295 20.9132 36.289L20.9132 21.1015L17.837 24.2025C17.3881 24.655 16.6595 24.655 16.2106 24.2025C15.7617 23.749 15.7617 23.0145 16.2106 22.562L21.2505 17.482C21.4662 17.2645 21.7589 17.142 22.0639 17.142C22.3695 17.142 22.6616 17.2645 22.8774 17.482L27.9147 22.562C28.1399 22.789 28.2515 23.0855 28.2515 23.382C28.2515 23.6795 28.1389 23.976 27.9147 24.203C27.4649 24.6555 26.7362 24.6555 26.2874 24.202L23.2141 21.103L23.2141 36.289Z" fill="white"/>
<path d="M37.3898 32.029L32.3495 37.109C32.1337 37.3265 31.8416 37.449 31.5365 37.449C31.231 37.449 30.9379 37.3265 30.7221 37.109L25.6862 32.0275C25.2373 31.575 25.2373 30.8405 25.6862 30.388C26.1361 29.9355 26.8637 29.9355 27.3136 30.389L30.3858 33.488L30.3858 18.302C30.3858 17.6615 30.9012 17.142 31.5365 17.142C32.1719 17.142 32.6862 17.6615 32.6862 18.302L32.6863 33.489L35.7624 30.388C36.2123 29.9355 36.9409 29.9355 37.3898 30.388C37.614 30.615 37.7266 30.9115 37.7266 31.209C37.7266 31.5055 37.614 31.802 37.3898 32.029Z" fill="white"/>
</svg>
